<svg width="73" height="73" viewBox="0 0 73 73" fill="none" xmlns="http://www.w3.org/2000/svg">
<path fill-rule="evenodd" clip-rule="evenodd" d="M39.75 7.25C38.5074 7.25 37.5 8.25736 37.5 9.5C37.5 10.7426 38.5074 11.75 39.75 11.75C42.6063 11.75 45.4345 12.3126 48.0734 13.4056C50.7122 14.4987 53.1099 16.1008 55.1296 18.1204C57.1492 20.1401 58.7513 22.5378 59.8444 25.1766C60.9374 27.8155 61.5 30.6437 61.5 33.5C61.5 34.7426 62.5074 35.75 63.75 35.75C64.9926 35.75 66 34.7426 66 33.5C66 30.0528 65.321 26.6394 64.0018 23.4546C62.6827 20.2698 60.7491 17.376 58.3116 14.9384C55.874 12.5009 52.9802 10.5673 49.7954 9.24816C46.6106 7.92898 43.1972 7.25 39.75 7.25ZM63.75 57.5V52.5622C63.75 50.1088 62.2563 47.9025 59.9783 46.9913L53.8759 44.5504C50.9786 43.3914 47.6766 44.6469 46.281 47.438L45.75 48.5C45.75 48.5 38.25 47 32.25 41C26.25 35 24.75 27.5 24.75 27.5L25.812 26.969C28.6031 25.5734 29.8586 22.2714 28.6996 19.3741L26.2587 13.2717C25.3475 10.9937 23.1412 9.5 20.6878 9.5H15.75C12.4363 9.5 9.75 12.1863 9.75 15.5C9.75 42.0097 31.2403 63.5 57.75 63.5C61.0637 63.5 63.75 60.8137 63.75 57.5ZM37.5 21.5C37.5 20.2574 38.5074 19.25 39.75 19.25C41.6213 19.25 43.4743 19.6186 45.2032 20.3347C46.9321 21.0508 48.503 22.1005 49.8263 23.4237C51.1495 24.747 52.1992 26.3179 52.9153 28.0468C53.6314 29.7757 54 31.6287 54 33.5C54 34.7426 52.9926 35.75 51.75 35.75C50.5074 35.75 49.5 34.7426 49.5 33.5C49.5 32.2196 49.2478 30.9518 48.7578 29.7688C48.2678 28.5859 47.5497 27.5111 46.6443 26.6057C45.7389 25.7003 44.6641 24.9822 43.4812 24.4922C42.2982 24.0022 41.0304 23.75 39.75 23.75C38.5074 23.75 37.5 22.7426 37.5 21.5Z" fill="white"/>
</svg>
