<svg width="73" height="72" viewBox="0 0 73 72" fill="none" xmlns="http://www.w3.org/2000/svg">
<path fill-rule="evenodd" clip-rule="evenodd" d="M14.8794 14.4277C16.871 13.329 19.0813 12.75 21.3328 12.75H26.3764C29.9483 12.75 33.2803 14.1951 35.822 16.6389C38.3828 14.1761 41.724 12.75 45.2675 12.75H51.6672C53.9187 12.75 56.129 13.329 58.1206 14.4277L64.2701 17.8201C67.0884 19.3749 68.75 22.465 68.75 25.7113V44.4798C68.75 49.1653 65.2594 53.3497 60.5 53.3497H48.3604C47.3708 54.4169 46.0951 55.2346 44.5705 55.6551L33.981 58.576C29.6393 59.7736 25.0621 59.3658 20.9647 57.4283L9.17467 51.8533C6.10068 50.3998 4.25 47.1591 4.25 43.7346V25.7113C4.25 22.465 5.9116 19.3749 8.72989 17.8201L14.8794 14.4277ZM32.9803 20.1587C31.1813 18.2902 28.8209 17.25 26.3764 17.25H21.3328C19.8584 17.25 18.394 17.6281 17.0531 18.3679L10.9035 21.7603C9.65642 22.4483 8.75 23.9427 8.75 25.7113V43.7346C8.75 45.6064 9.76008 47.1524 11.0983 47.7852L22.8883 53.3602C26.0226 54.8422 29.4932 55.1458 32.7844 54.238L43.3739 51.3171C45.6295 50.6949 47.1127 47.6124 45.7674 44.891L40.3594 33.952L38.3333 36.1875C35.6916 39.1021 31.3084 39.1021 28.6667 36.1875C26.3275 33.6066 26.1418 29.5901 28.182 26.7763L32.9803 20.1587Z" fill="white"/>
</svg>
