<svg width="73" height="72" viewBox="0 0 73 72" fill="none" xmlns="http://www.w3.org/2000/svg">
<path d="M6.95065 37.0408C6.61884 36.9006 6.25 37.1431 6.25 37.5033V55.1253C6.25 61.7527 11.6226 67.1253 18.25 67.1253H54.25C60.8774 67.1253 66.25 61.7527 66.25 55.1253V37.5034C66.25 37.1432 65.8812 36.9007 65.5494 37.0409C61.5728 38.7208 56.2077 40.555 49.7608 41.7263C47.6477 42.1102 46.1153 43.9263 45.1291 45.8343C43.633 48.7288 40.612 50.7075 37.1289 50.7075H35.3708C31.8877 50.7075 28.8667 48.7288 27.3706 45.8342C26.3844 43.9263 24.852 42.1101 22.7389 41.7262C16.2921 40.5548 10.9271 38.7206 6.95065 37.0408Z" fill="white"/>
<path fill-rule="evenodd" clip-rule="evenodd" d="M54.25 19.125H18.25C11.6226 19.125 6.25 24.4976 6.25 31.125V31.632C6.25 31.9665 6.41549 32.277 6.7013 32.4508C8.65332 33.6376 16.8131 38.2163 28.7445 39.6964V45.0674C28.7445 46.172 29.6399 47.0674 30.7445 47.0674H41.7548C42.8593 47.0674 43.7548 46.172 43.7548 45.0674V39.6965C55.6866 38.2165 63.8466 33.6376 65.7987 32.4508C66.0845 32.277 66.25 31.9665 66.25 31.632V31.125C66.25 24.4976 60.8774 19.125 54.25 19.125ZM33.0754 37.4081C32.9649 37.4081 32.8754 37.4976 32.8754 37.6081V42.5745C32.8754 43.0164 33.2335 43.3745 33.6754 43.3745H38.8243C39.2662 43.3745 39.6243 43.0164 39.6243 42.5745V37.6081C39.6243 37.4976 39.5348 37.4081 39.4243 37.4081H33.0754Z" fill="white"/>
<path fill-rule="evenodd" clip-rule="evenodd" d="M33.2495 9.375C29.5216 9.375 26.4995 12.3971 26.4995 16.125V19.125C26.4995 20.3676 25.4922 21.375 24.2495 21.375C23.0069 21.375 21.9995 20.3676 21.9995 19.125V16.125C21.9995 9.9118 27.0363 4.875 33.2495 4.875H39.2495C45.4627 4.875 50.4995 9.9118 50.4995 16.125V19.125C50.4995 20.3676 49.4922 21.375 48.2495 21.375C47.0069 21.375 45.9995 20.3676 45.9995 19.125V16.125C45.9995 12.3971 42.9774 9.375 39.2495 9.375H33.2495Z" fill="white"/>
</svg>
