<svg width="61" height="60" viewBox="0 0 61 60" fill="none" xmlns="http://www.w3.org/2000/svg">
<g clip-path="url(#clip0_1516_35354)">
<mask id="mask0_1516_35354" style="mask-type:luminance" maskUnits="userSpaceOnUse" x="0" y="0" width="61" height="60">
<path d="M60.8572 0H0.857178V60H60.8572V0Z" fill="white"/>
</mask>
<g mask="url(#mask0_1516_35354)">
<path d="M22.2209 18.6459C21.0266 18.8647 19.8741 19.2696 18.8055 19.8459C13.8209 18.6459 7.82088 20.2152 7.17473 21.6921C6.62088 22.8921 9.20549 25.3844 10.9593 26.8613C10.1185 28.4458 9.55644 30.1632 9.2978 31.9382C7.54396 32.1229 5.14396 32.6767 4.77473 34.1536C4.12857 36.6459 4.77473 42.4613 8.00549 43.1075C9.40886 43.3345 10.8307 43.4272 12.2516 43.3844C13.5013 44.829 14.9643 46.0741 16.5901 47.0767L15.1132 53.4459H24.6209L25.9132 50.0305C26.6471 50.1379 27.387 50.1995 28.1286 50.2152C29.369 50.1524 30.6031 49.9981 31.8209 49.7536L30.8978 53.4459H39.944C39.944 53.4459 47.0516 44.1229 48.067 39.0459C48.8031 37.4877 49.1815 35.7846 49.1747 34.0613C48.9901 30.4613 44.2824 14.769 22.2209 18.6459Z" fill="#005993"/>
<path d="M33.7594 6.46143C32.6196 6.4601 31.4907 6.68362 30.4374 7.1192C29.384 7.55478 28.4269 8.19387 27.621 8.99986C26.815 9.80586 26.1759 10.7629 25.7403 11.8163C25.3047 12.8696 25.0812 13.9985 25.0825 15.1384C25.089 16.6105 25.4641 18.0576 26.1735 19.3475C26.883 20.6375 27.9042 21.7292 29.1441 22.523C31.3504 22.4548 33.5479 22.8315 35.6056 23.6307C37.5582 23.2231 39.3114 22.1571 40.5717 20.6111C41.8321 19.0651 42.5229 17.133 42.5287 15.1384C42.4948 12.8317 41.5572 10.6304 39.9173 9.00776C38.2775 7.38516 36.0664 6.47086 33.7594 6.46143Z" fill="#D71049"/>
<path d="M36.8978 12.5536C36.8978 12.5536 36.6208 11.1689 33.7593 11.1689C31.5439 11.1689 30.6208 12.3689 30.6208 13.4766C30.6208 14.5843 31.9132 15.3228 33.7593 15.3228C36.2516 15.3228 36.8978 16.1536 36.8978 17.1689C36.8978 18.5536 35.4208 19.4766 33.7593 19.4766C33.1644 19.5067 32.5708 19.3971 32.0258 19.1567C31.4809 18.9162 30.9997 18.5516 30.6208 18.092" stroke="white" stroke-width="2" stroke-miterlimit="10" stroke-linecap="round" stroke-linejoin="round"/>
<path d="M33.667 10.0615V20.2154" stroke="white" stroke-width="2" stroke-miterlimit="10" stroke-linecap="round" stroke-linejoin="round"/>
<path d="M16.1286 32.0307C16.6384 32.0307 17.0517 31.6174 17.0517 31.1076C17.0517 30.5978 16.6384 30.1846 16.1286 30.1846C15.6188 30.1846 15.2056 30.5978 15.2056 31.1076C15.2056 31.6174 15.6188 32.0307 16.1286 32.0307Z" stroke="white" stroke-width="2" stroke-miterlimit="10" stroke-linecap="round" stroke-linejoin="round"/>
<path d="M47.144 30.5536C47.144 30.5536 53.5133 30.9228 53.144 26.3997C52.8671 23.0767 51.2056 22.4305 50.0979 23.8151C49.1748 25.0151 50.0979 28.3382 53.9748 28.1536C57.8517 27.969 56.744 23.0767 56.744 23.0767" stroke="#0085B8" stroke-miterlimit="10" stroke-linecap="round" stroke-linejoin="round"/>
<path d="M25.8208 22.7997C25.8208 22.7997 33.2054 21.4151 37.3593 24.7382" stroke="#0085B8" stroke-miterlimit="10" stroke-linecap="round" stroke-linejoin="round"/>
</g>
</g>
<defs>
<clipPath id="clip0_1516_35354">
<rect x="0.857178" width="60" height="60" rx="8" fill="white"/>
</clipPath>
</defs>
</svg>
