<svg width="61" height="60" viewBox="0 0 61 60" fill="none" xmlns="http://www.w3.org/2000/svg">
<g clip-path="url(#clip0_1516_35370)">
<mask id="mask0_1516_35370" style="mask-type:luminance" maskUnits="userSpaceOnUse" x="0" y="0" width="61" height="60">
<path d="M60.4285 0H0.428467V60H60.4285V0Z" fill="white"/>
</mask>
<g mask="url(#mask0_1516_35370)">
<path d="M30.4285 53.9995C43.6833 53.9995 54.4285 43.2543 54.4285 29.9995C54.4285 16.7447 43.6833 5.99951 30.4285 5.99951C17.1736 5.99951 6.42847 16.7447 6.42847 29.9995C6.42847 43.2543 17.1736 53.9995 30.4285 53.9995Z" stroke="#0085B8"/>
<path d="M16.5824 27.6922C22.9549 27.6922 28.1209 22.5262 28.1209 16.1537C28.1209 9.78118 22.9549 4.61523 16.5824 4.61523C10.2099 4.61523 5.04395 9.78118 5.04395 16.1537C5.04395 22.5262 10.2099 27.6922 16.5824 27.6922Z" fill="#005993"/>
<path d="M16.5824 55.3845C22.9549 55.3845 28.1209 50.2186 28.1209 43.8461C28.1209 37.4736 22.9549 32.3076 16.5824 32.3076C10.2099 32.3076 5.04395 37.4736 5.04395 43.8461C5.04395 50.2186 10.2099 55.3845 16.5824 55.3845Z" fill="#D71049"/>
<path d="M44.2748 27.6922C50.6473 27.6922 55.8133 22.5262 55.8133 16.1537C55.8133 9.78118 50.6473 4.61523 44.2748 4.61523C37.9023 4.61523 32.7363 9.78118 32.7363 16.1537C32.7363 22.5262 37.9023 27.6922 44.2748 27.6922Z" fill="#D71049"/>
<path d="M44.2748 55.3845C50.6473 55.3845 55.8133 50.2186 55.8133 43.8461C55.8133 37.4736 50.6473 32.3076 44.2748 32.3076C37.9023 32.3076 32.7363 37.4736 32.7363 43.8461C32.7363 50.2186 37.9023 55.3845 44.2748 55.3845Z" fill="#005993"/>
<path d="M18.1729 18.8981C18.1923 18.5264 18.0654 18.1619 17.8194 17.8827C17.4749 17.5659 17.0654 17.3284 16.6194 17.1867C16.1208 17.0032 15.633 16.7918 15.1581 16.5535C14.7755 16.3621 14.4211 16.1189 14.1049 15.8307C13.8137 15.5608 13.5809 15.2341 13.4209 14.8707C13.2485 14.4547 13.1652 14.0073 13.1763 13.5572C13.1621 13.1599 13.2293 12.7639 13.3738 12.3936C13.5182 12.0233 13.7369 11.6864 14.0163 11.4036C14.6208 10.8236 15.4113 10.4766 16.2474 10.4242V8.7627H17.488V10.4501C18.3276 10.5377 19.1 10.9489 19.6415 11.5965C20.1831 12.3022 20.4583 13.1762 20.4188 14.0648H18.1729C18.2102 13.5691 18.0742 13.0757 17.788 12.6692C17.6634 12.5181 17.5057 12.3978 17.327 12.3178C17.1483 12.2377 16.9535 12.2 16.7578 12.2076C16.5771 12.1964 16.3961 12.2228 16.2261 12.285C16.0561 12.3473 15.9008 12.4442 15.7701 12.5695C15.6488 12.7046 15.5554 12.8625 15.4954 13.0339C15.4353 13.2053 15.4098 13.3869 15.4203 13.5682C15.4121 13.7412 15.4381 13.914 15.4969 14.0769C15.5556 14.2397 15.646 14.3893 15.7628 14.5172C16.1345 14.8417 16.5664 15.0901 17.0338 15.2482C17.5566 15.4521 18.0667 15.687 18.5615 15.9516C18.9324 16.151 19.2728 16.4025 19.5723 16.6984C19.843 16.9698 20.057 17.2924 20.2018 17.6473C20.3543 18.0425 20.4283 18.4635 20.4197 18.887C20.4357 19.282 20.3709 19.6761 20.2291 20.0452C20.0874 20.4142 19.8717 20.7504 19.5954 21.0332C18.9763 21.6136 18.1728 21.9577 17.3255 22.0052V23.5522H16.0886V22.0061C15.1532 21.9517 14.2723 21.5482 13.6203 20.8753C13.0143 20.1672 12.7025 19.2539 12.7489 18.323H14.9929C14.9585 18.834 15.1151 19.3396 15.4323 19.7418C15.594 19.9115 15.791 20.0437 16.0093 20.129C16.2276 20.2144 16.4621 20.2507 16.696 20.2356C17.0893 20.2573 17.476 20.1279 17.7769 19.8738C17.9096 19.7495 18.0138 19.5979 18.0822 19.4295C18.1505 19.261 18.1815 19.0797 18.1729 18.8981Z" fill="white" stroke="white" stroke-linecap="round" stroke-linejoin="round"/>
<path d="M48.6519 13.1546V14.1487C48.6536 14.1901 48.6467 14.2315 48.6316 14.2701C48.6165 14.3087 48.5936 14.3438 48.5643 14.3731C48.535 14.4024 48.4999 14.4253 48.4613 14.4404C48.4227 14.4555 48.3813 14.4624 48.3399 14.4607H46.7024C46.5786 15.3499 46.1309 16.1621 45.4451 16.7416C44.6754 17.3598 43.7383 17.7334 42.7544 17.8142C43.8399 18.9712 45.3316 20.713 47.2294 23.0398C47.2726 23.0824 47.3 23.1384 47.307 23.1987C47.3141 23.2589 47.3004 23.3197 47.2682 23.3712C47.2456 23.4264 47.2061 23.4731 47.1554 23.5046C47.1047 23.5361 47.0453 23.5508 46.9857 23.5465H45.0842C45.0371 23.5485 44.9902 23.5389 44.9477 23.5184C44.9052 23.498 44.8684 23.4674 44.8405 23.4293C42.8516 21.0441 41.2331 19.1884 39.9851 17.8622C39.9559 17.8348 39.9325 17.8016 39.9167 17.7648C39.9008 17.7279 39.8927 17.6882 39.8928 17.6481V16.4112C39.894 16.3288 39.9273 16.2501 39.9855 16.1919C40.0438 16.1336 40.1225 16.1004 40.2048 16.0992H41.2968C42.0111 16.1298 42.7221 15.986 43.3682 15.6801C43.6121 15.5601 43.8275 15.3892 44 15.1791C44.1724 14.9689 44.2978 14.7243 44.3679 14.4616H40.2048C40.1634 14.4633 40.1221 14.4564 40.0835 14.4413C40.0448 14.4263 40.0098 14.4033 39.9804 14.374C39.9511 14.3447 39.9282 14.3096 39.9131 14.271C39.8981 14.2324 39.8911 14.1911 39.8928 14.1496V13.1555C39.8911 13.1141 39.8981 13.0727 39.9131 13.0341C39.9282 12.9955 39.9511 12.9604 39.9804 12.9311C40.0098 12.9018 40.0448 12.8789 40.0835 12.8638C40.1221 12.8487 40.1634 12.8418 40.2048 12.8435H44.2359C43.8667 12.1093 42.9959 11.7422 41.6236 11.7422H40.2104C40.128 11.7411 40.0493 11.7078 39.9911 11.6495C39.9328 11.5913 39.8996 11.5126 39.8984 11.4302V10.1379C39.8967 10.0965 39.9036 10.0552 39.9187 10.0166C39.9337 9.97794 39.9567 9.94287 39.986 9.91356C40.0153 9.88424 40.0504 9.86131 40.089 9.84623C40.1276 9.83115 40.1689 9.82424 40.2104 9.82593H48.3215C48.3629 9.82424 48.4042 9.83115 48.4428 9.84623C48.4814 9.86131 48.5165 9.88424 48.5458 9.91356C48.5751 9.94287 48.5981 9.97794 48.6132 10.0166C48.6282 10.0552 48.6351 10.0965 48.6334 10.1379V11.1321C48.6351 11.1735 48.6282 11.2148 48.6132 11.2535C48.5981 11.2921 48.5751 11.3272 48.5458 11.3565C48.5165 11.3858 48.4814 11.4087 48.4428 11.4238C48.4042 11.4389 48.3629 11.4458 48.3215 11.4441H46.0498C46.363 11.8578 46.5766 12.3383 46.6738 12.8481H48.3408C48.3823 12.8464 48.4236 12.8533 48.4622 12.8684C48.5008 12.8835 48.5359 12.9064 48.5652 12.9357C48.5945 12.965 48.6175 13.0001 48.6325 13.0387C48.6476 13.0773 48.6545 13.1187 48.6528 13.1601L48.6519 13.1546Z" fill="white" stroke="white" stroke-width="0.5"/>
<path d="M16.3174 38.8079C16.7052 38.4968 17.1972 38.3456 17.6928 38.3851C18.0701 38.3967 18.437 38.5111 18.7539 38.7161C19.0709 38.9211 19.3257 39.2088 19.491 39.5482L20.8663 38.3851C20.5347 37.7846 20.0424 37.2883 19.4445 36.952C18.8466 36.6156 18.1668 36.4524 17.4814 36.4808C16.4772 36.437 15.4939 36.7773 14.7316 37.4325C14.3435 37.8366 14.0479 38.3202 13.8653 38.8498C13.6826 39.3795 13.6173 39.9425 13.6737 40.4999V42.6156H12.2983V44.3076H13.7753V47.3731H12.4045V49.1731H20.8663V47.3731H15.7894V44.3076H18.6454V42.6156H15.7885V40.3947C15.7479 39.8166 15.9381 39.246 16.3174 38.8079Z" fill="white" stroke="white" stroke-linecap="round" stroke-linejoin="round"/>
<path d="M48.088 38.0933L44.8286 43.3659H44.7363L41.6652 38.0933H39.46L42.8153 43.6539H40.6101V45.092H43.6784V46.1462H40.6101V47.5843H43.6784V49.5976H45.7877V47.5843H48.855V46.1462H45.7877V45.188L45.88 45.0957H48.8523V43.6539H46.7458L50.1972 38.0933H48.088Z" fill="white" stroke="white" stroke-width="0.5" stroke-linecap="round" stroke-linejoin="round"/>
</g>
</g>
<defs>
<clipPath id="clip0_1516_35370">
<rect width="60" height="60" fill="white" transform="translate(0.428467)"/>
</clipPath>
</defs>
</svg>
