<svg width="60" height="60" viewBox="0 0 60 60" fill="none" xmlns="http://www.w3.org/2000/svg">
<g clip-path="url(#clip0_1516_35366)">
<mask id="mask0_1516_35366" style="mask-type:luminance" maskUnits="userSpaceOnUse" x="0" y="0" width="60" height="60">
<path d="M60 0H0V60H60V0Z" fill="white"/>
</mask>
<g mask="url(#mask0_1516_35366)">
<path d="M49.897 38.7111C49.897 45.8632 44.0816 41.1241 36.9296 41.1241C29.7776 41.1241 23.9585 45.8622 23.9585 38.7111C23.9585 33.4118 27.1468 23.0724 31.7123 18.0748L29.989 13.7235C29.9141 13.533 29.8867 13.3272 29.9091 13.1239C29.9314 12.9205 30.0029 12.7256 30.1174 12.556C30.2319 12.3864 30.3859 12.2472 30.5661 12.1503C30.7463 12.0535 30.9474 12.0019 31.152 12.0001H42.697C42.903 11.9979 43.1064 12.0468 43.2889 12.1426C43.4713 12.2383 43.6272 12.3778 43.7425 12.5486C43.8577 12.7194 43.9288 12.9162 43.9493 13.1212C43.9699 13.3263 43.9392 13.5332 43.86 13.7235L42.1431 18.0748C46.7059 23.0724 49.897 33.4155 49.897 38.7111Z" fill="#005993"/>
<path d="M42.1395 18.4189H31.7133C31.6679 18.4195 31.6227 18.411 31.5806 18.3939C31.5385 18.3767 31.5002 18.3513 31.4681 18.3191C31.436 18.2869 31.4107 18.2486 31.3937 18.2064C31.3767 18.1643 31.3683 18.1191 31.369 18.0737C31.3647 18.0274 31.3707 17.9807 31.3865 17.937C31.4023 17.8933 31.4275 17.8536 31.4604 17.8208C31.4933 17.7879 31.533 17.7627 31.5767 17.7469C31.6204 17.7311 31.667 17.7251 31.7133 17.7294H42.1395C42.2309 17.7294 42.3186 17.7657 42.3833 17.8303C42.4479 17.895 42.4842 17.9827 42.4842 18.0741C42.4842 18.1656 42.4479 18.2533 42.3833 18.3179C42.3186 18.3826 42.2309 18.4189 42.1395 18.4189Z" fill="#0085B8" stroke="#0085B8" stroke-linecap="round" stroke-linejoin="round"/>
<path d="M38.7265 30.8905C38.7462 30.5194 38.6177 30.1554 38.3686 29.8765C38.0199 29.5602 37.6052 29.3229 37.1537 29.1815C36.649 28.9982 36.1551 28.7871 35.6744 28.5491C35.287 28.358 34.9282 28.1151 34.6081 27.8273C34.3133 27.5578 34.0776 27.2315 33.9156 26.8687C33.7411 26.4533 33.6567 26.0064 33.668 25.5569C33.6536 25.1602 33.7217 24.7648 33.8679 24.395C34.0142 24.0251 34.2355 23.6887 34.5184 23.4063C35.1304 22.8272 35.9307 22.4806 36.7771 22.4283V20.769H38.0331V22.4541C38.8831 22.5416 39.6651 22.9523 40.2133 23.599C40.7616 24.3037 41.0403 25.1765 41.0002 26.0639H38.7265C38.7643 25.5688 38.6265 25.0761 38.3368 24.6701C38.2107 24.5193 38.051 24.3992 37.8701 24.3192C37.6892 24.2393 37.492 24.2016 37.2939 24.2092C37.111 24.198 36.9277 24.2244 36.7556 24.2865C36.5834 24.3487 36.4263 24.4455 36.294 24.5706C36.1711 24.7056 36.0766 24.8632 36.0158 25.0344C35.955 25.2055 35.9292 25.3869 35.9398 25.568C35.9315 25.7407 35.9578 25.9133 36.0173 26.0759C36.0768 26.2385 36.1683 26.388 36.2865 26.5156C36.6628 26.8397 37.1001 27.0878 37.5733 27.2457C38.1026 27.4493 38.619 27.6838 39.12 27.9481C39.4954 28.1472 39.84 28.3983 40.1433 28.6938C40.4173 28.9649 40.634 29.287 40.7806 29.6415C40.9349 30.0361 41.0098 30.4566 41.0011 30.8794C41.0174 31.2739 40.9517 31.6675 40.8082 32.036C40.6647 32.4046 40.4464 32.7403 40.1666 33.0227C39.5399 33.6023 38.7264 33.9459 37.8686 33.9933V35.5383H36.6164V33.9942C35.6694 33.9399 34.7776 33.5369 34.1175 32.865C33.504 32.1579 33.1883 31.2458 33.2353 30.3162H35.5071C35.4723 30.8265 35.6308 31.3315 35.9519 31.733C36.1156 31.9025 36.315 32.0346 36.5361 32.1198C36.7571 32.205 36.9945 32.2413 37.2313 32.2262C37.6294 32.2479 38.021 32.1186 38.3256 31.8649C38.46 31.7408 38.5654 31.5894 38.6346 31.4212C38.7039 31.2529 38.7352 31.0719 38.7265 30.8905Z" fill="white"/>
<path d="M53.2543 43.4928L49.8075 45.3888C46.2709 47.3272 42.3566 48.4773 38.3335 48.7599C34.3104 49.0426 30.2737 48.4512 26.5008 47.0263L22.1494 45.3463C21.7241 45.1778 21.2711 45.0902 20.8137 45.0879H16.9368V35.1353H22.4512C22.8625 35.1401 23.2701 35.2127 23.6577 35.3503L28.5675 36.9879C30.359 37.5881 32.236 37.8936 34.1254 37.8925H38.7352C39.0776 37.8891 39.4174 37.9533 39.7349 38.0814C40.0525 38.2096 40.3416 38.3991 40.5858 38.6393C40.8299 38.8794 41.0243 39.1653 41.1577 39.4807C41.2911 39.7961 41.3609 40.1347 41.3632 40.4771C41.3491 41.1114 41.0862 41.7148 40.6312 42.1571C40.4636 42.3241 40.2753 42.469 40.0709 42.5882L51.3158 39.1414C51.8787 38.9338 52.4985 38.9423 53.0555 39.1651C53.6125 39.388 54.0671 39.8094 54.3315 40.3479C54.5694 40.9129 54.591 41.5457 54.3924 42.1256C54.1937 42.7056 53.7886 43.1922 53.2543 43.4928Z" fill="#F2F4F7"/>
<path d="M18.6168 33.7134H15.9888V46.5091H18.6168V33.7134Z" fill="#005993"/>
<path d="M16.0321 32.6797V47.5855H9.26871C6.31569 43.1682 4.69999 37.9925 4.61548 32.6797H16.0321Z" fill="#D71049"/>
<path d="M13.1188 37.0866C13.8717 37.0866 14.4821 36.4762 14.4821 35.7232C14.4821 34.9703 13.8717 34.3599 13.1188 34.3599C12.3658 34.3599 11.7554 34.9703 11.7554 35.7232C11.7554 36.4762 12.3658 37.0866 13.1188 37.0866Z" fill="white"/>
</g>
</g>
<defs>
<clipPath id="clip0_1516_35366">
<rect width="60" height="60" fill="white"/>
</clipPath>
</defs>
</svg>
