<svg width="61" height="60" viewBox="0 0 61 60" fill="none" xmlns="http://www.w3.org/2000/svg">
<g clip-path="url(#clip0_1516_35358)">
<mask id="mask0_1516_35358" style="mask-type:luminance" maskUnits="userSpaceOnUse" x="0" y="0" width="61" height="60">
<path d="M60.0715 0H0.0715332V60H60.0715V0Z" fill="white"/>
</mask>
<g mask="url(#mask0_1516_35358)">
<path d="M52.879 20.2964H6.29591C5.79376 20.2964 5.59345 19.594 5.99499 19.3928L28.5836 5.83922C28.8999 5.64209 29.2651 5.5376 29.6378 5.5376C30.0104 5.5376 30.3756 5.64209 30.6919 5.83922L53.2805 19.3928C53.5824 19.594 53.3811 20.2964 52.879 20.2964Z" fill="#005993"/>
<path d="M49.6622 20.2964H9.50831V22.3041C9.50023 22.4381 9.52068 22.5723 9.56829 22.6978C9.6159 22.8233 9.68961 22.9373 9.78453 23.0322C9.87945 23.1271 9.99342 23.2008 10.1189 23.2484C10.2444 23.296 10.3786 23.3165 10.5126 23.3084H48.6625C48.7961 23.3158 48.9298 23.2948 49.0547 23.2469C49.1797 23.199 49.2931 23.1252 49.3875 23.0304C49.4819 22.9355 49.5552 22.8218 49.6025 22.6966C49.6498 22.5714 49.6702 22.4377 49.6622 22.3041V20.2964Z" fill="#F2F4F7"/>
<path d="M48.6625 42.3831H10.5126C10.3786 42.375 10.2444 42.3954 10.1189 42.443C9.99342 42.4907 9.87945 42.5644 9.78453 42.6593C9.68961 42.7542 9.6159 42.8682 9.56829 42.9937C9.52068 43.1192 9.50023 43.2534 9.50831 43.3874V45.3951H49.6622V43.3874C49.6702 43.2538 49.6498 43.12 49.6025 42.9949C49.5552 42.8697 49.4819 42.7559 49.3875 42.6611C49.2931 42.5663 49.1797 42.4924 49.0547 42.4445C48.9298 42.3966 48.7961 42.3757 48.6625 42.3831Z" fill="#F2F4F7"/>
<path d="M51.6743 45.3948H7.50041C7.36642 45.3867 7.23224 45.4072 7.10673 45.4548C6.98122 45.5024 6.86724 45.5761 6.77232 45.671C6.6774 45.7659 6.6037 45.8799 6.55608 46.0054C6.50847 46.1309 6.48803 46.2651 6.4961 46.3991V49.4102H52.6776V46.3991C52.6857 46.2652 52.6653 46.1311 52.6177 46.0056C52.5702 45.8802 52.4966 45.7663 52.4017 45.6714C52.3069 45.5765 52.1931 45.5027 52.0677 45.4551C51.9423 45.4074 51.8082 45.3868 51.6743 45.3948Z" fill="#005993"/>
<path d="M33.6024 25.3163V23.3086H25.5716V25.3163C25.5635 25.4503 25.584 25.5845 25.6316 25.71C25.6792 25.8355 25.7529 25.9495 25.8478 26.0444C25.9427 26.1393 26.0567 26.213 26.1822 26.2606C26.3077 26.3082 26.4419 26.3287 26.5759 26.3206V39.3701C26.4418 39.362 26.3076 39.3825 26.182 39.4302C26.0564 39.4778 25.9424 39.5516 25.8474 39.6466C25.7525 39.7417 25.6788 39.8558 25.6313 39.9814C25.5837 40.107 25.5634 40.2413 25.5716 40.3754V42.3831H33.6024V40.3754C33.6106 40.2414 33.5902 40.1072 33.5428 39.9816C33.4953 39.8561 33.4217 39.742 33.3268 39.647C33.232 39.552 33.1181 39.4782 32.9926 39.4305C32.8671 39.3827 32.733 39.3622 32.599 39.3701V26.3206C32.7329 26.3285 32.867 26.308 32.9924 26.2603C33.1178 26.2126 33.2316 26.1389 33.3265 26.044C33.4213 25.9491 33.4949 25.8352 33.5425 25.7097C33.59 25.5843 33.6104 25.4502 33.6024 25.3163Z" fill="#005993"/>
<path d="M20.5511 25.3163V23.3086H12.5203V25.3163C12.5123 25.4503 12.5327 25.5845 12.5803 25.71C12.6279 25.8355 12.7016 25.9495 12.7965 26.0444C12.8915 26.1393 13.0054 26.213 13.131 26.2606C13.2565 26.3082 13.3906 26.3287 13.5246 26.3206V39.3701C13.3906 39.362 13.2563 39.3825 13.1307 39.4302C13.0051 39.4778 12.8911 39.5516 12.7962 39.6466C12.7012 39.7417 12.6276 39.8558 12.58 39.9814C12.5325 40.107 12.5121 40.2413 12.5203 40.3754V42.3831H20.5511V40.3754C20.5593 40.2414 20.539 40.1072 20.4915 39.9816C20.444 39.8561 20.3704 39.742 20.2756 39.647C20.1807 39.552 20.0668 39.4782 19.9413 39.4305C19.8159 39.3827 19.6817 39.3622 19.5477 39.3701V26.3206C19.6816 26.3285 19.8157 26.308 19.9411 26.2603C20.0665 26.2126 20.1804 26.1389 20.2752 26.044C20.37 25.9491 20.4436 25.8352 20.4912 25.7097C20.5387 25.5843 20.5592 25.4502 20.5511 25.3163Z" fill="#005993"/>
<path d="M46.6536 25.3163V23.3086H38.6229V25.3163C38.6148 25.4503 38.6352 25.5845 38.6828 25.71C38.7305 25.8355 38.8042 25.9495 38.8991 26.0444C38.994 26.1393 39.108 26.213 39.2335 26.2606C39.359 26.3082 39.4932 26.3287 39.6272 26.3206V39.3701C39.4931 39.362 39.3588 39.3825 39.2333 39.4302C39.1077 39.4778 38.9937 39.5516 38.8987 39.6466C38.8038 39.7417 38.7301 39.8558 38.6826 39.9814C38.635 40.107 38.6147 40.2413 38.6229 40.3754V42.3831H46.6536V40.3754C46.6618 40.2414 46.6415 40.1072 46.594 39.9816C46.5465 39.8561 46.4729 39.742 46.3781 39.647C46.2833 39.552 46.1693 39.4782 46.0439 39.4305C45.9184 39.3827 45.7843 39.3622 45.6503 39.3701V26.3206C45.7842 26.3285 45.9183 26.308 46.0437 26.2603C46.169 26.2126 46.2829 26.1389 46.3777 26.044C46.4725 25.9491 46.5462 25.8352 46.5937 25.7097C46.6413 25.5843 46.6617 25.4502 46.6536 25.3163Z" fill="#005993"/>
<path d="M55.4561 43.4113C55.4561 37.5486 50.7034 32.7959 44.8407 32.7959C38.978 32.7959 34.2253 37.5486 34.2253 43.4113C34.2253 49.274 38.978 54.0267 44.8407 54.0267C50.7034 54.0267 55.4561 49.274 55.4561 43.4113Z" fill="#D71049"/>
<path d="M44.841 53.5648C42.7325 53.5648 40.7154 52.9265 39 51.7177C38.5878 50.8505 38.3789 49.9198 38.3789 48.9495C38.3789 45.3868 41.2778 42.4883 44.841 42.4883C48.4037 42.4883 51.3022 45.3868 51.3022 48.9495C51.3022 49.9202 51.0933 50.8511 50.681 51.7182C48.9658 52.9266 46.9491 53.5648 44.841 53.5648Z" fill="white"/>
<path d="M44.8406 44.796C47.1347 44.796 48.9945 42.9362 48.9945 40.6421C48.9945 38.348 47.1347 36.4883 44.8406 36.4883C42.5465 36.4883 40.6868 38.348 40.6868 40.6421C40.6868 42.9362 42.5465 44.796 44.8406 44.796Z" fill="white"/>
</g>
</g>
<defs>
<clipPath id="clip0_1516_35358">
<rect width="60" height="60" fill="white" transform="translate(0.0715332)"/>
</clipPath>
</defs>
</svg>
