<svg width="61" height="60" viewBox="0 0 61 60" fill="none" xmlns="http://www.w3.org/2000/svg">
<g clip-path="url(#clip0_1516_35362)">
<mask id="mask0_1516_35362" style="mask-type:luminance" maskUnits="userSpaceOnUse" x="0" y="0" width="61" height="60">
<path d="M60.7856 0H0.785645V60H60.7856V0Z" fill="white"/>
</mask>
<g mask="url(#mask0_1516_35362)">
<path d="M53.4011 11.5386H8.17035C6.64095 11.5386 5.40112 12.7784 5.40112 14.3078V44.7693C5.40112 46.2987 6.64095 47.5386 8.17035 47.5386H53.4011C54.9305 47.5386 56.1704 46.2987 56.1704 44.7693V14.3078C56.1704 12.7784 54.9305 11.5386 53.4011 11.5386Z" fill="#005993"/>
<path d="M16.4782 28.1541C19.537 28.1541 22.0166 25.6744 22.0166 22.6156C22.0166 19.5568 19.537 17.0771 16.4782 17.0771C13.4194 17.0771 10.9397 19.5568 10.9397 22.6156C10.9397 25.6744 13.4194 28.1541 16.4782 28.1541Z" fill="white"/>
<path d="M22.0165 28.1541C25.0753 28.1541 27.5549 25.6744 27.5549 22.6156C27.5549 19.5568 25.0753 17.0771 22.0165 17.0771C18.9577 17.0771 16.478 19.5568 16.478 22.6156C16.478 25.6744 18.9577 28.1541 22.0165 28.1541Z" fill="#D71049"/>
<path d="M11.3865 40.4307H50.1852H11.3865Z" fill="white"/>
<path d="M11.3865 40.4307H50.1852" stroke="white" stroke-width="2" stroke-linecap="round" stroke-dasharray="6 6"/>
</g>
</g>
<defs>
<clipPath id="clip0_1516_35362">
<rect width="60" height="60" fill="white" transform="translate(0.785645)"/>
</clipPath>
</defs>
</svg>
