<svg width="61" height="60" viewBox="0 0 61 60" fill="none" xmlns="http://www.w3.org/2000/svg">
<path d="M41.9299 41.1411C42.7217 41.146 43.4796 41.4626 44.0395 42.0225C44.5993 42.5823 44.916 43.3402 44.9208 44.132C44.9208 44.7235 44.7454 45.3018 44.4168 45.7936C44.0881 46.2854 43.621 46.6688 43.0745 46.8952C42.528 47.1215 41.9266 47.1808 41.3464 47.0654C40.7662 46.95 40.2333 46.6651 39.815 46.2468C39.3967 45.8286 39.1118 45.2956 38.9964 44.7155C38.881 44.1353 38.9403 43.5339 39.1666 42.9874C39.393 42.4409 39.7764 41.9738 40.2682 41.6452C40.7601 41.3165 41.3384 41.1411 41.9299 41.1411Z" fill="#D71049"/>
<path d="M42.2256 49.8953H42.6694C43.4888 49.7677 44.2789 49.501 45.0039 49.1074V56.4923L41.8617 53.5141L38.542 56.4923V49.1334C39.2632 49.551 40.053 49.8439 40.8764 49.9991H41.7641C41.9119 49.9428 42.0674 49.9078 42.2256 49.8953Z" fill="#F2F4F7"/>
<path d="M48.1887 44.1317C48.1993 45.1916 47.9385 46.2367 47.4312 47.1673C46.9238 48.098 46.1867 48.8834 45.2901 49.4488C44.5626 49.9251 43.7285 50.2137 42.8623 50.2888H41.3114C40.4437 50.165 39.6143 49.8497 38.8836 49.3657C37.7396 48.6354 36.8627 47.5546 36.3839 46.2847C35.9051 45.0148 35.8502 43.6241 36.2273 42.3203C36.6044 41.0166 37.3933 39.8699 38.4761 39.0517C39.5588 38.2335 40.8774 37.7876 42.2345 37.7808C43.85 37.8797 45.3665 38.5925 46.4735 39.7733C47.5805 40.954 48.1941 42.5132 48.1887 44.1317ZM44.8285 44.1317C44.8237 43.34 44.507 42.5821 43.9471 42.0222C43.3873 41.4624 42.6293 41.1457 41.8376 41.1408C41.4315 41.1183 41.025 41.1787 40.643 41.3186C40.2611 41.4585 39.9116 41.6748 39.6161 41.9543C39.3206 42.2338 39.0853 42.5707 38.9244 42.9443C38.7635 43.3179 38.6806 43.7204 38.6806 44.1271C38.6806 44.5339 38.7635 44.9363 38.9244 45.3099C39.0853 45.6835 39.3206 46.0204 39.6161 46.2999C39.9116 46.5794 40.2611 46.7957 40.643 46.9356C41.025 47.0754 41.4315 47.1359 41.8376 47.1133C42.6234 47.0947 43.372 46.7748 43.9286 46.2199C44.4853 45.665 44.8074 44.9174 44.8285 44.1317Z" fill="white"/>
<path d="M42.2161 6.77393L50.7088 15.2757H42.2161V6.77393Z" fill="#F2F4F7"/>
<path d="M50.7089 15.2757V51.5999H45.1701V49.3567C46.313 48.6295 47.1891 47.551 47.6668 46.2834C48.1444 45.0157 48.1979 43.6273 47.8192 42.3267C47.4404 41.0261 46.6499 39.8834 45.5663 39.0704C44.4827 38.2574 43.1646 37.8179 41.8099 37.8179C40.4552 37.8179 39.1371 38.2574 38.0536 39.0704C36.97 39.8834 36.1795 41.0261 35.8007 42.3267C35.422 43.6273 35.4754 45.0157 35.9531 46.2834C36.4308 47.551 37.3068 48.6295 38.4497 49.3567V51.5999H13.8945V6.77393H42.2346V15.2757H50.7089Z" fill="#005993"/>
<path d="M26.9937 46.744H18.1225C18.0685 46.7525 18.0132 46.7492 17.9606 46.7344C17.908 46.7195 17.8592 46.6934 17.8176 46.6579C17.7761 46.6224 17.7427 46.5782 17.7198 46.5286C17.6969 46.4789 17.6851 46.4249 17.6851 46.3702C17.6851 46.3155 17.6969 46.2615 17.7198 46.2118C17.7427 46.1621 17.7761 46.118 17.8176 46.0825C17.8592 46.0469 17.908 46.0208 17.9606 46.006C18.0132 45.9911 18.0685 45.9878 18.1225 45.9963H27.086C27.1818 46.0028 27.2721 46.0438 27.3399 46.1117C27.4078 46.1796 27.4488 46.2698 27.4553 46.3656C27.4436 46.4767 27.3886 46.5787 27.3022 46.6496C27.2158 46.7204 27.105 46.7544 26.9937 46.744Z" fill="white"/>
<path d="M25.4059 12.183H18.0209C17.9669 12.1915 17.9117 12.1882 17.859 12.1733C17.8064 12.1585 17.7576 12.1324 17.7161 12.0968C17.6745 12.0613 17.6411 12.0172 17.6182 11.9675C17.5953 11.9178 17.5835 11.8638 17.5835 11.8091C17.5835 11.7544 17.5953 11.7004 17.6182 11.6508C17.6411 11.6011 17.6745 11.557 17.7161 11.5214C17.7576 11.4859 17.8064 11.4598 17.859 11.4449C17.9117 11.4301 17.9669 11.4268 18.0209 11.4353H25.4059C25.495 11.4493 25.5761 11.4947 25.6347 11.5632C25.6933 11.6318 25.7255 11.719 25.7255 11.8091C25.7255 11.8993 25.6933 11.9865 25.6347 12.055C25.5761 12.1236 25.495 12.169 25.4059 12.183Z" fill="white"/>
<path d="M32.5048 14.1496H17.9378C17.8404 14.1453 17.7479 14.1052 17.6781 14.0371C17.6083 13.969 17.566 13.8776 17.5593 13.7803C17.5658 13.6821 17.6078 13.5895 17.6774 13.5199C17.747 13.4503 17.8396 13.4084 17.9378 13.4019H32.4032C32.5015 13.4084 32.594 13.4503 32.6636 13.5199C32.7332 13.5895 32.7752 13.6821 32.7817 13.7803C32.7817 13.965 32.6894 14.1496 32.5048 14.1496Z" fill="white"/>
<path d="M32.5048 20.5924H17.9378C17.8404 20.5881 17.7479 20.5481 17.6781 20.48C17.6083 20.4119 17.566 20.3205 17.5593 20.2232C17.5658 20.125 17.6078 20.0324 17.6774 19.9628C17.747 19.8932 17.8396 19.8512 17.9378 19.8447H32.4032C32.5015 19.8512 32.594 19.8932 32.6636 19.9628C32.7332 20.0324 32.7752 20.125 32.7817 20.2232C32.7817 20.4078 32.6894 20.5924 32.5048 20.5924Z" fill="#D71049"/>
<path d="M39.3175 23.0202H17.9378C17.8404 23.0159 17.7479 22.9758 17.6781 22.9077C17.6083 22.8396 17.566 22.7482 17.5593 22.6509C17.5658 22.5527 17.6078 22.4602 17.6774 22.3906C17.747 22.3209 17.8396 22.279 17.9378 22.2725H39.2252C39.3218 22.2811 39.4121 22.324 39.4798 22.3934C39.5475 22.4628 39.5882 22.5542 39.5944 22.6509C39.5944 22.8356 39.4652 23.0202 39.3175 23.0202Z" fill="white"/>
<path d="M39.3175 25.4484H17.9378C17.8404 25.4441 17.7479 25.4041 17.6781 25.336C17.6083 25.2679 17.566 25.1765 17.5593 25.0792C17.5658 24.9809 17.6078 24.8884 17.6774 24.8188C17.747 24.7492 17.8396 24.7072 17.9378 24.7007H39.2252C39.3218 24.7093 39.4121 24.7522 39.4798 24.8216C39.5475 24.891 39.5882 24.9824 39.5944 25.0792C39.5944 25.2638 39.4652 25.4484 39.3175 25.4484Z" fill="white"/>
<path d="M44.644 27.7836H17.9379C17.8839 27.7921 17.8287 27.7888 17.776 27.7739C17.7234 27.7591 17.6746 27.733 17.6331 27.6974C17.5915 27.6619 17.5581 27.6178 17.5352 27.5681C17.5123 27.5185 17.5005 27.4644 17.5005 27.4097C17.5005 27.355 17.5123 27.301 17.5352 27.2513C17.5581 27.2017 17.5915 27.1575 17.6331 27.122C17.6746 27.0865 17.7234 27.0604 17.776 27.0455C17.8287 27.0307 17.8839 27.0273 17.9379 27.0359H44.644C44.7331 27.0499 44.8142 27.0953 44.8728 27.1638C44.9314 27.2324 44.9636 27.3196 44.9636 27.4097C44.9636 27.4999 44.9314 27.5871 44.8728 27.6556C44.8142 27.7242 44.7331 27.7695 44.644 27.7836Z" fill="white"/>
<path d="M44.6439 30.2116H17.9378C17.8404 30.2073 17.7479 30.1673 17.6781 30.0992C17.6083 30.031 17.566 29.9396 17.5593 29.8423C17.5658 29.7441 17.6078 29.6516 17.6774 29.5819C17.747 29.5123 17.8396 29.4704 17.9378 29.4639H44.6439C44.7405 29.4725 44.8308 29.5154 44.8986 29.5848C44.9663 29.6542 45.0069 29.7456 45.0132 29.8423C45.0067 29.9381 44.9657 30.0283 44.8978 30.0962C44.8299 30.1641 44.7397 30.2051 44.6439 30.2116Z" fill="white"/>
<path d="M32.5048 32.6393H17.9378C17.8404 32.635 17.7479 32.595 17.6781 32.5269C17.6083 32.4588 17.566 32.3674 17.5593 32.2701C17.5658 32.1718 17.6078 32.0793 17.6774 32.0097C17.747 31.94 17.8396 31.8981 17.9378 31.8916H32.4032C32.5015 31.8981 32.594 31.94 32.6636 32.0097C32.7332 32.0793 32.7752 32.1718 32.7817 32.2701C32.7817 32.4916 32.6894 32.6393 32.5048 32.6393Z" fill="white"/>
<path d="M30.8247 54.6458H10.7467C10.6484 54.6393 10.5559 54.5974 10.4862 54.5277C10.4166 54.4581 10.3747 54.3656 10.3682 54.2673V22.051C10.3822 21.9619 10.4276 21.8808 10.4961 21.8222C10.5647 21.7636 10.6519 21.7314 10.742 21.7314C10.8322 21.7314 10.9194 21.7636 10.988 21.8222C11.0565 21.8808 11.1019 21.9619 11.1159 22.051V53.8058H30.7231C30.8206 53.8101 30.913 53.8501 30.9828 53.9182C31.0526 53.9863 31.0949 54.0777 31.1016 54.175C31.1016 54.3966 31.0093 54.6458 30.8247 54.6458Z" fill="#0085B8"/>
</svg>
