<svg width="61" height="60" viewBox="0 0 61 60" fill="none" xmlns="http://www.w3.org/2000/svg">
<path d="M39.8459 20.8616H41.6183V23.6309L38.5352 24.8401C39.4837 22.7424 40.0824 20.5036 40.3075 18.2124C40.2297 19.1071 40.0753 19.9934 39.8459 20.8616Z" fill="white"/>
<path d="M43.2982 16.0981V20.8612H39.8459C40.0533 19.9732 40.1769 19.0677 40.2152 18.1566V16.3843V16.0059H43.2982V16.0981Z" fill="#D71049"/>
<path d="M21.6337 20.8612H18.2737V16.0981H21.3568C21.2835 16.531 21.2526 16.97 21.2644 17.4089C21.2594 18.5698 21.3833 19.7276 21.6337 20.8612Z" fill="#D71049"/>
<path d="M40.2152 16.0983V16.4767C39.9833 14.1412 38.8891 11.9761 37.1464 10.4041C35.4037 8.83204 33.1376 7.96606 30.7906 7.97525C28.5073 7.98007 26.3011 8.80167 24.5709 10.2915C22.8406 11.7813 21.7005 13.8411 21.3567 16.0983H19.769C20.4244 9.74754 25.0952 4.70752 30.7906 4.70752C36.486 4.70752 41.1567 9.65524 41.8029 16.0983H40.2152Z" fill="#005993"/>
<path d="M38.535 24.8768C36.9473 28.3383 34.335 31.3383 30.7904 31.3383C25.935 31.3383 22.7596 25.7352 21.7258 20.9721C21.4807 19.8689 21.3569 18.7423 21.3566 17.6122C21.3379 17.1762 21.3689 16.7396 21.4489 16.3106H21.3566C21.6984 14.0517 22.8376 11.9897 24.568 10.498C26.2985 9.00635 28.5058 8.18345 30.7904 8.1783C33.1374 8.1691 35.4035 9.03509 37.1462 10.6071C38.8889 12.1792 39.9831 14.3444 40.215 16.6799V18.4521C40.043 20.6768 39.474 22.8527 38.535 24.8768Z" fill="#F2F4F7"/>
<path d="M24.9936 32.3447L30.5967 39.914L27.6151 42.9971L22.8521 34.3109L24.9936 32.3447Z" fill="#F2F4F7"/>
<path d="M38.3505 34.3109L33.4028 42.5263L30.5967 39.914L36.1997 32.3447L38.3505 34.3109Z" fill="#F2F4F7"/>
<path d="M38.3505 34.3105C51.2736 41.6952 49.7413 38.2336 49.7413 52.8921C37.12 55.8368 23.9903 55.8368 11.369 52.8921C11.369 38.1229 9.87359 41.6859 22.7597 34.3105L27.5228 42.9967L30.5044 40.006L33.2736 42.6182L38.3505 34.3105Z" fill="#005993"/>
<path d="M38.3506 46.5414H33.966C33.9119 46.5499 33.8567 46.5466 33.8041 46.5317C33.7515 46.5169 33.7027 46.4907 33.6611 46.4552C33.6196 46.4197 33.5862 46.3756 33.5633 46.3259C33.5404 46.2762 33.5286 46.2222 33.5286 46.1675C33.5286 46.1129 33.5404 46.0588 33.5633 46.0092C33.5862 45.9595 33.6196 45.9153 33.6611 45.8798C33.7027 45.8443 33.7515 45.8182 33.8041 45.8034C33.8567 45.7885 33.9119 45.7852 33.966 45.7937H38.3506C38.4479 45.8004 38.5393 45.8427 38.6074 45.9125C38.6755 45.9823 38.7155 46.0747 38.7198 46.1722C38.724 46.2217 38.7173 46.2715 38.7003 46.3183C38.6832 46.365 38.6561 46.4074 38.621 46.4426C38.5858 46.4778 38.5434 46.5048 38.4967 46.5219C38.45 46.5389 38.4001 46.5456 38.3506 46.5414Z" fill="#D71049"/>
<path d="M38.3505 49.2462H33.9659C33.8684 49.2419 33.776 49.2019 33.7062 49.1338C33.6364 49.0657 33.5941 48.9743 33.5874 48.877C33.5939 48.7788 33.6358 48.6862 33.7055 48.6166C33.7751 48.547 33.8676 48.505 33.9659 48.4985H38.3505C38.4471 48.5072 38.5374 48.5501 38.6051 48.6195C38.6728 48.6889 38.7135 48.7803 38.7197 48.877C38.7239 48.9266 38.7173 48.9765 38.7002 49.0232C38.6831 49.0699 38.656 49.1123 38.6209 49.1475C38.5857 49.1826 38.5433 49.2097 38.4966 49.2267C38.4499 49.2438 38.4 49.2504 38.3505 49.2462Z" fill="white"/>
<path d="M40.2152 17.132C40.1186 17.1234 40.0283 17.0805 39.9605 17.0111C39.8928 16.9417 39.8522 16.8503 39.8459 16.7536V16.5689C39.8459 16.3843 40.0306 16.0981 40.2152 16.0981C40.3998 16.0981 40.6859 16.292 40.6859 16.4766V16.7536C40.672 16.8654 40.6151 16.9675 40.5272 17.0381C40.4394 17.1088 40.3274 17.1424 40.2152 17.132Z" fill="#4D80C9"/>
<path d="M31.9075 27.7753C31.7229 27.7753 31.5383 27.683 31.5383 27.4892C31.5167 27.4349 31.5069 27.3766 31.5094 27.3182C31.5119 27.2598 31.5267 27.2026 31.5529 27.1503C31.579 27.098 31.6159 27.0518 31.6611 27.0148C31.7063 26.9778 31.7588 26.9507 31.8152 26.9353L41.3413 23.2891V20.7692C41.3478 20.6734 41.3888 20.5832 41.4567 20.5153C41.5246 20.4474 41.6148 20.4064 41.7106 20.3999C41.8073 20.4061 41.8987 20.4468 41.9681 20.5145C42.0375 20.5822 42.0804 20.6726 42.089 20.7692V23.5384C42.089 23.723 41.9967 23.9076 41.8029 23.9076L32.0921 27.5999C32.077 27.6414 32.0524 27.6789 32.0204 27.7093C31.9884 27.7397 31.9497 27.7623 31.9075 27.7753Z" fill="#0085B8"/>
</svg>
