<svg width="45" height="45" viewBox="0 0 45 45" fill="none" xmlns="http://www.w3.org/2000/svg">
<path d="M24.6447 28.8086L24.4794 29.5112L26.2325 30.0528L26.7275 28.7695L26.7687 28.6628L27.652 27.7916L27.652 27.7916L27.6565 27.7871C28.1793 27.2643 28.6542 26.9082 29.0787 26.6887L29.1099 26.6726L29.1397 26.6541C29.8769 26.1984 30.8458 26.0927 31.876 26.5185C32.2915 26.6945 32.7463 26.9372 33.2412 27.2834C33.2421 27.284 33.243 27.2846 33.2438 27.2852L39.325 31.6081L39.334 31.6144L39.343 31.6205C39.8839 31.986 40.2546 32.434 40.4731 32.9479C40.7085 33.5474 40.8082 34.0716 40.8082 34.5802C40.8082 35.3191 40.6389 36.0669 40.3078 36.7763C39.9618 37.5178 39.5372 38.1541 38.9966 38.7438L38.9926 38.7482C38.0284 39.8139 37.0037 40.5508 35.8293 41.0238L35.8271 41.0247C34.6725 41.4933 33.415 41.7456 32.0845 41.7456C30.1602 41.7456 28.1012 41.2857 25.9359 40.3705L24.6447 28.8086ZM24.6447 28.8086C24.2101 28.5248 23.6652 28.1192 22.9888 27.5498C22.1154 26.8279 21.1955 25.9632 20.1098 24.896L20.1035 24.8898L20.0973 24.8834C19.2366 24.004 18.3804 23.0545 17.4774 22.0224L17.4694 22.0133L17.4695 22.0132C16.5996 20.9921 16.1232 20.2851 15.8677 19.8381L15.8551 19.816L15.8437 19.7931L15.8418 19.7895C15.82 19.7458 15.7779 19.6617 15.7388 19.5443L15.5633 19.0181L15.947 18.6174L17.1937 17.3158L17.2006 17.3086L17.2076 17.3016C17.6996 16.8095 18.061 16.3453 18.2823 15.9469L18.2897 15.9335L18.2976 15.9204C18.6065 15.4056 18.7532 14.8891 18.7532 14.3769C18.7532 13.9933 18.6604 13.5678 18.4624 13.1108L18.4561 13.0963L18.4503 13.0815C18.2832 12.6563 18.0323 12.2108 17.6814 11.7262L17.6761 11.719L17.6762 11.719L13.4228 5.72399L13.4151 5.7131L13.4077 5.70198C13.0692 5.19426 12.6008 4.80645 12.0275 4.54184L12.0213 4.53898L12.0213 4.53895C11.5219 4.30393 10.9224 4.16815 10.3412 4.16815C8.88984 4.16815 7.50115 4.74713 6.23886 5.99304L6.22991 6.00187L6.22072 6.01046C5.19739 6.96668 4.45289 8.06358 3.99212 9.23148C3.54018 10.3869 3.30414 11.6293 3.30414 12.9469C3.30414 14.8767 3.74822 16.9555 4.66213 19.1351C5.52881 21.1866 6.75634 23.3256 8.2992 25.4789C9.82895 27.5662 11.5569 29.6002 13.465 31.5268C15.3932 33.4185 17.4289 35.1478 19.5355 36.6965M24.6447 28.8086L19.5355 36.6965M19.5355 36.6965C21.6515 38.2204 23.8094 39.4667 25.9358 40.3705L19.5355 36.6965ZM29.5458 27.4334C29.9125 27.2115 30.3035 27.0505 30.7472 27.0865C30.9618 27.1039 31.1363 27.1639 31.258 27.2125C31.3153 27.2353 31.3709 27.2598 31.4123 27.2781L31.4158 27.2797C31.4618 27.2999 31.4973 27.3156 31.5344 27.3307L31.5363 27.3315C31.9224 27.4905 32.3116 27.7096 32.7219 27.9968L32.7273 28.0006L32.7273 28.0007L38.8077 32.3229C39.3045 32.6646 39.5074 32.9964 39.6171 33.2156L39.6264 33.2343L39.6349 33.2534C39.8339 33.7011 39.9158 34.1216 39.9158 34.5435C39.9158 35.163 39.7726 35.7738 39.4971 36.3493C39.1853 37.0136 38.8056 37.5848 38.3212 38.1125C37.4847 39.0495 36.5489 39.7193 35.4798 40.1598C32.7443 41.2989 29.5373 40.9049 26.2815 39.5156C24.1907 38.6409 22.0945 37.4303 20.0658 35.9464C20.0655 35.9462 20.0652 35.946 20.0649 35.9458L20.6079 35.2035L29.5458 27.4334ZM29.5458 27.4334C29.0662 27.6804 28.6655 28.0273 28.2831 28.4094C28.2824 28.4101 28.2817 28.4109 28.2809 28.4116L26.8961 29.7782C26.8955 29.7788 26.8949 29.7794 26.8943 29.7799C26.4614 30.2002 25.7589 30.32 25.2226 30.133L24.7902 29.9408C24.1207 29.5777 23.3058 29.0032 22.3776 28.2152C21.5198 27.4825 20.5847 26.6198 19.4438 25.4973C18.5612 24.5964 17.6783 23.6413 16.7587 22.5775C15.9368 21.6156 15.3683 20.8257 15.025 20.2002L14.8469 19.7551C14.7589 19.4092 14.7441 19.2639 14.7441 19.1252C14.7441 18.702 14.8905 18.3514 15.1715 18.0705L15.1778 18.0641L15.1841 18.0576L16.553 16.6339C16.954 16.232 17.2785 15.8279 17.5093 15.4375C17.724 15.0859 17.8425 14.7222 17.8425 14.3402C17.8425 14.0197 17.7378 13.6705 17.6251 13.3998L17.6219 13.3924L17.6187 13.3849C17.4547 13.0101 17.2135 12.6221 16.9353 12.2437L12.687 6.23749L12.687 6.23748L12.6845 6.23402C12.4114 5.85173 12.0689 5.56387 11.6467 5.36686L11.6367 5.36215L11.6265 5.35769C11.2335 5.18579 10.7967 5.07892 10.3412 5.07892C9.03509 5.07892 7.88339 5.65794 6.86373 6.65403L29.5458 27.4334Z" fill="white" stroke="white" stroke-width="1.83923"/>
</svg>
