<svg width="110" height="110" viewBox="0 0 110 110" fill="none" xmlns="http://www.w3.org/2000/svg">
<g id="Group 38231">
<g id="Rectangle 4305" filter="url(#filter0_d_2143_39102)">
<rect x="20" y="16" width="70" height="70" rx="15" fill="white"/>
</g>
<path id="Vector" opacity="0.35" d="M63.3444 65.4507C64.7586 64.6351 66.3878 64.5663 67.7979 65.1086C68.9743 65.5613 70.3198 65.1858 71.1187 64.2117C72.5434 62.4741 73.6928 60.5029 74.5001 58.3606C74.961 57.1361 74.5251 55.7907 73.5259 54.9438C72.4016 53.9967 71.6882 52.5866 71.6882 50.9992C71.6882 49.4118 72.4016 48.0017 73.5238 47.0505C74.523 46.2036 74.961 44.8603 74.498 43.6337C73.6907 41.4935 72.5434 39.5202 71.1166 37.7826C70.3177 36.8085 68.9723 36.433 67.7958 36.8856C66.3878 37.4322 64.7586 37.3633 63.3444 36.5477C61.9259 35.7279 61.0498 34.3449 60.8203 32.8451C60.6326 31.6186 59.6605 30.6382 58.4361 30.4296C57.318 30.2398 56.1707 30.1396 55.0005 30.1396C53.8303 30.1396 52.683 30.2398 51.5649 30.4296C50.3405 30.6382 49.3705 31.6186 49.1807 32.8451C48.9512 34.3449 48.0751 35.7279 46.6567 36.5477C45.2424 37.3633 43.6133 37.4322 42.2032 36.8877C41.0267 36.4351 39.6812 36.8105 38.8823 37.7847C37.4576 39.5223 36.3103 41.4935 35.5031 43.6358C35.04 44.8603 35.478 46.2057 36.4772 47.0505C37.5995 48.0017 38.3129 49.4118 38.3129 50.9992C38.3129 52.5866 37.5995 53.9967 36.4772 54.9479C35.478 55.7948 35.04 57.1382 35.5031 58.3647C36.3103 60.5049 37.4576 62.4783 38.8844 64.2159C39.6833 65.19 41.0288 65.5655 42.2053 65.1128C43.6133 64.5663 45.2424 64.6351 46.6567 65.4507C48.0751 66.2705 48.9512 67.6535 49.1807 69.1533C49.3684 70.3799 50.3405 71.3603 51.5649 71.5689C52.683 71.7587 53.8303 71.8588 55.0005 71.8588C56.1707 71.8588 57.318 71.7587 58.4361 71.5689C59.6605 71.3624 60.6326 70.3819 60.8203 69.1533C61.0498 67.6535 61.9259 66.2705 63.3444 65.4507Z" fill="#637083"/>
<path id="Vector_2" d="M55.0001 42.6553C50.3922 42.6553 46.6562 46.3912 46.6562 50.9991C46.6562 55.607 50.3922 59.3429 55.0001 59.3429C59.608 59.3429 63.3439 55.607 63.3439 50.9991C63.3439 46.3912 59.608 42.6553 55.0001 42.6553Z" fill="#637083"/>
</g>
<defs>
<filter id="filter0_d_2143_39102" x="0" y="0" width="110" height="110" filterUnits="userSpaceOnUse" color-interpolation-filters="sRGB">
<feFlood flood-opacity="0" result="BackgroundImageFix"/>
<feColorMatrix in="SourceAlpha" type="matrix" values="0 0 0 0 0 0 0 0 0 0 0 0 0 0 0 0 0 0 127 0" result="hardAlpha"/>
<feOffset dy="4"/>
<feGaussianBlur stdDeviation="10"/>
<feColorMatrix type="matrix" values="0 0 0 0 0.090196 0 0 0 0 0.0588235 0 0 0 0 0.286275 0 0 0 0.08 0"/>
<feBlend mode="normal" in2="BackgroundImageFix" result="effect1_dropShadow_2143_39102"/>
<feBlend mode="normal" in="SourceGraphic" in2="effect1_dropShadow_2143_39102" result="shape"/>
</filter>
</defs>
</svg>
