<svg width="89" height="80" viewBox="0 0 89 80" fill="none" xmlns="http://www.w3.org/2000/svg">
<mask id="path-1-inside-1_1516_35459" fill="white">
<path d="M88.3999 78.3241C88.3999 79.2497 87.6492 80.0016 86.7238 79.9842C65.4705 79.5842 45.04 71.5875 29.1505 57.4116C13.261 43.2357 2.99472 23.8462 0.18243 2.77599C0.0599779 1.85858 0.721767 1.02727 1.64132 0.922111C2.56088 0.81694 3.38992 1.4777 3.51304 2.39503C6.23136 22.6476 16.1064 41.2826 31.3818 54.9106C46.6572 68.5386 66.2936 76.2323 86.7239 76.6319C87.6492 76.65 88.3999 77.3986 88.3999 78.3241Z"/>
</mask>
<path d="M88.3999 78.3241C88.3999 79.2497 87.6492 80.0016 86.7238 79.9842C65.4705 79.5842 45.04 71.5875 29.1505 57.4116C13.261 43.2357 2.99472 23.8462 0.18243 2.77599C0.0599779 1.85858 0.721767 1.02727 1.64132 0.922111C2.56088 0.81694 3.38992 1.4777 3.51304 2.39503C6.23136 22.6476 16.1064 41.2826 31.3818 54.9106C46.6572 68.5386 66.2936 76.2323 86.7239 76.6319C87.6492 76.65 88.3999 77.3986 88.3999 78.3241Z" stroke="#4CB8E9" stroke-width="8" mask="url(#path-1-inside-1_1516_35459)"/>
</svg>
