<svg width="80" height="89" viewBox="0 0 80 89" fill="none" xmlns="http://www.w3.org/2000/svg">
<mask id="path-1-inside-1_1516_35456" fill="white">
<path d="M77.724 -1.52588e-05C78.6496 -1.52588e-05 79.4015 0.75071 79.3841 1.6761C78.9841 22.9294 70.9874 43.3598 56.8115 59.2494C42.6356 75.1389 23.2461 85.4052 2.1759 88.2175C1.25849 88.3399 0.427185 87.6781 0.322021 86.7586C0.21685 85.839 0.877609 85.01 1.79494 84.8869C22.0475 82.1685 40.6825 72.2935 54.3105 57.0181C67.9385 41.7426 75.6322 22.1063 76.0318 1.67604C76.0499 0.750664 76.7985 -1.52588e-05 77.724 -1.52588e-05Z"/>
</mask>
<path d="M77.724 -1.52588e-05C78.6496 -1.52588e-05 79.4015 0.75071 79.3841 1.6761C78.9841 22.9294 70.9874 43.3598 56.8115 59.2494C42.6356 75.1389 23.2461 85.4052 2.1759 88.2175C1.25849 88.3399 0.427185 87.6781 0.322021 86.7586C0.21685 85.839 0.877609 85.01 1.79494 84.8869C22.0475 82.1685 40.6825 72.2935 54.3105 57.0181C67.9385 41.7426 75.6322 22.1063 76.0318 1.67604C76.0499 0.750664 76.7985 -1.52588e-05 77.724 -1.52588e-05Z" stroke="#7ED3F7" stroke-width="8" mask="url(#path-1-inside-1_1516_35456)"/>
</svg>
