<svg width="80" height="89" viewBox="0 0 80 89" fill="none" xmlns="http://www.w3.org/2000/svg">
<mask id="path-1-inside-1_1516_35467" fill="white">
<path d="M78.1242 -1.52588e-05C79.0497 -1.52588e-05 79.8017 0.75071 79.7843 1.6761C79.3843 22.9294 71.3876 43.3598 57.2117 59.2494C43.0358 75.1389 23.6463 85.4052 2.57605 88.2175C1.65864 88.3399 0.827332 87.6781 0.722168 86.7586C0.616997 85.839 1.27776 85.01 2.19508 84.8869C22.4476 82.1685 41.0826 72.2935 54.7106 57.0181C68.3387 41.7426 76.0324 22.1063 76.4319 1.67604C76.45 0.750664 77.1986 -1.52588e-05 78.1242 -1.52588e-05Z"/>
</mask>
<path d="M78.1242 -1.52588e-05C79.0497 -1.52588e-05 79.8017 0.75071 79.7843 1.6761C79.3843 22.9294 71.3876 43.3598 57.2117 59.2494C43.0358 75.1389 23.6463 85.4052 2.57605 88.2175C1.65864 88.3399 0.827332 87.6781 0.722168 86.7586C0.616997 85.839 1.27776 85.01 2.19508 84.8869C22.4476 82.1685 41.0826 72.2935 54.7106 57.0181C68.3387 41.7426 76.0324 22.1063 76.4319 1.67604C76.45 0.750664 77.1986 -1.52588e-05 78.1242 -1.52588e-05Z" stroke="#7ED3F7" stroke-width="8" mask="url(#path-1-inside-1_1516_35467)"/>
</svg>
