<svg width="89" height="80" viewBox="0 0 89 80" fill="none" xmlns="http://www.w3.org/2000/svg">
<mask id="path-1-inside-1_1516_35470" fill="white">
<path d="M88.8001 78.3241C88.8001 79.2497 88.0493 80.0016 87.1239 79.9842C65.8706 79.5842 45.4402 71.5875 29.5507 57.4116C13.6611 43.2357 3.39486 23.8462 0.582576 2.77599C0.460124 1.85858 1.12191 1.02727 2.04147 0.922111C2.96102 0.81694 3.79007 1.4777 3.91319 2.39503C6.63151 22.6476 16.5066 41.2826 31.782 54.9106C47.0574 68.5386 66.6937 76.2323 87.124 76.6319C88.0494 76.65 88.8001 77.3986 88.8001 78.3241Z"/>
</mask>
<path d="M88.8001 78.3241C88.8001 79.2497 88.0493 80.0016 87.1239 79.9842C65.8706 79.5842 45.4402 71.5875 29.5507 57.4116C13.6611 43.2357 3.39486 23.8462 0.582576 2.77599C0.460124 1.85858 1.12191 1.02727 2.04147 0.922111C2.96102 0.81694 3.79007 1.4777 3.91319 2.39503C6.63151 22.6476 16.5066 41.2826 31.782 54.9106C47.0574 68.5386 66.6937 76.2323 87.124 76.6319C88.0494 76.65 88.8001 77.3986 88.8001 78.3241Z" stroke="#4CB8E9" stroke-width="8" mask="url(#path-1-inside-1_1516_35470)"/>
</svg>
