<svg width="89" height="80" viewBox="0 0 89 80" fill="none" xmlns="http://www.w3.org/2000/svg">
<mask id="path-1-inside-1_1516_35457" fill="white">
<path d="M0.399879 1.67588C0.399879 0.750332 1.1506 -0.00162135 2.076 0.0157889C23.3293 0.415782 43.7597 8.41245 59.6493 22.5884C75.5388 36.7643 85.8051 56.1538 88.6174 77.224C88.7398 78.1414 88.078 78.9727 87.1585 79.0779C86.2389 79.183 85.4099 78.5223 85.2868 77.605C82.5684 57.3524 72.6934 38.7174 57.4179 25.0894C42.1425 11.4614 22.5062 3.76768 2.07594 3.36813C1.15056 3.35003 0.399879 2.60144 0.399879 1.67588Z"/>
</mask>
<path d="M0.399879 1.67588C0.399879 0.750332 1.1506 -0.00162135 2.076 0.0157889C23.3293 0.415782 43.7597 8.41245 59.6493 22.5884C75.5388 36.7643 85.8051 56.1538 88.6174 77.224C88.7398 78.1414 88.078 78.9727 87.1585 79.0779C86.2389 79.183 85.4099 78.5223 85.2868 77.605C82.5684 57.3524 72.6934 38.7174 57.4179 25.0894C42.1425 11.4614 22.5062 3.76768 2.07594 3.36813C1.15056 3.35003 0.399879 2.60144 0.399879 1.67588Z" stroke="#005993" stroke-width="8" mask="url(#path-1-inside-1_1516_35457)"/>
</svg>
