<svg width="80" height="89" viewBox="0 0 80 89" fill="none" xmlns="http://www.w3.org/2000/svg">
<mask id="path-1-inside-1_1516_35434" fill="white">
<path d="M77.924 -1.52588e-05C78.8495 -1.52588e-05 79.6015 0.75071 79.5841 1.6761C79.1841 22.9294 71.1874 43.3598 57.0115 59.2494C42.8356 75.1389 23.4461 85.4052 2.37585 88.2175C1.45844 88.3399 0.627136 87.6781 0.521973 86.7586C0.416801 85.839 1.07756 85.01 1.99489 84.8869C22.2475 82.1685 40.8824 72.2935 54.5104 57.0181C68.1385 41.7426 75.8322 22.1063 76.2317 1.67604C76.2498 0.750664 76.9984 -1.52588e-05 77.924 -1.52588e-05Z"/>
</mask>
<path d="M77.924 -1.52588e-05C78.8495 -1.52588e-05 79.6015 0.75071 79.5841 1.6761C79.1841 22.9294 71.1874 43.3598 57.0115 59.2494C42.8356 75.1389 23.4461 85.4052 2.37585 88.2175C1.45844 88.3399 0.627136 87.6781 0.521973 86.7586C0.416801 85.839 1.07756 85.01 1.99489 84.8869C22.2475 82.1685 40.8824 72.2935 54.5104 57.0181C68.1385 41.7426 75.8322 22.1063 76.2317 1.67604C76.2498 0.750664 76.9984 -1.52588e-05 77.924 -1.52588e-05Z" stroke="#7ED3F7" stroke-width="8" mask="url(#path-1-inside-1_1516_35434)"/>
</svg>
