<svg width="89" height="80" viewBox="0 0 89 80" fill="none" xmlns="http://www.w3.org/2000/svg">
<mask id="path-1-inside-1_1516_35435" fill="white">
<path d="M0.599831 1.67588C0.599831 0.750332 1.35056 -0.00162135 2.27595 0.0157889C23.5293 0.415782 43.9597 8.41245 59.8492 22.5884C75.7387 36.7643 86.005 56.1538 88.8173 77.224C88.9398 78.1414 88.278 78.9727 87.3584 79.0779C86.4389 79.183 85.6098 78.5223 85.4867 77.605C82.7684 57.3524 72.8933 38.7174 57.6179 25.0894C42.3425 11.4614 22.7062 3.76768 2.27589 3.36813C1.35051 3.35003 0.599831 2.60144 0.599831 1.67588Z"/>
</mask>
<path d="M0.599831 1.67588C0.599831 0.750332 1.35056 -0.00162135 2.27595 0.0157889C23.5293 0.415782 43.9597 8.41245 59.8492 22.5884C75.7387 36.7643 86.005 56.1538 88.8173 77.224C88.9398 78.1414 88.278 78.9727 87.3584 79.0779C86.4389 79.183 85.6098 78.5223 85.4867 77.605C82.7684 57.3524 72.8933 38.7174 57.6179 25.0894C42.3425 11.4614 22.7062 3.76768 2.27589 3.36813C1.35051 3.35003 0.599831 2.60144 0.599831 1.67588Z" stroke="#005993" stroke-width="8" mask="url(#path-1-inside-1_1516_35435)"/>
</svg>
