<svg width="618" height="220" viewBox="0 0 618 220" fill="none" xmlns="http://www.w3.org/2000/svg">
<g style="mix-blend-mode:screen" opacity="0.15">
<path fill-rule="evenodd" clip-rule="evenodd" d="M538.147 43.9578H574.34V76.0273C587.558 78.0625 600.34 82.3326 612.146 88.6574C616.564 79.1753 618.535 68.7227 617.875 58.2687C617.216 47.8148 613.947 37.6979 608.371 28.856C602.796 20.0141 595.095 12.7335 585.983 7.68913C576.87 2.64478 566.641 0 556.243 0C545.846 0 535.617 2.64478 526.504 7.68913C517.392 12.7335 509.691 20.0141 504.116 28.856C498.54 37.6979 495.271 47.8148 494.612 58.2687C493.952 68.7227 495.923 79.1753 500.341 88.6574C512.148 82.3343 524.93 78.0643 538.147 76.0273V43.9578Z" fill="#006095"/>
<path fill-rule="evenodd" clip-rule="evenodd" d="M556.244 124.219C566.49 124.224 576.577 121.661 585.596 116.761C594.614 111.86 602.281 104.776 607.905 96.1472C591.975 87.7042 574.244 83.2925 556.244 83.2925C538.243 83.2925 520.513 87.7042 504.582 96.1472C510.202 104.78 517.868 111.867 526.887 116.768C535.907 121.669 545.996 124.23 556.244 124.219Z" fill="white"/>
<path fill-rule="evenodd" clip-rule="evenodd" d="M576.973 202.167C576.726 199.929 575.714 197.846 574.111 196.277C573.239 195.379 572.192 194.672 571.037 194.2C569.882 193.728 568.642 193.5 567.396 193.531C565.16 193.531 562.994 194.314 561.269 195.746C559.543 197.178 558.365 199.169 557.937 201.38C557.509 203.59 557.857 205.882 558.921 207.863C559.985 209.843 561.7 211.389 563.771 212.236C565.843 213.083 568.142 213.178 570.275 212.505C572.409 211.832 574.243 210.432 575.465 208.546C576.687 206.661 577.22 204.405 576.973 202.167ZM569.553 208.303C568.869 208.583 568.134 208.717 567.396 208.698C566.656 208.714 565.921 208.579 565.235 208.299C564.549 208.02 563.927 207.603 563.406 207.073C562.369 205.971 561.791 204.511 561.791 202.993C561.791 201.475 562.369 200.014 563.406 198.913C564.474 197.869 565.903 197.286 567.39 197.286C568.878 197.286 570.307 197.869 571.375 198.913C572.416 200.012 572.998 201.473 572.998 202.993C572.998 204.513 572.416 205.974 571.375 207.073C570.858 207.605 570.238 208.023 569.553 208.303Z" fill="#006095"/>
<path d="M565.641 191.62L567.396 189.127L569.162 191.62H572.814L569.26 186.92H565.499L561.978 191.62H565.641Z" fill="#006095"/>
<path d="M578.112 183.636H573.751L571.124 188.183H574.558L578.112 183.636Z" fill="#006095"/>
<path d="M284.145 186.733H280.024V203.888L268.174 186.733H264.904V211.993H269.025V194.838L280.874 211.993H284.145V186.733Z" fill="#006095"/>
<path fill-rule="evenodd" clip-rule="evenodd" d="M306.122 194.003H302.241V196.562C301.527 195.571 300.579 194.775 299.482 194.246C298.386 193.716 297.176 193.471 295.962 193.531C294.777 193.513 293.602 193.749 292.514 194.222C291.426 194.695 290.45 195.395 289.65 196.277C287.952 198.107 287.007 200.52 287.007 203.025C287.007 205.531 287.952 207.944 289.65 209.774C290.45 210.655 291.426 211.356 292.514 211.829C293.602 212.302 294.777 212.538 295.962 212.52C297.18 212.582 298.393 212.333 299.491 211.798C300.588 211.262 301.534 210.457 302.241 209.456V212.059H306.122V194.003ZM298.765 208.413C298.068 208.692 297.322 208.827 296.572 208.808C295.823 208.827 295.077 208.692 294.38 208.413C293.683 208.133 293.049 207.715 292.517 207.183C291.985 206.635 291.569 205.985 291.292 205.272C291.014 204.559 290.883 203.797 290.904 203.031C290.874 202.269 291.002 201.51 291.28 200.801C291.558 200.092 291.979 199.449 292.517 198.912C293.599 197.842 295.056 197.242 296.572 197.242C298.089 197.242 299.545 197.842 300.628 198.912C301.166 199.449 301.587 200.092 301.865 200.801C302.142 201.51 302.271 202.269 302.241 203.031C302.262 203.797 302.13 204.559 301.853 205.272C301.576 205.985 301.159 206.635 300.628 207.183C300.095 207.715 299.462 208.133 298.765 208.413Z" fill="#006095"/>
<path d="M295.929 191.829L297.826 189.16L299.701 191.829H303.647L299.843 186.777H295.787L291.983 191.829H295.929Z" fill="#006095"/>
<path d="M326.082 201.01V212.103H322.212V201.406C322.212 198.704 320.664 197.221 318.19 197.221C315.464 197.221 313.633 198.913 313.633 202.416V212.103H309.752V194.003H313.633V196.31C314.229 195.389 315.059 194.646 316.037 194.157C317.015 193.669 318.104 193.453 319.193 193.531C323.324 193.531 326.082 196.343 326.082 201.01Z" fill="#006095"/>
<path fill-rule="evenodd" clip-rule="evenodd" d="M347.449 194.003H343.645L343.634 196.65C342.943 195.636 342.007 194.815 340.914 194.266C339.821 193.716 338.607 193.456 337.387 193.509C336.184 193.484 334.988 193.716 333.88 194.189C332.771 194.662 331.775 195.367 330.955 196.255C330.101 197.119 329.428 198.148 328.978 199.28C328.529 200.413 328.311 201.625 328.339 202.845C328.32 204.063 328.541 205.273 328.991 206.404C329.44 207.535 330.108 208.566 330.955 209.434C331.783 210.309 332.782 211.001 333.89 211.466C334.997 211.931 336.188 212.159 337.387 212.136C338.607 212.19 339.821 211.93 340.914 211.38C342.007 210.83 342.943 210.01 343.634 208.995V211.192C343.634 214.333 341.617 216.178 338.281 216.178C335.73 216.178 333.975 215.233 333.038 213.399L329.702 215.343C331.25 218.287 334.084 219.736 338.216 219.736C340.586 219.808 342.904 219.03 344.757 217.539C345.661 216.769 346.375 215.798 346.842 214.702C347.31 213.606 347.517 212.415 347.449 211.224V194.003ZM340.139 208.126C339.441 208.405 338.694 208.537 337.943 208.512C337.189 208.53 336.438 208.395 335.736 208.116C335.034 207.837 334.394 207.419 333.855 206.887C332.821 205.799 332.244 204.351 332.244 202.845C332.244 201.338 332.821 199.89 333.855 198.803C334.394 198.27 335.034 197.852 335.736 197.573C336.438 197.294 337.189 197.159 337.943 197.178C338.694 197.152 339.441 197.284 340.139 197.564C340.837 197.843 341.47 198.265 341.998 198.803C343.061 199.876 343.658 201.329 343.658 202.845C343.658 204.36 343.061 205.814 341.998 206.887C341.47 207.424 340.837 207.846 340.139 208.126Z" fill="#006095"/>
<path fill-rule="evenodd" clip-rule="evenodd" d="M373.438 194.003H377.254V211.224C377.322 212.415 377.114 213.606 376.647 214.702C376.179 215.798 375.465 216.769 374.561 217.539C372.708 219.029 370.39 219.807 368.02 219.736C363.899 219.736 361.054 218.287 359.517 215.343L362.853 213.399C363.79 215.233 365.545 216.178 368.096 216.178C371.432 216.178 373.438 214.333 373.438 211.192V208.995C372.747 210.01 371.811 210.83 370.718 211.38C369.626 211.93 368.412 212.19 367.192 212.136C365.994 212.159 364.804 211.931 363.699 211.466C362.594 211.001 361.596 210.309 360.771 209.434C359.923 208.566 359.255 207.535 358.806 206.404C358.357 205.273 358.135 204.063 358.154 202.845C358.127 201.625 358.344 200.413 358.794 199.28C359.243 198.148 359.916 197.119 360.771 196.255C361.588 195.367 362.582 194.662 363.689 194.189C364.796 193.716 365.99 193.484 367.192 193.509C368.412 193.456 369.626 193.716 370.718 194.266C371.811 194.815 372.747 195.636 373.438 196.65V194.003ZM367.737 208.512C368.047 208.521 368.357 208.503 368.662 208.459C369.096 208.398 369.522 208.285 369.931 208.121C370.628 207.841 371.261 207.421 371.792 206.887C372.847 205.809 373.438 204.358 373.438 202.845C373.438 201.332 372.847 199.88 371.792 198.803C371.261 198.268 370.628 197.848 369.931 197.569C369.233 197.29 368.487 197.157 367.737 197.178L367.605 197.176L367.529 197.176L367.378 197.181C367.253 197.186 367.128 197.195 367.004 197.208C366.881 197.221 366.759 197.238 366.638 197.26C366.258 197.326 365.885 197.431 365.524 197.574C364.821 197.853 364.179 198.271 363.638 198.803C362.604 199.89 362.026 201.338 362.026 202.845C362.026 204.351 362.604 205.799 363.638 206.887C364.179 207.419 364.821 207.836 365.524 208.116C366.228 208.395 366.98 208.53 367.737 208.512Z" fill="#006095"/>
<path d="M380.397 189.468C380.397 190.108 380.646 190.723 381.091 191.181C381.547 191.63 382.159 191.881 382.797 191.881C383.435 191.881 384.047 191.63 384.503 191.181C384.732 190.956 384.915 190.688 385.04 190.392C385.059 190.349 385.076 190.305 385.092 190.26L385.118 190.182L385.133 190.133L385.148 190.08C385.161 190.035 385.171 189.989 385.181 189.944C385.215 189.783 385.232 189.62 385.234 189.455C385.236 189.134 385.174 188.814 385.052 188.516C384.931 188.219 384.752 187.948 384.525 187.721C384.299 187.494 384.03 187.313 383.734 187.192C383.438 187.071 383.121 187.009 382.801 187.013C382.481 187.016 382.166 187.083 381.872 187.21C381.578 187.338 381.313 187.523 381.091 187.754C380.646 188.212 380.397 188.827 380.397 189.468Z" fill="#006095"/>
<path d="M384.754 194.003H380.873V212.048L384.754 212.059V194.003Z" fill="#006095"/>
<path fill-rule="evenodd" clip-rule="evenodd" d="M402.556 194.003H406.437V212.059H402.556V209.456C401.849 210.457 400.903 211.262 399.805 211.798C398.708 212.333 397.494 212.582 396.277 212.52C395.092 212.538 393.916 212.302 392.828 211.829C391.74 211.356 390.764 210.655 389.965 209.774C388.266 207.944 387.322 205.531 387.322 203.025C387.322 200.52 388.266 198.107 389.965 196.277C390.764 195.395 391.74 194.695 392.828 194.222C393.916 193.749 395.092 193.513 396.277 193.531C397.491 193.471 398.701 193.716 399.797 194.246C400.894 194.775 401.842 195.571 402.556 196.562V194.003ZM396.887 208.808C397.637 208.827 398.383 208.692 399.08 208.413C399.776 208.133 400.41 207.715 400.942 207.183C401.474 206.635 401.891 205.985 402.168 205.272C402.445 204.559 402.577 203.797 402.556 203.031C402.585 202.269 402.457 201.51 402.179 200.801C401.902 200.092 401.48 199.449 400.942 198.912C399.86 197.842 398.404 197.242 396.887 197.242C395.37 197.242 393.914 197.842 392.832 198.912C392.294 199.449 391.872 200.092 391.595 200.801C391.317 201.51 391.189 202.269 391.218 203.031C391.197 203.797 391.329 204.559 391.606 205.272C391.883 205.985 392.3 206.635 392.832 207.183C393.364 207.715 393.997 208.133 394.694 208.413C394.951 208.516 395.214 208.599 395.481 208.662C395.94 208.77 396.413 208.82 396.887 208.808Z" fill="#006095"/>
<path d="M403.744 186.733L399.939 191.609H396.211L399.078 186.733H403.744Z" fill="#006095"/>
<path d="M423.704 197.715H428.163V193.97H423.704V188.907L419.834 190.06V193.97H416.564V197.715H419.834V206.392C419.834 211.115 422.233 212.74 428.163 212.026V208.522C425.22 208.665 423.704 208.698 423.704 206.392V197.715Z" fill="#006095"/>
<path d="M434.835 197.035C435.281 195.953 436.059 195.043 437.056 194.438C438.052 193.833 439.214 193.566 440.373 193.674V197.903C438.989 197.773 437.606 198.164 436.492 199.001C435.911 199.473 435.455 200.084 435.166 200.778C434.876 201.472 434.763 202.228 434.835 202.976V212.081H430.965V194.003H434.835V197.035Z" fill="#006095"/>
<path d="M441.926 189.933C442.022 190.407 442.255 190.841 442.597 191.18C443.048 191.634 443.66 191.888 444.297 191.888C444.935 191.888 445.546 191.634 445.998 191.18C446.339 190.841 446.573 190.407 446.668 189.933C446.764 189.459 446.718 188.967 446.536 188.52C446.354 188.073 446.043 187.69 445.645 187.421C445.246 187.151 444.777 187.008 444.297 187.008C443.817 187.008 443.348 187.151 442.949 187.421C442.551 187.69 442.241 188.073 442.058 188.52C441.876 188.967 441.83 189.459 441.926 189.933Z" fill="#006095"/>
<path d="M441.898 217.545C441.894 218.192 442.145 218.814 442.597 219.274C442.822 219.504 443.09 219.687 443.386 219.811C443.542 219.877 443.704 219.925 443.869 219.957C444.017 219.985 444.168 220 444.319 220C444.639 220 444.957 219.936 445.252 219.811C445.548 219.687 445.816 219.504 446.041 219.274C446.268 219.051 446.448 218.785 446.571 218.491C446.694 218.196 446.758 217.881 446.758 217.561C446.758 217.242 446.694 216.926 446.571 216.632C446.509 216.483 446.432 216.34 446.342 216.207C446.254 216.078 446.153 215.958 446.041 215.848C445.59 215.387 444.976 215.127 444.334 215.123C443.692 215.118 443.075 215.371 442.618 215.826C442.162 216.28 441.903 216.899 441.898 217.545Z" fill="#006095"/>
<path d="M446.216 194.003H442.346V212.059H446.216V194.003Z" fill="#006095"/>
<path d="M459.581 209.796C458.702 208.915 458.01 207.863 457.547 206.704C457.084 205.544 456.86 204.302 456.888 203.053C456.852 201.801 457.073 200.555 457.536 199.393C458 198.231 458.696 197.178 459.581 196.299C460.465 195.398 461.522 194.69 462.689 194.217C463.855 193.745 465.105 193.519 466.362 193.553C467.992 193.509 469.603 193.921 471.015 194.743C472.428 195.564 473.586 196.765 474.363 198.21L471.027 200.154C470.593 199.283 469.919 198.558 469.085 198.066C468.252 197.572 467.295 197.332 466.329 197.375C465.589 197.359 464.854 197.494 464.168 197.774C463.482 198.054 462.86 198.471 462.339 199C461.324 200.1 460.759 201.546 460.759 203.047C460.759 204.549 461.324 205.995 462.339 207.095C462.86 207.624 463.482 208.042 464.168 208.321C464.854 208.6 465.589 208.736 466.329 208.72C467.302 208.748 468.264 208.503 469.107 208.013C469.95 207.522 470.642 206.805 471.104 205.942L474.439 207.852C473.642 209.299 472.469 210.5 471.046 211.326C469.623 212.152 468.004 212.573 466.362 212.542C465.105 212.576 463.855 212.35 462.689 211.878C461.522 211.405 460.465 210.697 459.581 209.796Z" fill="#006095"/>
<path d="M492.427 194.003H488.546V203.679C488.546 207.183 486.714 208.874 483.989 208.874C481.514 208.874 479.967 207.391 479.967 204.69V194.003H476.096V205.14C476.096 209.764 478.855 212.575 482.986 212.575C484.075 212.654 485.164 212.437 486.142 211.949C487.12 211.46 487.949 210.717 488.546 209.796V212.059H492.427V194.003Z" fill="#006095"/>
<path fill-rule="evenodd" clip-rule="evenodd" d="M511.275 196.277C512.879 197.846 513.89 199.928 514.137 202.166C514.385 204.405 513.851 206.66 512.63 208.546C511.408 210.432 509.573 211.831 507.44 212.505C505.306 213.178 503.007 213.083 500.936 212.236C498.864 211.389 497.15 209.842 496.085 207.862C495.021 205.882 494.673 203.59 495.101 201.38C495.53 199.169 496.707 197.178 498.433 195.746C500.159 194.314 502.325 193.531 504.56 193.531C505.807 193.5 507.046 193.727 508.201 194.2C509.357 194.672 510.403 195.379 511.275 196.277ZM504.527 208.698C505.267 208.714 506.002 208.579 506.688 208.299C506.775 208.263 506.862 208.225 506.947 208.185C507.101 208.113 507.251 208.034 507.397 207.948C507.805 207.707 508.182 207.413 508.517 207.073C509.554 205.971 510.132 204.51 510.132 202.992C510.132 201.475 509.554 200.014 508.517 198.912C507.446 197.871 506.016 197.289 504.527 197.289C503.039 197.289 501.608 197.871 500.537 198.912C499.501 200.014 498.923 201.475 498.923 202.992C498.923 204.51 499.501 205.971 500.537 207.073C500.792 207.332 501.072 207.564 501.371 207.766C501.683 207.977 502.016 208.156 502.366 208.299C503.052 208.579 503.788 208.714 504.527 208.698Z" fill="#006095"/>
<path d="M504.527 189.127L502.772 191.62H499.109L502.63 186.919H506.402L509.945 191.62H506.293L504.527 189.127Z" fill="#006095"/>
<path d="M502.805 219.242C502.36 218.784 502.111 218.169 502.111 217.528C502.111 216.887 502.36 216.272 502.805 215.815C503.142 215.474 503.571 215.243 504.038 215.148C504.105 215.135 504.172 215.124 504.24 215.116C504.324 215.106 504.408 215.102 504.493 215.101C504.554 215.101 504.616 215.103 504.678 215.107C504.936 215.125 505.19 215.185 505.432 215.285C505.872 215.468 506.249 215.779 506.514 216.179C506.779 216.578 506.921 217.048 506.921 217.528C506.921 218.009 506.779 218.478 506.514 218.877C506.43 219.005 506.334 219.123 506.229 219.23C506.141 219.321 506.046 219.404 505.944 219.48C505.837 219.56 505.723 219.63 505.604 219.691C505.548 219.72 505.49 219.747 505.432 219.771C504.991 219.955 504.506 220.003 504.038 219.908C503.571 219.814 503.142 219.582 502.805 219.242Z" fill="#006095"/>
<path d="M516.283 206.704C516.746 207.863 517.438 208.915 518.318 209.796C519.208 210.698 520.274 211.406 521.448 211.874C522.622 212.343 523.88 212.563 525.142 212.52C526.785 212.553 528.405 212.134 529.828 211.308C531.252 210.481 532.424 209.279 533.22 207.83L529.884 205.92C529.422 206.783 528.731 207.5 527.887 207.991C527.044 208.481 526.082 208.726 525.109 208.698C524.37 208.714 523.634 208.579 522.948 208.299C522.643 208.175 522.351 208.023 522.075 207.847C521.729 207.627 521.409 207.367 521.119 207.073C520.111 205.97 519.551 204.525 519.551 203.025C519.551 201.526 520.111 200.081 521.119 198.978C521.64 198.449 522.262 198.032 522.948 197.752C523.634 197.473 524.37 197.337 525.109 197.353C526.075 197.309 527.033 197.549 527.867 198.041C528.701 198.535 529.375 199.261 529.808 200.132L533.1 198.21C532.324 196.764 531.166 195.563 529.753 194.741C528.34 193.919 526.729 193.508 525.098 193.553C523.842 193.519 522.592 193.745 521.425 194.218C520.259 194.69 519.201 195.398 518.318 196.299C517.432 197.178 516.736 198.231 516.273 199.393C515.81 200.555 515.589 201.801 515.625 203.053C515.596 204.302 515.821 205.544 516.283 206.704Z" fill="#006095"/>
<path d="M550.128 201.329C552.886 201.944 556.483 203.097 556.407 206.963C556.414 207.173 556.408 207.382 556.388 207.59C556.373 207.747 556.35 207.904 556.319 208.059C556.293 208.191 556.262 208.323 556.224 208.453C556.206 208.518 556.186 208.583 556.164 208.648C556.133 208.743 556.098 208.836 556.061 208.929C556.016 209.04 555.968 209.149 555.915 209.256C555.699 209.694 555.419 210.094 555.086 210.444C554.878 210.662 554.649 210.861 554.401 211.038C552.94 212.063 551.188 212.583 549.408 212.521C545.854 212.521 543.238 210.939 542.083 208.303L545.419 206.348C545.69 207.175 546.233 207.884 546.959 208.357C547.684 208.831 548.548 209.04 549.408 208.951C551.458 208.951 552.461 208.259 552.461 206.93C552.461 205.766 550.945 205.085 549.049 204.613C546.356 203.932 542.726 202.845 542.802 199.056C542.776 198.287 542.931 197.522 543.255 196.825C543.579 196.129 544.063 195.519 544.666 195.047C545.542 194.403 546.54 193.949 547.597 193.71C548.655 193.472 549.75 193.455 550.814 193.661C551.878 193.867 552.889 194.291 553.784 194.907C554.679 195.524 555.438 196.319 556.015 197.243L552.744 199.077C552.466 198.424 551.992 197.874 551.387 197.505C550.783 197.137 550.08 196.968 549.376 197.024C547.904 197.024 546.748 197.672 546.748 198.935C546.748 200.198 548.264 200.791 550.128 201.329Z" fill="#006095"/>
<path d="M595.827 201.01V212.103H591.946V201.406C591.946 198.704 590.398 197.221 587.923 197.221C585.198 197.221 583.366 198.913 583.366 202.416V212.103H579.485V194.003H583.366V196.31C583.963 195.389 584.793 194.646 585.77 194.157C586.016 194.034 586.27 193.929 586.528 193.84C586.683 193.788 586.839 193.742 586.997 193.702C587.329 193.618 587.668 193.561 588.009 193.534C588.313 193.51 588.62 193.509 588.926 193.531C593.036 193.531 595.827 196.343 595.827 201.01Z" fill="#006095"/>
<path fill-rule="evenodd" clip-rule="evenodd" d="M617.193 194.003H613.389L613.378 196.65C612.687 195.636 611.751 194.815 610.658 194.266C609.565 193.716 608.351 193.456 607.131 193.509C605.928 193.484 604.732 193.716 603.624 194.189C602.515 194.662 601.519 195.367 600.699 196.255C599.845 197.119 599.172 198.148 598.722 199.28C598.273 200.413 598.055 201.625 598.083 202.845C598.064 204.063 598.285 205.273 598.734 206.404C599.184 207.535 599.852 208.566 600.699 209.434C601.527 210.309 602.526 211.001 603.633 211.466C604.741 211.931 605.932 212.159 607.131 212.136C608.351 212.19 609.565 211.93 610.658 211.38C611.751 210.83 612.687 210.01 613.378 208.995V211.192C613.378 214.333 611.361 216.178 608.025 216.178C605.474 216.178 603.719 215.233 602.782 213.399L599.446 215.343C600.994 218.287 603.828 219.736 607.96 219.736C610.33 219.808 612.648 219.03 614.501 217.539C615.405 216.769 616.119 215.798 616.586 214.702C617.054 213.606 617.261 212.415 617.193 211.224V194.003ZM608.516 208.474C608.238 208.508 607.958 208.521 607.676 208.512C606.922 208.53 606.171 208.395 605.469 208.116C605.034 207.943 604.622 207.717 604.244 207.443C604.013 207.275 603.793 207.089 603.588 206.887C602.554 205.799 601.977 204.351 601.977 202.845C601.977 201.338 602.554 199.89 603.588 198.803C604.127 198.27 604.767 197.852 605.469 197.573C605.798 197.442 606.137 197.343 606.482 197.277C606.875 197.201 607.275 197.168 607.676 197.178C608.427 197.152 609.175 197.284 609.872 197.564C610.57 197.843 611.203 198.265 611.732 198.803C612.794 199.876 613.391 201.329 613.391 202.845C613.391 204.36 612.794 205.814 611.732 206.887C611.203 207.424 610.57 207.846 609.872 208.126C609.436 208.301 608.98 208.418 608.516 208.474Z" fill="#006095"/>
<path d="M500.374 100.607L477.971 124.264L500.374 153.785H479.541L463.527 129.843V153.785H447.328V76.6207H449.508C451.35 76.6137 453.176 76.9736 454.879 77.6798C456.582 78.3866 458.13 79.4259 459.433 80.7376C460.736 82.0493 461.769 83.6077 462.472 85.3232C463.174 87.0393 463.533 88.8776 463.527 90.7336V119.574L480.523 100.607H500.374Z" fill="#006095"/>
<path d="M42.2933 151.37C40.1353 152.942 37.5477 153.805 34.8845 153.84H30.0551L0 76.8073H19.3827L38.4383 125.746L57.5158 76.8513H73.5408C73.5408 76.8513 53.4822 127.965 46.9414 145.054C46.0748 147.591 44.4515 149.797 42.2933 151.37Z" fill="#006095"/>
<path d="M177.333 100.585V112.995H168.775V132.325C168.773 133.322 168.965 134.309 169.342 135.231C169.718 136.154 170.272 136.991 170.971 137.698C171.67 138.403 172.5 138.964 173.414 139.346C174.328 139.728 175.308 139.925 176.297 139.925L177.322 139.859V153.708L172.046 153.873C167.183 153.985 162.475 152.154 158.949 148.778C155.423 145.403 153.367 140.759 153.23 135.861V112.995H145.446V100.585H153.23V87.3176H168.797V100.585H177.333Z" fill="#006095"/>
<path fill-rule="evenodd" clip-rule="evenodd" d="M102.637 132.083H142.536C142.762 130.688 142.897 129.279 142.939 127.866C143.06 124.106 142.431 120.359 141.089 116.848C139.746 113.337 137.717 110.134 135.123 107.428C132.576 104.724 129.511 102.571 126.112 101.1C122.713 99.6286 119.052 98.8698 115.353 98.8698C111.654 98.8698 107.993 99.6286 104.594 101.1C101.196 102.571 98.1297 104.724 95.5834 107.428C90.5072 112.796 87.6912 119.935 87.7258 127.349C87.7603 134.763 90.6428 141.876 95.7687 147.196C98.3121 149.872 101.376 151.991 104.769 153.419C108.163 154.848 111.812 155.556 115.489 155.499C121.181 155.549 126.737 153.747 131.329 150.359C135.788 147.006 139.194 142.431 141.14 137.18H126.304C125.197 139.157 123.595 140.806 121.657 141.962C119.719 143.119 117.513 143.742 115.26 143.769C112.08 143.787 109.011 142.593 106.67 140.425C104.328 138.257 102.887 135.277 102.637 132.083ZM123.314 113.952C125.572 115.856 127.093 118.499 127.612 121.419H102.909C103.428 118.499 104.949 115.856 107.207 113.952C109.465 112.049 112.316 111.005 115.26 111.005C118.205 111.005 121.056 112.049 123.314 113.952Z" fill="#006095"/>
<path d="M66.2041 114.676C66.1983 112.821 66.5568 110.983 67.2587 109.268C67.9606 107.553 68.9923 105.995 70.2942 104.683C71.5961 103.372 73.1427 102.332 74.8449 101.625C76.547 100.918 78.3712 100.557 80.2124 100.563H81.7604V153.873H66.2369L66.2041 114.676Z" fill="#006095"/>
<path d="M184.679 109.265C183.976 110.981 183.617 112.82 183.623 114.676L183.667 153.873H199.168V100.563H197.642C195.8 100.556 193.975 100.916 192.271 101.622C190.568 102.329 189.02 103.368 187.717 104.68C186.414 105.991 185.381 107.55 184.679 109.265Z" fill="#006095"/>
<path d="M240.234 153.862V121.639C240.241 120.513 240.027 119.398 239.603 118.357C239.18 117.316 238.556 116.369 237.767 115.573C236.979 114.776 236.041 114.145 235.009 113.716C233.976 113.286 232.87 113.067 231.753 113.072C230.59 113.03 229.43 113.227 228.345 113.652C227.261 114.077 226.273 114.72 225.444 115.543C224.614 116.365 223.96 117.349 223.521 118.435C223.082 119.521 222.867 120.686 222.89 121.858V153.818H207.126V100.673H221.865V106.329H222.105C224.517 103.165 227.852 100.842 231.642 99.686C235.431 98.5293 239.485 98.5974 243.235 99.8801C246.984 101.163 250.24 103.596 252.547 106.839C254.854 110.081 256.094 113.97 256.095 117.959V153.862H240.234Z" fill="#006095"/>
<path fill-rule="evenodd" clip-rule="evenodd" d="M367.05 106.285V100.629H382.639V153.785H367.028V148.03H366.843C365.414 150.696 363.098 152.768 360.302 153.884C357.561 155.053 354.611 155.639 351.635 155.608C343.779 155.608 337.402 152.851 332.503 147.338C327.794 141.957 325.439 135.239 325.439 127.185C325.439 119.233 327.841 112.563 332.645 107.174C335.008 104.462 337.934 102.307 341.216 100.86C344.497 99.4141 348.055 98.7127 351.635 98.8054C354.602 98.7706 357.542 99.3734 360.258 100.574C363.004 101.727 365.316 103.726 366.865 106.285H367.05ZM359.1 139.757C360.664 139.087 362.077 138.105 363.256 136.872V136.86C365.648 134.246 366.935 130.795 366.843 127.24C366.901 125.464 366.61 123.694 365.987 122.032C365.364 120.369 364.421 118.847 363.213 117.553C362.034 116.299 360.607 115.31 359.023 114.649C357.44 113.989 355.736 113.672 354.023 113.72C352.306 113.677 350.6 114.014 349.027 114.708C347.454 115.403 346.052 116.438 344.92 117.74C342.563 120.397 341.31 123.865 341.421 127.426C341.346 130.934 342.651 134.329 345.051 136.872C346.23 138.105 347.643 139.087 349.208 139.757C350.772 140.428 352.454 140.773 354.154 140.773C355.853 140.773 357.536 140.428 359.1 139.757Z" fill="#006095"/>
<path d="M423.683 153.862V121.639C423.69 120.513 423.476 119.398 423.052 118.357C422.629 117.316 422.005 116.369 421.216 115.573C420.427 114.776 419.49 114.145 418.457 113.716C417.425 113.286 416.318 113.067 415.201 113.072C414.038 113.03 412.879 113.227 411.794 113.652C410.709 114.077 409.722 114.72 408.892 115.543C408.063 116.365 407.408 117.349 406.969 118.435C406.53 119.521 406.315 120.686 406.339 121.858V153.818H390.531V100.673H405.27V106.329H405.532C407.944 103.165 411.279 100.842 415.069 99.686C418.858 98.5293 422.912 98.5974 426.661 99.8801C430.411 101.163 433.667 103.596 435.974 106.839C438.28 110.081 439.521 113.97 439.522 117.959V153.862H423.683Z" fill="#006095"/>
<path fill-rule="evenodd" clip-rule="evenodd" d="M308.575 112.534C318.779 106.944 318.157 97.4106 317.111 92.1391C315.803 85.5495 308.858 76.7634 293.193 76.884H263.988V153.862H293.716C312.925 153.862 321.689 142.649 321.449 130.524C321.34 125.12 319.814 116.071 308.575 112.534ZM281.801 91.1835H293.302C294.374 91.1412 295.444 91.3149 296.449 91.6946C297.454 92.0743 298.374 92.6529 299.154 93.3956C299.933 94.1383 300.558 95.0307 300.991 96.0201C301.424 97.0095 301.656 98.0761 301.674 99.1572C301.674 104.044 297.314 107.164 293.302 107.142H281.801V91.1835ZM296.387 139.683H281.725V121.32H296.093C297.309 121.263 298.524 121.452 299.666 121.877C300.808 122.301 301.854 122.953 302.741 123.792C303.629 124.631 304.34 125.642 304.832 126.764C305.325 127.885 305.589 129.095 305.609 130.321C305.628 131.548 305.403 132.766 304.947 133.902C304.491 135.04 303.813 136.073 302.953 136.941C302.093 137.809 301.068 138.494 299.941 138.956C298.813 139.417 297.604 139.646 296.387 139.629V139.683Z" fill="#006095"/>
</g>
</svg>
