<svg width="181" height="65" viewBox="0 0 181 65" fill="none" xmlns="http://www.w3.org/2000/svg">
<path fill-rule="evenodd" clip-rule="evenodd" d="M157.613 12.9875H168.213V22.4626C172.084 23.0639 175.828 24.3255 179.285 26.1942C180.58 23.3927 181.157 20.3044 180.963 17.2158C180.77 14.1271 179.813 11.138 178.18 8.52563C176.547 5.91326 174.292 3.76217 171.623 2.27179C168.954 0.781412 165.958 0 162.913 0C159.867 0 156.872 0.781412 154.203 2.27179C151.534 3.76217 149.278 5.91326 147.645 8.52563C146.013 11.138 145.055 14.1271 144.862 17.2158C144.669 20.3044 145.246 23.3927 146.54 26.1942C149.998 24.3261 153.741 23.0645 157.613 22.4626V12.9875Z" fill="#006095"/>
<path fill-rule="evenodd" clip-rule="evenodd" d="M162.913 36.7013C165.914 36.7028 168.868 35.9455 171.509 34.4977C174.151 33.0498 176.396 30.9569 178.043 28.4074C173.378 25.9129 168.185 24.6094 162.913 24.6094C157.641 24.6094 152.448 25.9129 147.782 28.4074C149.428 30.9581 151.673 33.052 154.315 34.5C156.956 35.948 159.911 36.7046 162.913 36.7013Z" fill="#D7153A"/>
<path fill-rule="evenodd" clip-rule="evenodd" d="M168.984 59.731C168.912 59.0696 168.615 58.4544 168.146 57.9908C167.89 57.7256 167.584 57.5166 167.246 57.377C166.907 57.2376 166.544 57.1702 166.179 57.1796C165.524 57.1794 164.89 57.4108 164.385 57.8338C163.879 58.2568 163.534 58.8453 163.409 59.4984C163.283 60.1515 163.385 60.8285 163.697 61.4138C164.009 61.9989 164.511 62.4557 165.118 62.7059C165.724 62.9562 166.398 62.9843 167.023 62.7854C167.647 62.5866 168.185 62.173 168.543 61.6158C168.9 61.0587 169.057 60.3923 168.984 59.731ZM166.811 61.544C166.611 61.6266 166.395 61.6663 166.179 61.6606C165.962 61.6654 165.747 61.6253 165.546 61.5428C165.345 61.4602 165.163 61.3369 165.011 61.1804C164.707 60.855 164.538 60.4235 164.538 59.975C164.538 59.5264 164.707 59.095 165.011 58.7696C165.323 58.4612 165.742 58.2888 166.177 58.2888C166.613 58.2888 167.032 58.4612 167.344 58.7696C167.65 59.0942 167.82 59.526 167.82 59.975C167.82 60.424 167.65 60.8558 167.344 61.1804C167.193 61.3376 167.012 61.4613 166.811 61.544Z" fill="#006095"/>
<path d="M165.665 56.6149L166.179 55.8783L166.696 56.6149H167.766L166.725 55.2262H165.624L164.592 56.6149H165.665Z" fill="#006095"/>
<path d="M169.318 54.2559H168.041L167.271 55.5993H168.277L169.318 54.2559Z" fill="#006095"/>
<path d="M83.2205 55.1709H82.0136V60.2394L78.543 55.1709H77.5852V62.6341H78.7921V57.5656L82.2627 62.6341H83.2205V55.1709Z" fill="#006095"/>
<path fill-rule="evenodd" clip-rule="evenodd" d="M89.6572 57.319H88.5206V58.0751C88.3114 57.7821 88.0337 57.547 87.7126 57.3906C87.3915 57.2342 87.0371 57.1617 86.6815 57.1794C86.3344 57.1742 85.9902 57.2438 85.6716 57.3837C85.3529 57.5234 85.0671 57.7303 84.8329 57.9907C84.3355 58.5316 84.0588 59.2444 84.0588 59.9846C84.0588 60.725 84.3355 61.4377 84.8329 61.9786C85.0671 62.239 85.3529 62.4459 85.6716 62.5858C85.9902 62.7255 86.3344 62.7951 86.6815 62.7899C87.0382 62.8081 87.3936 62.7347 87.715 62.5764C88.0365 62.4181 88.3135 62.1803 88.5206 61.8845V62.6536H89.6572V57.319ZM87.5025 61.5763C87.2983 61.6589 87.0799 61.6987 86.8603 61.6931C86.6407 61.6987 86.4222 61.6589 86.2181 61.5763C86.014 61.4938 85.8284 61.3702 85.6726 61.2129C85.5169 61.0511 85.3948 60.8591 85.3137 60.6484C85.2325 60.4376 85.1939 60.2125 85.2 59.9862C85.1914 59.7612 85.2289 59.5369 85.3103 59.3273C85.3917 59.1178 85.515 58.9278 85.6726 58.7694C85.9896 58.4531 86.4161 58.276 86.8603 58.276C87.3045 58.276 87.731 58.4531 88.048 58.7694C88.2056 58.9278 88.329 59.1178 88.4103 59.3273C88.4917 59.5369 88.5292 59.7612 88.5206 59.9862C88.5268 60.2125 88.4881 60.4376 88.4069 60.6484C88.3257 60.8591 88.2037 61.0511 88.048 61.2129C87.8921 61.3702 87.7066 61.4938 87.5025 61.5763Z" fill="#006095"/>
<path d="M86.6719 56.6765L87.2275 55.888L87.7766 56.6765H88.9324L87.8181 55.1839H86.6304L85.5161 56.6765H86.6719Z" fill="#006095"/>
<path d="M95.5032 59.3892V62.6666H94.3698V59.5061C94.3698 58.7079 93.9164 58.2698 93.1916 58.2698C92.3934 58.2698 91.857 58.7696 91.857 59.8047V62.6666H90.7204V57.319H91.857V58.0005C92.0317 57.7284 92.2748 57.5088 92.5611 57.3645C92.8474 57.2201 93.1666 57.1563 93.4854 57.1794C94.6954 57.1794 95.5032 58.0101 95.5032 59.3892Z" fill="#006095"/>
<path fill-rule="evenodd" clip-rule="evenodd" d="M101.761 57.319H100.647L100.644 58.1011C100.441 57.8013 100.167 57.5589 99.8471 57.3965C99.527 57.2341 99.1715 57.1572 98.8142 57.1731C98.4616 57.1656 98.1116 57.2341 97.7869 57.3738C97.4622 57.5137 97.1704 57.7218 96.9304 57.9843C96.68 58.2394 96.4831 58.5435 96.3514 58.8781C96.2197 59.2127 96.156 59.5709 96.1641 59.9312C96.1585 60.2912 96.2234 60.6487 96.3549 60.9828C96.4865 61.3171 96.6821 61.6215 96.9304 61.8782C97.1728 62.1366 97.4655 62.341 97.7898 62.4785C98.114 62.6159 98.4629 62.6832 98.8142 62.6764C99.1715 62.6923 99.527 62.6154 99.8471 62.453C100.167 62.2906 100.441 62.0482 100.644 61.7484V62.3974C100.644 63.3254 100.053 63.8706 99.076 63.8706C98.3289 63.8706 97.8148 63.5914 97.5402 63.0495L96.5632 63.6239C97.0166 64.4936 97.8467 64.9218 99.0568 64.9218C99.7509 64.9432 100.43 64.7132 100.973 64.2729C101.237 64.0453 101.447 63.7584 101.583 63.4346C101.72 63.1107 101.781 62.759 101.761 62.4071V57.319ZM99.6202 61.4916C99.4158 61.5741 99.1968 61.6129 98.977 61.6057C98.756 61.6109 98.5361 61.5711 98.3305 61.4887C98.1248 61.4062 97.9376 61.2826 97.7797 61.1254C97.4768 60.8039 97.3078 60.3762 97.3078 59.9312C97.3078 59.4862 97.4768 59.0584 97.7797 58.7371C97.9376 58.5797 98.1248 58.4562 98.3305 58.3738C98.5361 58.2912 98.756 58.2514 98.977 58.2568C99.1968 58.2494 99.4158 58.2882 99.6202 58.3709C99.8246 58.4535 100.01 58.5782 100.165 58.7371C100.476 59.0541 100.651 59.4835 100.651 59.9312C100.651 60.379 100.476 60.8084 100.165 61.1254C100.01 61.2842 99.8246 61.4089 99.6202 61.4916Z" fill="#006095"/>
<path fill-rule="evenodd" clip-rule="evenodd" d="M109.373 57.319H110.49V62.4071C110.51 62.759 110.449 63.1107 110.312 63.4346C110.176 63.7584 109.966 64.0453 109.702 64.2729C109.159 64.713 108.48 64.9429 107.786 64.9218C106.579 64.9218 105.746 64.4936 105.296 63.6239L106.273 63.0495C106.547 63.5914 107.061 63.8706 107.808 63.8706C108.785 63.8706 109.373 63.3254 109.373 62.3974V61.7484C109.17 62.0482 108.896 62.2906 108.576 62.453C108.256 62.6154 107.901 62.6923 107.543 62.6764C107.192 62.6832 106.844 62.6157 106.52 62.4784C106.197 62.341 105.905 62.1366 105.663 61.8782C105.414 61.6215 105.219 61.3171 105.087 60.9828C104.956 60.6487 104.891 60.2912 104.896 59.9312C104.888 59.5709 104.952 59.2127 105.084 58.8781C105.215 58.5435 105.412 58.2394 105.663 57.9843C105.902 57.7218 106.193 57.5137 106.518 57.374C106.842 57.2341 107.191 57.1656 107.543 57.1731C107.901 57.1572 108.256 57.2341 108.576 57.3965C108.896 57.5589 109.17 57.8013 109.373 58.1011V57.319ZM107.703 61.6057C107.794 61.6082 107.884 61.603 107.974 61.5901C108.101 61.5719 108.226 61.5385 108.345 61.49C108.55 61.4073 108.735 61.2832 108.891 61.1254C109.199 60.8071 109.373 60.3782 109.373 59.9312C109.373 59.4843 109.199 59.0552 108.891 58.7371C108.735 58.5791 108.55 58.455 108.345 58.3725C108.141 58.2899 107.923 58.2507 107.703 58.2568L107.664 58.2564L107.642 58.2565L107.598 58.2578C107.561 58.2592 107.525 58.2619 107.488 58.2659C107.452 58.2697 107.417 58.2747 107.381 58.2811C107.27 58.3006 107.161 58.3316 107.055 58.3739C106.849 58.4563 106.661 58.5799 106.502 58.7371C106.2 59.0584 106.03 59.4862 106.03 59.9312C106.03 60.3762 106.2 60.8039 106.502 61.1254C106.661 61.2826 106.849 61.406 107.055 61.4886C107.261 61.571 107.481 61.6109 107.703 61.6057Z" fill="#006095"/>
<path d="M111.411 55.9789C111.411 56.1681 111.484 56.3498 111.614 56.4851C111.748 56.6178 111.927 56.6919 112.114 56.6919C112.301 56.6919 112.48 56.6178 112.613 56.4851C112.681 56.4187 112.734 56.3395 112.771 56.2521C112.776 56.2392 112.781 56.2262 112.786 56.2131L112.794 56.19L112.798 56.1755L112.802 56.1599C112.806 56.1465 112.809 56.1331 112.812 56.1196C112.822 56.0722 112.827 56.0239 112.827 55.9753C112.828 55.8802 112.81 55.7859 112.774 55.6978C112.739 55.6099 112.686 55.5299 112.62 55.4629C112.554 55.3957 112.475 55.3425 112.388 55.3066C112.301 55.2707 112.209 55.2526 112.115 55.2536C112.021 55.2545 111.929 55.2743 111.843 55.312C111.757 55.3496 111.679 55.4042 111.614 55.4727C111.484 55.6078 111.411 55.7896 111.411 55.9789Z" fill="#006095"/>
<path d="M112.687 57.319H111.55V62.6504L112.687 62.6536V57.319Z" fill="#006095"/>
<path fill-rule="evenodd" clip-rule="evenodd" d="M117.901 57.319H119.037V62.6536H117.901V61.8845C117.694 62.1803 117.417 62.4181 117.095 62.5764C116.774 62.7347 116.418 62.8081 116.062 62.7899C115.715 62.7951 115.37 62.7255 115.052 62.5858C114.733 62.4459 114.447 62.239 114.213 61.9786C113.716 61.4377 113.439 60.725 113.439 59.9846C113.439 59.2442 113.716 58.5316 114.213 57.9907C114.447 57.7303 114.733 57.5234 115.052 57.3837C115.37 57.2438 115.715 57.1742 116.062 57.1794C116.417 57.1617 116.772 57.2342 117.093 57.3906C117.414 57.547 117.692 57.7821 117.901 58.0751V57.319ZM116.24 61.6931C116.46 61.6987 116.679 61.6589 116.883 61.5763C117.087 61.4938 117.272 61.3702 117.428 61.2129C117.584 61.0511 117.706 60.8591 117.787 60.6484C117.868 60.4376 117.907 60.2125 117.901 59.9862C117.909 59.7612 117.872 59.5369 117.791 59.3273C117.709 59.1178 117.586 58.9278 117.428 58.7694C117.111 58.4531 116.685 58.276 116.24 58.276C115.796 58.276 115.37 58.4531 115.053 58.7694C114.895 58.9278 114.772 59.1178 114.69 59.3273C114.609 59.5369 114.572 59.7612 114.58 59.9862C114.574 60.2125 114.613 60.4376 114.694 60.6484C114.775 60.8591 114.897 61.0511 115.053 61.2129C115.209 61.3702 115.394 61.4938 115.598 61.5763C115.673 61.6068 115.75 61.6313 115.829 61.65C115.963 61.682 116.102 61.6966 116.24 61.6931Z" fill="#006095"/>
<path d="M118.249 55.1709L117.134 56.6116H116.043L116.882 55.1709H118.249Z" fill="#006095"/>
<path d="M124.095 58.4158H125.401V57.3092H124.095V55.8133L122.961 56.154V57.3092H122.003V58.4158H122.961V60.9792C122.961 62.3746 123.664 62.8548 125.401 62.6438V61.6087C124.539 61.651 124.095 61.6606 124.095 60.9792V58.4158Z" fill="#006095"/>
<path d="M127.355 58.2147C127.485 57.895 127.713 57.6261 128.005 57.4474C128.297 57.2688 128.637 57.1897 128.977 57.2217V58.471C128.571 58.4327 128.166 58.5484 127.84 58.7955C127.67 58.9351 127.536 59.1156 127.452 59.3206C127.367 59.5256 127.334 59.7489 127.355 59.9701V62.6601H126.221V57.319H127.355V58.2147Z" fill="#006095"/>
<path d="M129.431 56.1163C129.459 56.2563 129.528 56.3847 129.628 56.485C129.76 56.619 129.939 56.6941 130.126 56.6941C130.313 56.6941 130.492 56.619 130.624 56.485C130.724 56.3847 130.792 56.2563 130.82 56.1163C130.849 55.9764 130.835 55.8311 130.782 55.6989C130.728 55.5668 130.637 55.4537 130.521 55.3741C130.404 55.2946 130.267 55.2521 130.126 55.2521C129.985 55.2521 129.848 55.2946 129.731 55.3741C129.614 55.4537 129.524 55.5668 129.47 55.6989C129.417 55.8311 129.403 55.9764 129.431 56.1163Z" fill="#006095"/>
<path d="M129.423 64.2746C129.422 64.4657 129.496 64.6495 129.628 64.7854C129.694 64.8534 129.772 64.9073 129.859 64.944C129.905 64.9634 129.952 64.9778 130.001 64.9871C130.044 64.9955 130.088 64.9998 130.132 64.9998C130.226 64.9998 130.319 64.9808 130.406 64.944C130.492 64.9073 130.571 64.8534 130.637 64.7854C130.703 64.7195 130.756 64.6408 130.792 64.5539C130.828 64.467 130.847 64.3736 130.847 64.2792C130.847 64.1849 130.828 64.0916 130.792 64.0046C130.774 63.9606 130.751 63.9186 130.725 63.8793C130.699 63.8411 130.67 63.8055 130.637 63.773C130.505 63.637 130.325 63.56 130.137 63.5588C129.949 63.5575 129.768 63.6323 129.634 63.7666C129.5 63.9008 129.425 64.0835 129.423 64.2746Z" fill="#006095"/>
<path d="M130.688 57.319H129.554V62.6536H130.688V57.319Z" fill="#006095"/>
<path d="M134.602 61.9851C134.345 61.7248 134.142 61.4138 134.007 61.0714C133.871 60.7288 133.805 60.3619 133.814 59.9927C133.803 59.6229 133.868 59.2549 134.003 58.9115C134.139 58.5682 134.343 58.257 134.602 57.9971C134.861 57.7311 135.171 57.5218 135.512 57.3822C135.854 57.2428 136.22 57.1759 136.588 57.1859C137.066 57.1729 137.538 57.2946 137.951 57.5375C138.365 57.7802 138.704 58.1348 138.932 58.5618L137.955 59.1362C137.828 58.879 137.63 58.6648 137.386 58.5192C137.142 58.3734 136.861 58.3026 136.579 58.3151C136.362 58.3104 136.147 58.3505 135.946 58.4332C135.745 58.5157 135.563 58.639 135.41 58.7954C135.113 59.1202 134.947 59.5475 134.947 59.9911C134.947 60.4348 135.113 60.8621 135.41 61.1869C135.563 61.3434 135.745 61.4667 135.946 61.5493C136.147 61.6318 136.362 61.6719 136.579 61.6671C136.864 61.6754 137.145 61.603 137.392 61.4582C137.639 61.3132 137.842 61.1013 137.977 60.8462L138.954 61.4108C138.721 61.8383 138.377 62.193 137.96 62.4372C137.543 62.6812 137.069 62.8054 136.588 62.7964C136.22 62.8063 135.854 62.7395 135.512 62.6C135.171 62.4605 134.861 62.2512 134.602 61.9851Z" fill="#006095"/>
<path d="M144.222 57.319H143.086V60.1778C143.086 61.2129 142.549 61.7126 141.751 61.7126C141.026 61.7126 140.573 61.2745 140.573 60.4763V57.319H139.439V60.6094C139.439 61.9755 140.247 62.8062 141.457 62.8062C141.776 62.8293 142.095 62.7655 142.381 62.6211C142.668 62.4768 142.911 62.2572 143.086 61.9851V62.6536H144.222V57.319Z" fill="#006095"/>
<path fill-rule="evenodd" clip-rule="evenodd" d="M149.743 57.9907C150.212 58.4544 150.508 59.0695 150.581 59.7308C150.653 60.3922 150.497 61.0586 150.139 61.6158C149.781 62.173 149.244 62.5864 148.619 62.7853C147.994 62.9841 147.321 62.9561 146.714 62.7059C146.108 62.4555 145.605 61.9988 145.294 61.4136C144.982 60.8285 144.88 60.1515 145.006 59.4984C145.131 58.8453 145.476 58.2568 145.981 57.8338C146.487 57.4108 147.121 57.1794 147.776 57.1794C148.141 57.1702 148.504 57.2374 148.842 57.377C149.181 57.5166 149.487 57.7254 149.743 57.9907ZM147.766 61.6606C147.983 61.6654 148.198 61.6253 148.399 61.5426C148.425 61.5321 148.45 61.5209 148.475 61.5092C148.52 61.4878 148.564 61.4643 148.607 61.439C148.726 61.3678 148.837 61.281 148.935 61.1804C149.238 60.8548 149.408 60.4234 149.408 59.9748C149.408 59.5264 149.238 59.095 148.935 58.7694C148.621 58.4617 148.202 58.2898 147.766 58.2898C147.33 58.2898 146.911 58.4617 146.598 58.7694C146.294 59.095 146.125 59.5264 146.125 59.9748C146.125 60.4234 146.294 60.8548 146.598 61.1804C146.672 61.2569 146.754 61.3255 146.842 61.3853C146.933 61.4477 147.031 61.5005 147.133 61.5426C147.334 61.6253 147.55 61.6654 147.766 61.6606Z" fill="#006095"/>
<path d="M147.766 55.8781L147.252 56.6147H146.179L147.211 55.226H148.315L149.353 56.6147H148.283L147.766 55.8781Z" fill="#006095"/>
<path d="M147.262 64.7758C147.131 64.6405 147.059 64.4587 147.059 64.2695C147.059 64.0802 147.131 63.8985 147.262 63.7633C147.36 63.6627 147.486 63.5943 147.623 63.5664C147.643 63.5624 147.662 63.5592 147.682 63.5569C147.707 63.554 147.731 63.5526 147.756 63.5524C147.774 63.5523 147.792 63.5529 147.81 63.5542C147.886 63.5594 147.96 63.5772 148.031 63.6068C148.16 63.661 148.27 63.7529 148.348 63.8709C148.426 63.9888 148.467 64.1276 148.467 64.2695C148.467 64.4115 148.426 64.5501 148.348 64.6682C148.323 64.7057 148.295 64.7406 148.265 64.7724C148.239 64.7992 148.211 64.8238 148.181 64.8461C148.15 64.8697 148.116 64.8906 148.082 64.9085C148.065 64.9171 148.048 64.925 148.031 64.9323C147.902 64.9865 147.76 65.0006 147.623 64.9727C147.486 64.9448 147.36 64.8762 147.262 64.7758Z" fill="#006095"/>
<path d="M151.209 61.0714C151.345 61.4138 151.548 61.7248 151.805 61.9851C152.066 62.2516 152.378 62.4606 152.722 62.5991C153.066 62.7376 153.434 62.8025 153.804 62.7899C154.285 62.7997 154.759 62.6758 155.176 62.4316C155.593 62.1875 155.937 61.8322 156.17 61.4043L155.193 60.8398C155.057 61.0948 154.855 61.3067 154.608 61.4517C154.361 61.5966 154.079 61.6689 153.794 61.6606C153.578 61.6654 153.362 61.6253 153.161 61.5428C153.072 61.506 152.986 61.4613 152.905 61.4092C152.804 61.3441 152.71 61.2674 152.626 61.1804C152.33 60.8545 152.166 60.4276 152.166 59.9846C152.166 59.5416 152.33 59.1148 152.626 58.7889C152.778 58.6325 152.96 58.5092 153.161 58.4267C153.362 58.3441 153.578 58.3039 153.794 58.3086C154.077 58.2958 154.358 58.3665 154.602 58.5121C154.846 58.6578 155.044 58.8724 155.17 59.1297L156.135 58.5618C155.907 58.1347 155.568 57.7799 155.154 57.537C154.741 57.2941 154.269 57.1726 153.791 57.1859C153.423 57.1759 153.057 57.2428 152.715 57.3824C152.374 57.5218 152.064 57.7311 151.805 57.9971C151.546 58.257 151.342 58.5682 151.206 58.9115C151.071 59.2549 151.006 59.6229 151.016 59.9927C151.008 60.3619 151.074 60.7288 151.209 61.0714Z" fill="#006095"/>
<path d="M161.122 59.4835C161.929 59.6651 162.983 60.0059 162.961 61.1481C162.963 61.21 162.961 61.2718 162.955 61.3333C162.951 61.3797 162.944 61.426 162.935 61.4718C162.927 61.5109 162.918 61.5497 162.907 61.5882C162.902 61.6076 162.896 61.6267 162.89 61.6459C162.88 61.6738 162.87 61.7015 162.859 61.7289C162.846 61.7616 162.832 61.7937 162.817 61.8254C162.753 61.9549 162.671 62.0731 162.574 62.1765C162.513 62.241 162.446 62.2998 162.373 62.3519C161.945 62.6547 161.432 62.8084 160.911 62.79C159.87 62.79 159.104 62.3228 158.765 61.5439L159.742 60.9663C159.822 61.2107 159.981 61.4201 160.193 61.5599C160.406 61.6998 160.659 61.7617 160.911 61.7354C161.511 61.7354 161.805 61.5309 161.805 61.1383C161.805 60.7943 161.361 60.5932 160.806 60.4536C160.017 60.2524 158.954 59.9312 158.976 58.8117C158.969 58.5845 159.014 58.3587 159.109 58.1527C159.204 57.9469 159.345 57.7668 159.522 57.6273C159.779 57.4372 160.071 57.3029 160.381 57.2323C160.69 57.162 161.011 57.1571 161.323 57.2179C161.634 57.2788 161.931 57.4041 162.193 57.5861C162.455 57.7684 162.677 58.0032 162.846 58.2763L161.888 58.8182C161.807 58.6251 161.668 58.4625 161.491 58.3536C161.314 58.2449 161.108 58.195 160.901 58.2114C160.47 58.2114 160.132 58.4029 160.132 58.776C160.132 59.1492 160.576 59.3244 161.122 59.4835Z" fill="#006095"/>
<path d="M174.506 59.3892V62.6666H173.369V59.5061C173.369 58.7079 172.916 58.2698 172.191 58.2698C171.393 58.2698 170.857 58.7696 170.857 59.8047V62.6666H169.72V57.319H170.857V58.0005C171.031 57.7284 171.274 57.5088 171.561 57.3645C171.633 57.3282 171.707 57.297 171.783 57.2708C171.828 57.2553 171.874 57.2417 171.92 57.23C172.017 57.2051 172.116 57.1885 172.216 57.1804C172.305 57.1732 172.395 57.1729 172.485 57.1794C173.689 57.1794 174.506 58.0101 174.506 59.3892Z" fill="#006095"/>
<path fill-rule="evenodd" clip-rule="evenodd" d="M180.764 57.319H179.65L179.646 58.1011C179.444 57.8013 179.17 57.5589 178.85 57.3965C178.53 57.2341 178.174 57.1572 177.817 57.1731C177.464 57.1656 177.114 57.2341 176.79 57.3738C176.465 57.5137 176.173 57.7218 175.933 57.9843C175.683 58.2394 175.486 58.5435 175.354 58.8781C175.222 59.2127 175.159 59.5709 175.167 59.9312C175.161 60.2912 175.226 60.6487 175.358 60.9828C175.489 61.3171 175.685 61.6215 175.933 61.8782C176.176 62.1366 176.468 62.341 176.792 62.4785C177.117 62.6159 177.466 62.6832 177.817 62.6764C178.174 62.6923 178.53 62.6154 178.85 62.453C179.17 62.2906 179.444 62.0482 179.646 61.7484V62.3974C179.646 63.3254 179.056 63.8706 178.079 63.8706C177.332 63.8706 176.817 63.5914 176.543 63.0495L175.566 63.6239C176.019 64.4936 176.849 64.9218 178.06 64.9218C178.754 64.9432 179.433 64.7132 179.975 64.2729C180.24 64.0453 180.449 63.7584 180.586 63.4346C180.723 63.1107 180.784 62.759 180.764 62.4071V57.319ZM178.223 61.5946C178.141 61.6046 178.059 61.6084 177.976 61.6057C177.755 61.6109 177.536 61.5711 177.33 61.4887C177.203 61.4376 177.082 61.3707 176.971 61.2897C176.903 61.2401 176.839 61.1852 176.779 61.1254C176.476 60.8039 176.307 60.3762 176.307 59.9312C176.307 59.4862 176.476 59.0584 176.779 58.7371C176.937 58.5797 177.124 58.4562 177.33 58.3738C177.426 58.3351 177.526 58.3058 177.627 58.2861C177.742 58.2638 177.859 58.254 177.976 58.2568C178.196 58.2494 178.415 58.2882 178.62 58.3709C178.824 58.4535 179.01 58.5782 179.164 58.7371C179.475 59.0541 179.65 59.4835 179.65 59.9312C179.65 60.379 179.475 60.8084 179.164 61.1254C179.01 61.2842 178.824 61.4089 178.62 61.4916C178.492 61.5432 178.358 61.5778 178.223 61.5946Z" fill="#006095"/>
<path d="M146.55 29.7247L139.988 36.714L146.55 45.4364H140.448L135.758 38.3624V45.4364H131.013V22.6377H131.652C132.192 22.6357 132.726 22.742 133.225 22.9506C133.724 23.1595 134.177 23.4665 134.559 23.8541C134.941 24.2416 135.243 24.7021 135.449 25.2089C135.655 25.7159 135.76 26.2591 135.758 26.8074V35.3284L140.736 29.7247H146.55Z" fill="#006095"/>
<path d="M12.3869 44.7226C11.7548 45.1873 10.997 45.4421 10.217 45.4526H8.80256L0 22.6929H5.67681L11.2578 37.1521L16.8452 22.7059H21.5387C21.5387 22.7059 15.6639 37.8076 13.7482 42.8567C13.4944 43.6062 13.019 44.2579 12.3869 44.7226Z" fill="#006095"/>
<path d="M51.9373 29.718V33.3847H49.431V39.0957C49.4301 39.3903 49.4865 39.6821 49.5968 39.9545C49.7072 40.227 49.8693 40.4745 50.074 40.6831C50.2786 40.8917 50.5218 41.0572 50.7895 41.1702C51.0572 41.283 51.3442 41.3412 51.634 41.3412L51.9341 41.3217V45.4136L50.3888 45.4622C48.9647 45.4953 47.5856 44.9543 46.553 43.957C45.5204 42.9598 44.9182 41.5877 44.878 40.1406V33.3847H42.5984V29.718H44.878V25.7982H49.4374V29.718H51.9373Z" fill="#006095"/>
<path fill-rule="evenodd" clip-rule="evenodd" d="M30.0602 39.0244H41.7459C41.8122 38.6122 41.8517 38.1959 41.864 37.7784C41.8996 36.6674 41.7153 35.5604 41.3221 34.5231C40.9288 33.4858 40.3347 32.5392 39.5748 31.7397C38.829 30.9409 37.9311 30.3049 36.9356 29.8701C35.9402 29.4355 34.8681 29.2113 33.7846 29.2113C32.7012 29.2113 31.6291 29.4355 30.6337 29.8701C29.6382 30.3049 28.7403 30.9409 27.9945 31.7397C26.5078 33.3257 25.683 35.4351 25.6932 37.6257C25.7033 39.8162 26.5475 41.9177 28.0488 43.4895C28.7937 44.2801 29.6911 44.9061 30.6849 45.3282C31.6787 45.7503 32.7476 45.9594 33.8246 45.9426C35.4915 45.9575 37.1187 45.425 38.4637 44.424C39.7696 43.4334 40.7672 42.0816 41.3372 40.5301H36.9918C36.6679 41.1143 36.1986 41.6015 35.6309 41.9432C35.0632 42.285 34.4172 42.4689 33.7575 42.477C32.8261 42.4824 31.9272 42.1294 31.2414 41.489C30.5556 40.8486 30.1336 39.9681 30.0602 39.0244ZM36.1161 33.6675C36.7774 34.23 37.223 35.0109 37.375 35.8736H30.1401C30.292 35.0109 30.7376 34.23 31.3989 33.6675C32.0602 33.105 32.8951 32.7967 33.7575 32.7967C34.6199 32.7967 35.4548 33.105 36.1161 33.6675Z" fill="#006095"/>
<path d="M19.3899 33.8812C19.3882 33.3332 19.4932 32.7902 19.6988 32.2835C19.9043 31.7768 20.2065 31.3165 20.5878 30.929C20.9691 30.5414 21.4221 30.2344 21.9206 30.0254C22.4191 29.8166 22.9534 29.7098 23.4926 29.7115H23.946V45.4622H19.3995L19.3899 33.8812Z" fill="#006095"/>
<path d="M54.0887 32.2827C53.883 32.7897 53.7779 33.3329 53.7796 33.8812L53.7923 45.4622H58.3325V29.7115H57.8855C57.346 29.7095 56.8114 29.8158 56.3125 30.0244C55.8136 30.2333 55.3602 30.5403 54.9786 30.9279C54.597 31.3154 54.2945 31.7759 54.0887 32.2827Z" fill="#006095"/>
<path d="M70.3598 45.4589V35.9384C70.3619 35.606 70.2992 35.2765 70.1751 34.9688C70.0511 34.6612 69.8683 34.3816 69.6374 34.1463C69.4064 33.9109 69.1317 33.7244 68.8294 33.5976C68.527 33.4707 68.2029 33.4061 67.8758 33.4073C67.5351 33.395 67.1956 33.4533 66.8779 33.5788C66.5601 33.7044 66.271 33.8944 66.028 34.1374C65.785 34.3803 65.5934 34.6712 65.4648 34.9921C65.3362 35.3128 65.2733 35.6569 65.2801 36.0032V45.4459H60.6633V29.744H64.9799V31.4151H65.0502C65.7567 30.4804 66.7335 29.7941 67.8434 29.4525C68.9532 29.1107 70.1406 29.1308 71.2386 29.5098C72.3367 29.8888 73.2905 30.6078 73.966 31.5658C74.6416 32.5239 75.005 33.6727 75.0053 34.8514V45.4589H70.3598Z" fill="#006095"/>
<path fill-rule="evenodd" clip-rule="evenodd" d="M107.502 31.4021V29.731H112.067V45.4362H107.495V43.736H107.441C107.022 44.5235 106.344 45.1358 105.525 45.4654C104.723 45.8108 103.859 45.9841 102.987 45.9749C100.686 45.9749 98.8183 45.1604 97.3837 43.5315C96.0044 41.9415 95.3148 39.9567 95.3148 37.5772C95.3148 35.2278 96.0182 33.2571 97.4252 31.665C98.1172 30.8636 98.9742 30.2268 99.9353 29.7995C100.896 29.3721 101.938 29.1649 102.987 29.1923C103.856 29.182 104.717 29.3601 105.513 29.7148C106.317 30.0555 106.994 30.6462 107.447 31.4021H107.502ZM105.173 41.2917C105.631 41.0937 106.045 40.8036 106.391 40.4391V40.4358C107.091 39.6633 107.468 38.6437 107.441 37.5934C107.458 37.0686 107.373 36.5458 107.19 36.0546C107.008 35.5634 106.732 35.1138 106.378 34.7314C106.033 34.3608 105.615 34.0685 105.151 33.8735C104.687 33.6783 104.188 33.5848 103.686 33.5989C103.183 33.5861 102.684 33.6857 102.223 33.8909C101.762 34.0962 101.352 34.4019 101.02 34.7866C100.33 35.5715 99.963 36.5961 99.9954 37.6485C99.9734 38.6849 100.356 39.688 101.059 40.4391C101.404 40.8036 101.818 41.0937 102.276 41.2917C102.734 41.4898 103.227 41.5918 103.725 41.5918C104.222 41.5918 104.715 41.4898 105.173 41.2917Z" fill="#006095"/>
<path d="M124.088 45.4589V35.9384C124.09 35.606 124.028 35.2765 123.904 34.9688C123.78 34.6612 123.597 34.3816 123.366 34.1463C123.135 33.9109 122.86 33.7244 122.558 33.5976C122.256 33.4707 121.931 33.4061 121.604 33.4073C121.264 33.395 120.924 33.4533 120.606 33.5788C120.289 33.7044 119.999 33.8944 119.757 34.1374C119.514 34.3803 119.322 34.6712 119.193 34.9921C119.065 35.3128 119.002 35.6569 119.009 36.0032V45.4459H114.379V29.744H118.696V31.4151H118.772C119.479 30.4804 120.456 29.7941 121.565 29.4525C122.675 29.1107 123.863 29.1308 124.961 29.5098C126.059 29.8888 127.013 30.6078 127.688 31.5658C128.364 32.5239 128.727 33.6727 128.727 34.8514V45.4589H124.088Z" fill="#006095"/>
<path fill-rule="evenodd" clip-rule="evenodd" d="M90.3755 33.2484C93.364 31.5968 93.182 28.7802 92.8755 27.2227C92.4923 25.2758 90.4585 22.6799 85.8705 22.7155H77.3169V45.4591H86.0237C91.6494 45.4591 94.2164 42.146 94.1462 38.5637C94.1143 36.9671 93.6673 34.2933 90.3755 33.2484ZM82.534 26.9404H85.9024C86.2165 26.9279 86.5299 26.9792 86.8242 27.0914C87.1185 27.2035 87.3877 27.3745 87.6162 27.5939C87.8446 27.8134 88.0276 28.077 88.1543 28.3694C88.2811 28.6617 88.3492 28.9768 88.3544 29.2962C88.3544 30.7401 87.0773 31.6618 85.9024 31.6553H82.534V26.9404ZM86.8059 41.2699H82.5116V35.8443H86.7197C87.0759 35.8274 87.4318 35.8833 87.7663 36.0088C88.1007 36.1343 88.407 36.3268 88.667 36.5747C88.9269 36.8227 89.1352 37.1214 89.2794 37.4527C89.4237 37.7841 89.501 38.1416 89.5068 38.5038C89.5125 38.8661 89.4467 39.226 89.313 39.5619C89.1794 39.8979 88.9808 40.2031 88.7289 40.4596C88.477 40.7159 88.177 40.9184 87.8467 41.0549C87.5164 41.1913 87.1625 41.2588 86.8059 41.2537V41.2699Z" fill="#006095"/>
</svg>
