<svg width="202" height="50" viewBox="0 0 202 50" fill="none" xmlns="http://www.w3.org/2000/svg">
<path fill-rule="evenodd" clip-rule="evenodd" d="M175.899 14.071H187.729V24.3365C192.05 24.988 196.228 26.3549 200.086 28.3794C201.531 25.3442 202.175 21.9983 201.959 18.652C201.744 15.3056 200.675 12.0672 198.853 9.23687C197.03 6.40656 194.513 4.07602 191.535 2.46131C188.556 0.8466 185.213 0 181.814 0C178.416 0 175.072 0.8466 172.094 2.46131C169.115 4.07602 166.598 6.40656 164.776 9.23687C162.953 12.0672 161.885 15.3056 161.669 18.652C161.453 21.9983 162.098 25.3442 163.542 28.3794C167.401 26.3554 171.579 24.9886 175.899 24.3365V14.071Z" fill="white"/>
<path fill-rule="evenodd" clip-rule="evenodd" d="M181.814 39.7628C185.163 39.7644 188.46 38.944 191.408 37.3753C194.356 35.8067 196.862 33.5391 198.7 30.7769C193.493 28.0743 187.698 26.6621 181.814 26.6621C175.93 26.6621 170.135 28.0743 164.928 30.7769C166.765 33.5405 169.271 35.809 172.219 37.3779C175.167 38.9467 178.465 39.7663 181.814 39.7628Z" fill="white"/>
<path d="M163.553 32.2046L156.23 39.777L163.553 49.227H156.743L151.509 41.5629V49.227H146.214V24.5264H146.927C147.529 24.5242 148.125 24.6394 148.682 24.8654C149.239 25.0917 149.745 25.4244 150.171 25.8442C150.597 26.2641 150.934 26.763 151.164 27.3121C151.393 27.8614 151.511 28.4499 151.509 29.044V38.2758L157.064 32.2046H163.553Z" fill="white"/>
<path d="M13.824 48.4537C13.1187 48.9572 12.2729 49.2332 11.4024 49.2445H9.82385L0 24.5861H6.33545L12.564 40.2516L18.7996 24.6002H24.0376C24.0376 24.6002 17.4812 40.9618 15.3433 46.4321C15.06 47.2442 14.5294 47.9502 13.824 48.4537Z" fill="white"/>
<path d="M57.9632 32.1974V36.1699H55.1661V42.3574C55.1651 42.6765 55.228 42.9927 55.3512 43.2878C55.4743 43.583 55.6552 43.8512 55.8836 44.0772C56.112 44.3031 56.3834 44.4825 56.6822 44.6049C56.9809 44.7271 57.3012 44.7901 57.6247 44.7901L57.9596 44.769V49.2023L56.235 49.255C54.6457 49.2909 53.1066 48.7047 51.9542 47.6242C50.8017 46.5438 50.1297 45.0572 50.0849 43.4895V36.1699H47.5407V32.1974H50.0849V27.9505H55.1732V32.1974H57.9632Z" fill="white"/>
<path fill-rule="evenodd" clip-rule="evenodd" d="M33.5479 42.2801H46.5893C46.6634 41.8335 46.7074 41.3825 46.7212 40.9302C46.7609 39.7265 46.5552 38.5271 46.1163 37.4033C45.6775 36.2794 45.0144 35.2539 44.1663 34.3877C43.3341 33.5222 42.3319 32.8332 41.221 32.3621C40.11 31.8913 38.9135 31.6484 37.7044 31.6484C36.4953 31.6484 35.2988 31.8913 34.1878 32.3621C33.0769 32.8332 32.0748 33.5222 31.2425 34.3877C29.5833 36.106 28.6628 38.3914 28.6741 40.7647C28.6854 43.1379 29.6276 45.4148 31.303 47.1177C32.1344 47.9743 33.1359 48.6525 34.245 49.1098C35.3542 49.5671 36.547 49.7937 37.7489 49.7755C39.6093 49.7916 41.4253 49.2147 42.9263 48.1301C44.3838 47.0569 45.4971 45.5923 46.1333 43.9114H41.2837C40.9222 44.5443 40.3984 45.0722 39.7649 45.4424C39.1314 45.8127 38.4104 46.012 37.6741 46.0208C36.6347 46.0266 35.6315 45.6441 34.8661 44.9503C34.1007 44.2565 33.6298 43.3025 33.5479 42.2801ZM40.3064 36.4763C41.0444 37.0857 41.5417 37.9318 41.7113 38.8665H33.637C33.8065 37.9318 34.3038 37.0857 35.0419 36.4763C35.7799 35.8669 36.7117 35.5329 37.6741 35.5329C38.6365 35.5329 39.5683 35.8669 40.3064 36.4763Z" fill="white"/>
<path d="M21.6395 36.7079C21.6376 36.1141 21.7548 35.5258 21.9842 34.9769C22.2137 34.4279 22.5509 33.9292 22.9764 33.5094C23.402 33.0895 23.9075 32.7568 24.4639 32.5304C25.0202 32.3041 25.6165 32.1884 26.2183 32.1903H26.7243V49.255H21.6502L21.6395 36.7079Z" fill="white"/>
<path d="M60.3642 34.976C60.1346 35.5253 60.0173 36.1138 60.0192 36.7079L60.0334 49.255H65.1004V32.1903H64.6015C63.9994 32.1881 63.4028 32.3033 62.846 32.5293C62.2892 32.7556 61.7833 33.0883 61.3573 33.5082C60.9314 33.928 60.5939 34.4269 60.3642 34.976Z" fill="white"/>
<path d="M78.5231 49.2514V38.9367C78.5254 38.5766 78.4554 38.2195 78.317 37.8862C78.1786 37.553 77.9746 37.25 77.7168 36.9951C77.459 36.74 77.1525 36.5379 76.8151 36.4006C76.4776 36.2631 76.1159 36.1931 75.7509 36.1945C75.3707 36.1811 74.9918 36.2442 74.6372 36.3802C74.2826 36.5163 73.9599 36.7221 73.6887 36.9855C73.4175 37.2486 73.2037 37.5638 73.0601 37.9114C72.9166 38.2588 72.8465 38.6317 72.854 39.0069V49.2373H67.7015V32.2255H72.519V34.036H72.5974C73.3859 33.0234 74.476 32.2798 75.7147 31.9097C76.9533 31.5394 78.2784 31.5612 79.5039 31.9718C80.7294 32.3824 81.7938 33.1614 82.5477 34.1993C83.3016 35.2373 83.7072 36.482 83.7076 37.759V49.2514H78.5231Z" fill="white"/>
<path fill-rule="evenodd" clip-rule="evenodd" d="M119.974 34.0219V32.2114H125.07V49.2269H119.967V47.3848H119.907C119.439 48.2379 118.682 48.9014 117.769 49.2584C116.873 49.6327 115.909 49.8205 114.936 49.8105C112.368 49.8105 110.283 48.928 108.682 47.1632C107.143 45.4406 106.373 43.2902 106.373 40.7122C106.373 38.1668 107.158 36.0317 108.729 34.3067C109.501 33.4385 110.457 32.7486 111.53 32.2856C112.603 31.8226 113.765 31.5981 114.936 31.6278C115.905 31.6166 116.866 31.8096 117.754 32.1939C118.652 32.563 119.408 33.2029 119.914 34.0219H119.974ZM117.376 44.7366C117.887 44.522 118.349 44.2077 118.734 43.8129V43.8093C119.516 42.9723 119.937 41.8676 119.907 40.7297C119.926 40.1612 119.831 39.5947 119.627 39.0625C119.423 38.5304 119.115 38.0432 118.72 37.629C118.335 37.2275 117.868 36.9108 117.351 36.6995C116.833 36.488 116.276 36.3867 115.716 36.402C115.155 36.3881 114.597 36.4961 114.083 36.7184C113.569 36.9408 113.111 37.272 112.741 37.6888C111.97 38.5392 111.561 39.6493 111.597 40.7894C111.573 41.9123 111.999 42.999 112.784 43.8129C113.169 44.2077 113.631 44.522 114.142 44.7366C114.654 44.9512 115.203 45.0617 115.759 45.0617C116.315 45.0617 116.864 44.9512 117.376 44.7366Z" fill="white"/>
<path d="M138.485 49.2514V38.9367C138.488 38.5766 138.418 38.2195 138.279 37.8862C138.141 37.553 137.937 37.25 137.679 36.9951C137.421 36.74 137.115 36.5379 136.777 36.4006C136.44 36.2631 136.078 36.1931 135.713 36.1945C135.333 36.1811 134.954 36.2442 134.599 36.3802C134.245 36.5163 133.922 36.7221 133.651 36.9855C133.38 37.2486 133.166 37.5638 133.022 37.9114C132.879 38.2588 132.809 38.6317 132.816 39.0069V49.2373H127.649V32.2255H132.467V34.036H132.552C133.341 33.0234 134.431 32.2798 135.67 31.9097C136.908 31.5394 138.233 31.5612 139.459 31.9718C140.684 32.3824 141.749 33.1614 142.503 34.1993C143.257 35.2373 143.662 36.482 143.663 37.759V49.2514H138.485Z" fill="white"/>
<path fill-rule="evenodd" clip-rule="evenodd" d="M100.861 36.0223C104.196 34.2329 103.993 31.1813 103.651 29.4939C103.223 27.3845 100.954 24.5721 95.8333 24.6107H86.2874V49.2516H96.0043C102.283 49.2516 105.148 45.6622 105.069 41.7809C105.034 40.0511 104.535 37.1544 100.861 36.0223ZM92.1097 29.188H95.8689C96.2195 29.1744 96.5692 29.23 96.8977 29.3516C97.2261 29.4731 97.5266 29.6583 97.7816 29.8961C98.0365 30.1338 98.2407 30.4195 98.3822 30.7362C98.5237 31.0529 98.5996 31.3943 98.6055 31.7404C98.6055 33.3047 97.1802 34.3033 95.8689 34.2962H92.1097V29.188ZM96.8773 44.7129H92.0848V38.8348H96.7811C97.1786 38.8164 97.5758 38.877 97.9491 39.0129C98.3224 39.1489 98.6642 39.3575 98.9543 39.6261C99.2444 39.8948 99.4768 40.2183 99.6378 40.5773C99.7988 40.9364 99.8851 41.3236 99.8915 41.7161C99.898 42.1086 99.8244 42.4985 99.6753 42.8624C99.5262 43.2265 99.3045 43.5571 99.0234 43.835C98.7423 44.1128 98.4074 44.3322 98.0388 44.48C97.6702 44.6278 97.2752 44.7009 96.8773 44.6954V44.7129Z" fill="white"/>
</svg>
