<svg width="10" height="17" viewBox="0 0 10 17" fill="none" xmlns="http://www.w3.org/2000/svg">
<g clip-path="url(#clip0_1516_35571)">
<path d="M6.62109 7.39021C6.62109 7.39021 6.7327 7.2786 6.95592 7.05538C7.17913 6.83217 7.29074 6.40509 7.29074 5.77413C7.29074 5.14318 7.06752 4.60449 6.62109 4.15806C6.17467 3.71163 5.63597 3.48842 5.00502 3.48842C4.37407 3.48842 3.83538 3.71163 3.38895 4.15806C2.94252 4.60449 2.71931 5.14318 2.71931 5.77413C2.71931 6.40509 2.94252 6.94378 3.38895 7.39021C3.83538 7.83663 4.37407 8.05985 5.00502 8.05985C5.63597 8.05985 6.17467 7.83663 6.62109 7.39021ZM9.57645 5.77413C9.57645 6.42294 9.47824 6.95568 9.28181 7.37235L6.03181 14.2831C5.93657 14.4795 5.7952 14.6343 5.6077 14.7473C5.4202 14.8604 5.21931 14.917 5.00502 14.917C4.79074 14.917 4.58984 14.8604 4.40234 14.7473C4.21484 14.6343 4.07645 14.4795 3.98717 14.2831L0.728237 7.37235C0.531808 6.95568 0.433594 6.42294 0.433594 5.77413C0.433594 4.51223 0.880022 3.43485 1.77288 2.54199C2.66574 1.64913 3.74312 1.20271 5.00502 1.20271C6.26693 1.20271 7.34431 1.64913 8.23717 2.54199C9.13002 3.43485 9.57645 4.51223 9.57645 5.77413Z" fill="white"/>
</g>
<defs>
<clipPath id="clip0_1516_35571">
<rect width="9.15" height="16" fill="white" transform="matrix(1 0 0 -1 0.429932 16.0601)"/>
</clipPath>
</defs>
</svg>
