<svg width="14" height="17" viewBox="0 0 14 17" fill="none" xmlns="http://www.w3.org/2000/svg">
<g clip-path="url(#clip0_1516_35583)">
<path d="M12.78 11.1309C12.78 11.2916 12.7502 11.5014 12.6907 11.7603C12.6312 12.0192 12.5687 12.223 12.5032 12.3718C12.3782 12.6694 12.0152 12.9848 11.414 13.3181C10.8546 13.6217 10.3011 13.7734 9.75352 13.7734C9.59282 13.7734 9.4351 13.763 9.28036 13.7422C9.12561 13.7214 8.9545 13.6842 8.76702 13.6306C8.57955 13.577 8.43968 13.5339 8.34743 13.5011C8.25518 13.4684 8.09002 13.4074 7.85195 13.3181C7.61388 13.2289 7.46806 13.1753 7.4145 13.1574C6.83123 12.9491 6.31046 12.7021 5.85218 12.4164C5.09631 11.9463 4.31069 11.3035 3.4953 10.4881C2.67992 9.67271 2.03713 8.88709 1.56695 8.13122C1.28127 7.67294 1.03427 7.15217 0.825962 6.5689C0.808107 6.51533 0.754542 6.36952 0.665266 6.13145C0.575991 5.89338 0.514986 5.72822 0.482251 5.63597C0.449517 5.54372 0.406367 5.40385 0.352802 5.21637C0.299237 5.0289 0.262038 4.85778 0.241207 4.70304C0.220376 4.5483 0.209961 4.39058 0.209961 4.22988C0.209961 3.68232 0.361729 3.12881 0.665266 2.56935C0.998562 1.96823 1.314 1.60518 1.61159 1.48019C1.76038 1.41472 1.96423 1.35223 2.22312 1.29271C2.48202 1.2332 2.69182 1.20344 2.85252 1.20344C2.93584 1.20344 2.99833 1.21237 3.04 1.23022C3.14713 1.26593 3.30485 1.49209 3.51316 1.90871C3.57863 2.0218 3.6679 2.18249 3.78098 2.3908C3.89407 2.59911 3.99822 2.78808 4.09345 2.9577C4.18868 3.12733 4.28093 3.28653 4.3702 3.43533C4.38806 3.45913 4.44014 3.53353 4.52643 3.65852C4.61273 3.7835 4.67671 3.88914 4.71838 3.97544C4.76004 4.06174 4.78087 4.14656 4.78087 4.22988C4.78087 4.34891 4.69606 4.49771 4.52643 4.67626C4.35681 4.85481 4.17231 5.01848 3.97293 5.16727C3.77354 5.31607 3.58904 5.47379 3.41942 5.64043C3.24979 5.80708 3.16498 5.94397 3.16498 6.0511C3.16498 6.10467 3.17986 6.17162 3.20962 6.25197C3.23938 6.33232 3.26467 6.39332 3.2855 6.43499C3.30634 6.47665 3.348 6.54807 3.41049 6.64925C3.47298 6.75043 3.50721 6.80697 3.51316 6.81887C3.96549 7.63425 4.48328 8.33358 5.06655 8.91685C5.64982 9.50011 6.34914 10.0179 7.16453 10.4702C7.17643 10.4762 7.23297 10.5104 7.33415 10.5729C7.43533 10.6354 7.50675 10.6771 7.54841 10.6979C7.59007 10.7187 7.65108 10.744 7.73143 10.7738C7.81178 10.8035 7.87873 10.8184 7.9323 10.8184C8.03943 10.8184 8.17632 10.7336 8.34297 10.564C8.50961 10.3944 8.66733 10.2099 8.81613 10.0105C8.96492 9.81109 9.12859 9.62659 9.30714 9.45696C9.48569 9.28734 9.63449 9.20253 9.75352 9.20253C9.83684 9.20253 9.92165 9.22336 10.008 9.26502C10.0943 9.30668 10.1999 9.37066 10.3249 9.45696C10.4499 9.54326 10.5243 9.59534 10.5481 9.6132C10.6969 9.70247 10.8561 9.79472 11.0257 9.88995C11.1953 9.98518 11.3843 10.0893 11.5926 10.2024C11.8009 10.3155 11.9616 10.4048 12.0747 10.4702C12.4913 10.6786 12.7175 10.8363 12.7532 10.9434C12.771 10.9851 12.78 11.0476 12.78 11.1309Z" fill="white"/>
</g>
<defs>
<clipPath id="clip0_1516_35583">
<rect width="12.57" height="16" fill="white" transform="matrix(1 0 0 -1 0.709961 16.0601)"/>
</clipPath>
</defs>
</svg>
