<svg width="72" height="72" viewBox="0 0 72 72" fill="none" xmlns="http://www.w3.org/2000/svg">
<path opacity="0.4" d="M54 56.5802H51.72C49.32 56.5802 47.04 57.5102 45.36 59.1902L40.23 64.2602C37.89 66.5702 34.08 66.5702 31.74 64.2602L26.61 59.1902C24.93 57.5102 22.62 56.5802 20.25 56.5802H18C13.02 56.5802 9 52.5903 9 47.6703V14.9402C9 10.0202 13.02 6.03027 18 6.03027H54C58.98 6.03027 63 10.0202 63 14.9402V47.6703C63 52.5603 58.98 56.5802 54 56.5802Z" fill="#4CB8E9"/>
<path d="M31.14 43.5298H23.1C21.78 43.5298 20.55 42.8998 19.77 41.8198C19.02 40.7998 18.84 39.5399 19.2 38.3399C20.25 35.1299 22.83 33.3898 25.11 31.8298C27.51 30.2098 28.86 29.1899 28.86 27.4499C28.86 25.8899 27.6 24.6299 26.04 24.6299C24.48 24.6299 23.22 25.8899 23.22 27.4499C23.22 28.6799 22.2 29.6999 20.97 29.6999C19.74 29.6999 18.72 28.6799 18.72 27.4499C18.72 23.4299 21.99 20.1299 26.04 20.1299C30.09 20.1299 33.36 23.3999 33.36 27.4499C33.36 31.6799 30.18 33.8398 27.63 35.5798C26.04 36.6598 24.54 37.6798 23.79 39.0298H31.11C32.34 39.0298 33.36 40.0498 33.36 41.2798C33.36 42.5098 32.37 43.5298 31.14 43.5298Z" fill="#4CB8E9"/>
<path d="M48.12 43.5298C46.89 43.5298 45.87 42.5098 45.87 41.2798V39.2098H39.99C39.99 39.2098 39.99 39.2098 39.96 39.2098C38.49 39.2098 37.14 38.4299 36.39 37.1699C35.64 35.8799 35.64 34.2898 36.39 33.0298C38.43 29.5198 40.8 25.5297 42.96 22.0497C43.92 20.5197 45.75 19.8299 47.46 20.3099C49.17 20.8199 50.37 22.3798 50.34 24.1798V34.7399H51C52.23 34.7399 53.25 35.7599 53.25 36.9899C53.25 38.2199 52.23 39.2399 51 39.2399H50.37V41.3099C50.37 42.5399 49.38 43.5298 48.12 43.5298ZM45.87 25.9199C44.1 28.7999 42.27 31.8898 40.62 34.7098H45.87V25.9199Z" fill="#4CB8E9"/>
</svg>
