<svg width="48" height="48" viewBox="0 0 48 48" fill="none" xmlns="http://www.w3.org/2000/svg">
<path d="M43.9955 19.2645V41.9785C43.9918 42.3971 43.8238 42.7976 43.5277 43.0936C43.2317 43.3897 42.8312 43.5576 42.4126 43.5613H24.2769C23.8437 43.5445 23.433 43.3644 23.127 43.0574C23.3036 42.9494 23.452 42.801 23.56 42.6244L23.631 42.5534C23.702 42.4824 23.702 42.4824 23.702 42.4115V42.3405V42.234C23.702 42.163 23.7729 42.163 23.7729 42.092V41.8791C23.7829 41.7768 23.7578 41.6743 23.702 41.5881C23.5549 41.2382 23.308 40.9395 22.9921 40.7292C23.2761 40.5163 23.5671 40.2962 23.6381 40.0833V39.7994V39.7213V39.6503C23.6081 39.4096 23.5209 39.1797 23.3838 38.9796C23.2467 38.7796 23.0638 38.6153 22.8502 38.5004C23.166 38.2901 23.4129 37.9913 23.56 37.6415V37.5705V37.4996V37.4286C23.5316 37.1865 23.4443 36.9551 23.3057 36.7547C23.1671 36.5542 22.9814 36.3908 22.765 36.2787L22.8431 36.2077C22.9141 36.2077 22.9141 36.1367 22.985 36.1367L23.056 36.0586L23.127 35.9877L23.198 35.9167L23.269 35.8457C23.269 35.8269 23.2764 35.8088 23.2898 35.7955C23.3031 35.7822 23.3211 35.7747 23.3399 35.7747C23.3399 35.7648 23.3419 35.7549 23.3459 35.7458C23.35 35.7367 23.3558 35.7285 23.3632 35.7218C23.3706 35.7151 23.3792 35.7101 23.3887 35.707C23.3981 35.7038 23.4081 35.7027 23.418 35.7037V35.6328V35.3417V35.2708V35.1998V35.1359C23.418 34.7029 23.127 34.348 22.6231 33.986C22.985 33.7741 23.265 33.4466 23.418 33.0561V33.0065V32.8645V32.5806C23.418 32.5096 23.3399 32.5096 23.3399 32.4386V32.2186C23.3399 32.1476 23.269 32.1476 23.198 32.0766L23.127 32.0056C23.127 31.9868 23.1195 31.9687 23.1062 31.9554C23.0929 31.9421 23.0749 31.9346 23.056 31.9346C22.9851 31.8637 22.9851 31.8637 22.9141 31.7927C22.7361 31.631 22.5437 31.486 22.3391 31.3597V19.2929C22.3428 18.8761 22.51 18.4775 22.8048 18.1828C23.0995 17.888 23.4981 17.7208 23.9149 17.7171H42.0861C43.2786 17.6887 43.9955 18.4056 43.9955 19.2645ZM41.7667 24.8649V19.6975H24.9867V24.8649H41.7667ZM41.4827 40.8783V33.986H38.679V40.8783H41.4827ZM41.4827 32.7651V29.9685H38.679V32.7651H41.4827ZM41.4827 28.3856V27.0937H38.679V28.3856H41.4827ZM37.0535 40.8783V38.0816H34.2143V40.8783H37.0535ZM37.0535 36.8607V34.0215H34.2143V36.8607H37.0535ZM37.0535 32.7651V29.9685H34.2143V32.7651H37.0535ZM37.0535 28.3856V27.0937H34.2143V28.3856H37.0535ZM32.5959 40.8783V38.0816H29.7992V40.8783H32.5959ZM32.5959 36.8607V34.0215H29.7992V36.8607H32.5959ZM32.5959 32.7651V29.9685H29.7992V32.7651H32.5959ZM32.5959 28.3856V27.0937H29.7992V28.3856H32.5959ZM28.0744 40.8783V38.0816H25.2777V40.8783H28.0744ZM28.0744 36.8607V34.0215H25.2777V36.8607H28.0744ZM28.0744 32.7651V29.9685H25.2777V32.7651H28.0744ZM28.0744 28.3856V27.0937H25.2777V28.3856H28.0744Z" fill="#005993"/>
<path d="M41.6956 19.6978H24.9653V24.8652H41.6956V19.6978Z" fill="white"/>
<path d="M41.4827 36.8606V40.8781H38.679V36.8606V35.9236V33.9858H41.4827V35.9236V36.8606Z" fill="#D71049"/>
<path d="M41.4827 29.9683H38.679V32.7649H41.4827V29.9683Z" fill="white"/>
<path d="M41.4827 27.0938H38.679V28.3856H41.4827V27.0938Z" fill="white"/>
<path d="M37.0322 38.0815H34.2284V40.8853H37.0322V38.0815Z" fill="white"/>
<path d="M37.0322 33.9858H34.2284V36.7896H37.0322V33.9858Z" fill="white"/>
<path d="M37.0322 29.9683H34.2284V32.7649H37.0322V29.9683Z" fill="white"/>
<path d="M37.0322 27.0938H34.2284V28.3856H37.0322V27.0938Z" fill="white"/>
<path d="M35.5912 10.4345V17.6887H24.2768C23.8594 17.6924 23.46 17.8594 23.1641 18.1539C22.8683 18.4484 22.6995 18.8471 22.6939 19.2645V31.4023C21.9911 31.0607 21.2429 30.8216 20.4722 30.6925H20.3303C20.2285 30.6964 20.1277 30.6718 20.0392 30.6215C19.9392 30.6321 19.8386 30.607 19.7553 30.5505H19.6063C19.4599 30.5626 19.3129 30.5357 19.1804 30.4724H16.4476C16.0863 30.4872 15.7273 30.5371 15.3758 30.6215C15.1432 30.5541 14.906 30.5043 14.666 30.4724V6.99189C14.666 6.61538 14.8155 6.25429 15.0818 5.98806C15.348 5.72183 15.7091 5.57227 16.0856 5.57227H30.6651V9.02195C30.6651 9.39846 30.8147 9.75953 31.0809 10.0258C31.3471 10.292 31.7082 10.4416 32.0847 10.4416L35.5912 10.4345ZM21.5227 13.9835C21.5265 13.6805 21.4697 13.3797 21.3554 13.0989C21.2412 12.8182 21.072 12.5632 20.8576 12.3488C20.6433 12.1345 20.3883 11.9653 20.1075 11.851C19.8268 11.7368 19.526 11.6799 19.223 11.6837C18.6142 11.6875 18.0313 11.9309 17.6009 12.3614C17.1704 12.7919 16.9269 13.3747 16.9232 13.9835C16.9194 14.2866 16.9762 14.5874 17.0905 14.8681C17.2047 15.1489 17.3739 15.4039 17.5883 15.6182C17.8026 15.8325 18.0576 16.0018 18.3384 16.116C18.6191 16.2302 18.9199 16.2871 19.223 16.2833C19.5268 16.2815 19.8274 16.2198 20.1074 16.1017C20.3874 15.9837 20.6415 15.8117 20.855 15.5955C21.0686 15.3793 21.2375 15.1232 21.352 14.8417C21.4666 14.5603 21.5246 14.259 21.5227 13.9551V13.9835Z" fill="#E4E7EC"/>
<path d="M35.5912 10.4342H32.1486C31.7721 10.4342 31.411 10.2847 31.1447 10.0185C30.8785 9.75222 30.7289 9.39113 30.7289 9.01463V5.56494L35.5912 10.4342Z" fill="#F2F4F7"/>
<path d="M32.5106 38.0815H29.7068V40.8853H32.5106V38.0815Z" fill="white"/>
<path d="M32.5106 33.9858H29.7068V36.7896H32.5106V33.9858Z" fill="white"/>
<path d="M32.5106 29.9683H29.7068V32.7649H32.5106V29.9683Z" fill="white"/>
<path d="M32.5106 27.0938H29.7068V28.3856H32.5106V27.0938Z" fill="white"/>
<path d="M28.06 38.0815H25.2563V40.8853H28.06V38.0815Z" fill="white"/>
<path d="M28.06 33.9858H25.2563V36.7896H28.06V33.9858Z" fill="white"/>
<path d="M28.06 29.9683H25.2563V32.7649H28.06V29.9683Z" fill="white"/>
<path d="M28.06 27.0938H25.2563V28.3856H28.06V27.0938Z" fill="white"/>
<path d="M19.2229 11.6555C19.6778 11.6555 20.1224 11.7903 20.5006 12.043C20.8788 12.2957 21.1736 12.6549 21.3477 13.0752C21.5217 13.4954 21.5673 13.9578 21.4785 14.4039C21.3898 14.85 21.1708 15.2598 20.8491 15.5814C20.5275 15.9031 20.1177 16.1221 19.6716 16.2108C19.2255 16.2996 18.7631 16.254 18.3428 16.08C17.9226 15.9059 17.5634 15.6111 17.3107 15.2329C17.058 14.8547 16.9232 14.4101 16.9232 13.9552C16.9193 13.6522 16.9762 13.3514 17.0904 13.0707C17.2047 12.7899 17.3739 12.5349 17.5882 12.3206C17.8026 12.1062 18.0576 11.937 18.3384 11.8227C18.6191 11.7085 18.9199 11.6516 19.2229 11.6555Z" fill="#F9FAFB"/>
<path d="M40.2617 23.2182C40.1867 23.2118 40.1164 23.179 40.0631 23.1258C40.0099 23.0725 39.9771 23.0022 39.9707 22.9272V21.4224C39.9771 21.3473 40.0099 21.277 40.0631 21.2237C40.1164 21.1705 40.1867 21.1378 40.2617 21.1313C40.336 21.138 40.4055 21.171 40.4575 21.2243C40.5096 21.2777 40.5409 21.3479 40.5457 21.4224V22.9272C40.5409 23.0016 40.5096 23.0718 40.4575 23.1252C40.4055 23.1786 40.336 23.2116 40.2617 23.2182Z" fill="#0085B8"/>
<path d="M38.473 23.2182C38.3979 23.2118 38.3276 23.179 38.2743 23.1258C38.2211 23.0725 38.1884 23.0022 38.1819 22.9272V21.4224C38.1884 21.3473 38.2211 21.277 38.2743 21.2237C38.3276 21.1705 38.3979 21.1378 38.473 21.1313C38.5472 21.138 38.6167 21.171 38.6688 21.2243C38.7208 21.2777 38.7521 21.3479 38.7569 21.4224V22.9272C38.7521 23.0016 38.7208 23.0718 38.6688 23.1252C38.6167 23.1786 38.5472 23.2116 38.473 23.2182Z" fill="#0085B8"/>
<path d="M36.6702 23.2179C36.5959 23.2113 36.5265 23.1783 36.4744 23.125C36.4223 23.0716 36.3911 23.0013 36.3863 22.9269V21.4221C36.3863 21.3468 36.4162 21.2746 36.4695 21.2213C36.5227 21.1681 36.5949 21.1382 36.6702 21.1382C36.7455 21.1382 36.8177 21.1681 36.871 21.2213C36.9242 21.2746 36.9541 21.3468 36.9541 21.4221V22.9269C36.9493 23.0013 36.9181 23.0716 36.866 23.125C36.8139 23.1783 36.7445 23.2113 36.6702 23.2179Z" fill="#0085B8"/>
<path d="M34.8744 23.2182C34.8001 23.2116 34.7306 23.1786 34.6786 23.1252C34.6265 23.0718 34.5952 23.0016 34.5905 22.9272V21.4224C34.5952 21.3479 34.6265 21.2777 34.6786 21.2243C34.7306 21.171 34.8001 21.138 34.8744 21.1313C34.9494 21.1378 35.0198 21.1705 35.073 21.2237C35.1263 21.277 35.159 21.3473 35.1654 21.4224V22.9272C35.159 23.0022 35.1263 23.0725 35.073 23.1258C35.0198 23.179 34.9494 23.2118 34.8744 23.2182Z" fill="#0085B8"/>
<path d="M33.0785 23.2182C33.0043 23.2116 32.9348 23.1786 32.8827 23.1252C32.8307 23.0718 32.7994 23.0016 32.7946 22.9272V21.4224C32.7994 21.3479 32.8307 21.2777 32.8827 21.2243C32.9348 21.171 33.0043 21.138 33.0785 21.1313C33.1536 21.1378 33.2239 21.1705 33.2772 21.2237C33.3304 21.277 33.3631 21.3473 33.3696 21.4224V22.9272C33.3631 23.0022 33.3304 23.0725 33.2772 23.1258C33.2239 23.179 33.1536 23.2118 33.0785 23.2182Z" fill="#0085B8"/>
<path d="M22.8573 8.49682H16.8949C16.8264 8.48603 16.764 8.45114 16.719 8.39843C16.6739 8.34573 16.6492 8.27868 16.6492 8.20935C16.6492 8.14002 16.6739 8.07297 16.719 8.02026C16.764 7.96756 16.8264 7.93267 16.8949 7.92188H22.8573C22.9258 7.93267 22.9882 7.96756 23.0332 8.02026C23.0783 8.07297 23.103 8.14002 23.103 8.20935C23.103 8.27868 23.0783 8.34573 23.0332 8.39843C22.9882 8.45114 22.9258 8.48603 22.8573 8.49682Z" fill="#0085B8"/>
<path d="M26.8321 10.0017H16.8948C16.8211 9.99672 16.7517 9.96521 16.6995 9.91301C16.6473 9.8608 16.6158 9.79144 16.6108 9.71778C16.6156 9.64337 16.6469 9.57312 16.699 9.51974C16.751 9.46636 16.8205 9.43338 16.8948 9.42676H26.9031C26.9781 9.43318 27.0485 9.4659 27.1017 9.51915C27.155 9.57239 27.1877 9.64275 27.1941 9.71778C27.1817 9.80253 27.1373 9.87927 27.0699 9.93213C27.0025 9.98498 26.9174 10.0099 26.8321 10.0017Z" fill="#0085B8"/>
<path d="M19.8688 13.2382L19.5068 13.3091C19.5068 13.1601 19.4358 13.0891 19.2939 13.0891V13.6641C19.5068 13.735 19.7269 13.8131 19.7978 13.9551C19.8982 14.0735 19.949 14.226 19.9398 14.381C19.9502 14.5382 19.8993 14.6933 19.7978 14.8139C19.6881 14.9414 19.5325 15.0205 19.3648 15.034V15.3179H19.1519V15.034C19.0687 15.0281 18.9875 15.0056 18.9132 14.9678C18.8388 14.93 18.7728 14.8777 18.7189 14.8139C18.577 14.672 18.577 14.53 18.506 14.381L18.9319 14.31C18.9319 14.381 19.0029 14.459 19.0029 14.53L19.1519 14.672V14.0261C18.9319 13.9551 18.7899 13.8841 18.7189 13.735C18.6251 13.6115 18.5743 13.4607 18.5743 13.3056C18.5743 13.1505 18.6251 12.9997 18.7189 12.8762C18.7618 12.8017 18.8259 12.7417 18.903 12.7038C18.9801 12.6659 19.0668 12.6517 19.1519 12.6632V12.5142H19.3648V12.6632C19.4986 12.6658 19.627 12.7162 19.7269 12.8052C19.7978 13.0181 19.8688 13.0891 19.8688 13.2382ZM19.5778 14.381C19.5778 14.31 19.5778 14.239 19.5068 14.239C19.4481 14.1755 19.3751 14.1268 19.2939 14.097V14.672C19.3649 14.672 19.4358 14.601 19.5068 14.53C19.5468 14.4899 19.5718 14.4373 19.5778 14.381ZM19.0809 13.5931V13.0891C19.0028 13.0891 19.0029 13.1601 18.9319 13.2382C18.8609 13.3162 18.8609 13.3091 18.8609 13.3801C18.8609 13.4511 18.8609 13.4511 18.9319 13.5221C19.0029 13.5931 19.0028 13.5931 19.0809 13.5931Z" fill="#D71049"/>
<ellipse cx="9.01591" cy="39.0397" rx="5.32359" ry="1.77453" fill="#F2F4F7"/>
<ellipse cx="9.01591" cy="37.2652" rx="5.32359" ry="2.12943" fill="#E4E7EC"/>
<ellipse cx="9.01591" cy="35.4907" rx="5.32359" ry="2.48434" fill="#F2F4F7"/>
<ellipse cx="9.01591" cy="34.4263" rx="5.32359" ry="2.12943" fill="#E4E7EC"/>
<ellipse cx="9.01591" cy="33.3614" rx="5.32359" ry="1.77453" fill="#F2F4F7"/>
<ellipse cx="18.2435" cy="41.8794" rx="6.74321" ry="2.48434" fill="#005993"/>
<ellipse cx="18.2435" cy="39.3949" rx="6.74321" ry="2.83925" fill="#D71049"/>
<ellipse cx="18.2435" cy="37.2655" rx="6.74321" ry="2.83925" fill="#005993"/>
<ellipse cx="18.2435" cy="35.1361" rx="6.74321" ry="2.83924" fill="#D71049"/>
<ellipse cx="18.2435" cy="32.6513" rx="6.74321" ry="2.48434" fill="#005993"/>
</svg>
