<svg width="48" height="48" viewBox="0 0 48 48" fill="none" xmlns="http://www.w3.org/2000/svg">
<g clip-path="url(#clip0_1516_35768)">
<mask id="mask0_1516_35768" style="mask-type:luminance" maskUnits="userSpaceOnUse" x="0" y="0" width="48" height="48">
<path d="M48 0H0V48H48V0Z" fill="white"/>
</mask>
<g mask="url(#mask0_1516_35768)">
<path d="M42.2459 16.2373H4.97945C4.57772 16.2373 4.41748 15.6753 4.73871 15.5143L22.8096 4.67147C23.0626 4.51377 23.3548 4.43018 23.6529 4.43018C23.9511 4.43018 24.2432 4.51377 24.4962 4.67147L42.5671 15.5143C42.8086 15.6753 42.6476 16.2373 42.2459 16.2373Z" fill="#005993"/>
<path d="M39.6724 16.2373H7.54929V17.8435C7.54283 17.9507 7.55918 18.058 7.59727 18.1584C7.63536 18.2588 7.69432 18.35 7.77026 18.4259C7.8462 18.5019 7.93738 18.5608 8.03779 18.5989C8.13819 18.637 8.24554 18.6534 8.35273 18.6469H38.8726C38.9795 18.6528 39.0864 18.6361 39.1864 18.5977C39.2864 18.5594 39.3771 18.5004 39.4526 18.4245C39.5281 18.3486 39.5868 18.2576 39.6246 18.1575C39.6625 18.0573 39.6788 17.9503 39.6724 17.8435V16.2373Z" fill="#F2F4F7"/>
<path d="M38.8726 33.9066H8.35273C8.24554 33.9002 8.13819 33.9165 8.03779 33.9546C7.93738 33.9927 7.8462 34.0517 7.77026 34.1276C7.69432 34.2036 7.63536 34.2947 7.59727 34.3951C7.55918 34.4956 7.54283 34.6029 7.54929 34.7101V36.3162H39.6724V34.7101C39.6788 34.6032 39.6625 34.4962 39.6246 34.3961C39.5868 34.2959 39.5281 34.2049 39.4526 34.1291C39.3771 34.0532 39.2864 33.9942 39.1864 33.9558C39.0864 33.9175 38.9795 33.9007 38.8726 33.9066Z" fill="#F2F4F7"/>
<path d="M41.2822 36.3158H5.94314C5.83595 36.3094 5.7286 36.3257 5.62819 36.3638C5.52779 36.4019 5.4366 36.4609 5.36067 36.5368C5.28473 36.6127 5.22577 36.7039 5.18768 36.8043C5.14959 36.9047 5.13323 37.0121 5.1397 37.1193V39.5281H42.0849V37.1193C42.0914 37.0121 42.075 36.9049 42.037 36.8045C41.9989 36.7042 41.9401 36.613 41.8642 36.5371C41.7883 36.4612 41.6973 36.4022 41.5969 36.3641C41.4966 36.3259 41.3894 36.3095 41.2822 36.3158Z" fill="#005993"/>
<path d="M26.8246 20.2531V18.647H20.4V20.2531C20.3935 20.3603 20.4099 20.4677 20.448 20.5681C20.4861 20.6685 20.545 20.7597 20.621 20.8356C20.6969 20.9115 20.7881 20.9705 20.8885 21.0086C20.9889 21.0467 21.0962 21.063 21.2034 21.0566V31.4962C21.0962 31.4897 20.9888 31.5061 20.8883 31.5442C20.7878 31.5824 20.6966 31.6414 20.6207 31.7174C20.5447 31.7934 20.4858 31.8847 20.4477 31.9852C20.4097 32.0857 20.3934 32.1931 20.4 32.3004V33.9065H26.8246V32.3004C26.8312 32.1932 26.8149 32.0858 26.7769 31.9854C26.7389 31.885 26.68 31.7937 26.6042 31.7177C26.5283 31.6417 26.4372 31.5827 26.3368 31.5445C26.2364 31.5063 26.1291 31.4898 26.0219 31.4962V21.0566C26.129 21.0629 26.2363 21.0465 26.3366 21.0084C26.4369 20.9702 26.528 20.9112 26.6039 20.8353C26.6797 20.7594 26.7386 20.6682 26.7767 20.5679C26.8147 20.4675 26.8311 20.3603 26.8246 20.2531Z" fill="#005993"/>
<path d="M16.3835 20.2531V18.647H9.95889V20.2531C9.95243 20.3603 9.96879 20.4677 10.0069 20.5681C10.045 20.6685 10.1039 20.7597 10.1799 20.8356C10.2558 20.9115 10.347 20.9705 10.4474 21.0086C10.5478 21.0467 10.6551 21.063 10.7623 21.0566V31.4962C10.6551 31.4897 10.5477 31.5061 10.4472 31.5442C10.3467 31.5824 10.2555 31.6414 10.1796 31.7174C10.1036 31.7934 10.0447 31.8847 10.0066 31.9852C9.9686 32.0857 9.95232 32.1931 9.95889 32.3004V33.9065H16.3835V32.3004C16.3901 32.1932 16.3738 32.0858 16.3358 31.9854C16.2978 31.885 16.2389 31.7937 16.1631 31.7177C16.0872 31.6417 15.9961 31.5827 15.8957 31.5445C15.7953 31.5063 15.688 31.4898 15.5808 31.4962V21.0566C15.6879 21.0629 15.7952 21.0465 15.8955 21.0084C15.9958 20.9702 16.0869 20.9112 16.1628 20.8353C16.2386 20.7594 16.2975 20.6682 16.3356 20.5679C16.3736 20.4675 16.39 20.3603 16.3835 20.2531Z" fill="#005993"/>
<path d="M37.2657 20.2531V18.647H30.8411V20.2531C30.8346 20.3603 30.851 20.4677 30.8891 20.5681C30.9272 20.6685 30.9861 20.7597 31.0621 20.8356C31.138 20.9115 31.2292 20.9705 31.3296 21.0086C31.43 21.0467 31.5374 21.063 31.6446 21.0566V31.4962C31.5373 31.4897 31.4299 31.5061 31.3294 31.5442C31.229 31.5824 31.1377 31.6414 31.0618 31.7174C30.9858 31.7934 30.9269 31.8847 30.8889 31.9852C30.8508 32.0857 30.8345 32.1931 30.8411 32.3004V33.9065H37.2657V32.3004C37.2723 32.1932 37.256 32.0858 37.218 31.9854C37.18 31.885 37.1212 31.7937 37.0453 31.7177C36.9694 31.6417 36.8783 31.5827 36.7779 31.5445C36.6776 31.5063 36.5702 31.4898 36.463 31.4962V21.0566C36.5702 21.0629 36.6774 21.0465 36.7777 21.0084C36.8781 20.9702 36.9691 20.9112 37.045 20.8353C37.1209 20.7594 37.1798 20.6682 37.2178 20.5679C37.2558 20.4675 37.2722 20.3603 37.2657 20.2531Z" fill="#005993"/>
<path d="M44.3077 34.7291C44.3077 30.039 40.5056 26.2368 35.8154 26.2368C31.1252 26.2368 27.3231 30.039 27.3231 34.7291C27.3231 39.4193 31.1252 43.2214 35.8154 43.2214C40.5056 43.2214 44.3077 39.4193 44.3077 34.7291Z" fill="#D71049"/>
<path d="M35.8157 42.8519C34.1289 42.8519 32.5152 42.3413 31.1429 41.3743C30.8131 40.6805 30.646 39.936 30.646 39.1597C30.646 36.3095 32.9651 33.9907 35.8157 33.9907C38.6658 33.9907 40.9846 36.3095 40.9846 39.1597C40.9846 39.9363 40.8175 40.681 40.4877 41.3747C39.1155 42.3414 37.5022 42.8519 35.8157 42.8519Z" fill="white"/>
<path d="M35.8154 35.8366C37.6507 35.8366 39.1385 34.3488 39.1385 32.5135C39.1385 30.6782 37.6507 29.1904 35.8154 29.1904C33.9801 29.1904 32.4923 30.6782 32.4923 32.5135C32.4923 34.3488 33.9801 35.8366 35.8154 35.8366Z" fill="white"/>
</g>
</g>
<defs>
<clipPath id="clip0_1516_35768">
<rect width="48" height="48" fill="white"/>
</clipPath>
</defs>
</svg>
