<svg width="49" height="48" viewBox="0 0 49 48" fill="none" xmlns="http://www.w3.org/2000/svg">
<path d="M38.3566 30.0498H36.562V41.9252H38.3566V30.0498Z" fill="#D71049"/>
<path d="M29.3909 34.6143H27.5963V41.933H29.3909V34.6143Z" fill="#D71049"/>
<path d="M35.2918 33.1147H33.4971V41.8589H35.2918V33.1147Z" fill="white"/>
<path d="M26.3997 37.9746H24.6051V41.9331H26.3997V37.9746Z" fill="white"/>
<path d="M42.3889 9.51172V44.9608H16.5405C17.115 44.9589 17.6654 44.7292 18.071 44.3223C18.4766 43.9153 18.7044 43.3641 18.7043 42.7896V9.51172H42.3889ZM38.3566 41.9476V30.05H36.5619V41.9476H38.3566ZM35.2917 41.9476V33.0854H33.4971V41.8295H35.2917V41.9476ZM32.3007 41.9476V36.4161H30.506V41.9476H32.3007ZM29.3908 41.9476V34.6289H27.5962V41.9476H29.3908ZM26.3998 41.9476V37.9892H24.6052V41.9476H26.3998ZM24.4279 21.3871V18.5512H21.6215V21.3871H24.4279ZM24.4279 15.8556V13.0197H21.6215V15.8556H24.4279ZM23.4088 41.9476V36.9995H21.6215V41.9476H23.4088Z" fill="#F2F4F7"/>
<path d="M32.5517 8.16022V9.51173H18.7043V17.4287H14.3691V40.3229H6.70319C7.27777 40.3229 7.82892 40.0952 8.2359 39.6896C8.64288 39.284 8.87251 38.7336 8.87446 38.159V4.72607H32.5517V8.16022Z" fill="#005993"/>
<path d="M32.3006 36.4014H30.506V41.9329H32.3006V36.4014Z" fill="white"/>
<path d="M24.4575 18.5513H21.6215V21.3872H24.4575V18.5513Z" fill="#D71049"/>
<path d="M24.4575 13.0195H21.6215V15.8554H24.4575V13.0195Z" fill="#D71049"/>
<path d="M23.4161 36.9995H21.6215V41.9328H23.4161V36.9995Z" fill="#D71049"/>
<path d="M18.7044 17.4287V42.8265C18.7044 43.4011 18.4767 43.9523 18.0711 44.3592C17.6655 44.7662 17.1151 44.9958 16.5405 44.9978H16.3042C15.7764 44.9231 15.2919 44.6642 14.9365 44.2669C14.5811 43.8696 14.3775 43.3594 14.3619 42.8265V17.4287H18.7044Z" fill="#E4E7EC"/>
<path d="M8.84511 12.6431V38.0482C8.84316 38.6228 8.61355 39.1732 8.20657 39.5788C7.79958 39.9844 7.24843 40.2121 6.67385 40.2121H6.37843C5.84439 40.1555 5.35029 39.903 4.99156 39.5033C4.63284 39.1037 4.43493 38.5853 4.4361 38.0482V12.6431H8.84511Z" fill="#F2F4F7"/>
<path d="M31.8502 14.5113H26.3261C26.2486 14.5063 26.1755 14.4738 26.12 14.4196C26.0645 14.3654 26.0301 14.2932 26.0233 14.2159C26.0299 14.1378 26.064 14.0646 26.1194 14.0092C26.1748 13.9538 26.248 13.9198 26.3261 13.9131H31.8502C31.9288 13.9183 32.0029 13.9519 32.0586 14.0076C32.1143 14.0633 32.1478 14.1373 32.153 14.2159C32.1566 14.2562 32.1511 14.2968 32.137 14.3348C32.1229 14.3727 32.1006 14.4071 32.0716 14.4354C32.0427 14.4636 32.0078 14.4851 31.9695 14.4983C31.9312 14.5114 31.8905 14.5158 31.8502 14.5113Z" fill="#0085B8"/>
<path d="M37.4557 16.0108H26.3261C26.248 16.0041 26.1748 15.9701 26.1194 15.9147C26.064 15.8592 26.0299 15.786 26.0233 15.708C26.0301 15.6307 26.0645 15.5585 26.12 15.5043C26.1755 15.4501 26.2486 15.4176 26.3261 15.4126H37.4557C37.5331 15.4176 37.6062 15.4501 37.6617 15.5043C37.7173 15.5585 37.7516 15.6307 37.7585 15.708C37.7518 15.786 37.7177 15.8592 37.6623 15.9147C37.6069 15.9701 37.5337 16.0041 37.4557 16.0108Z" fill="#0085B8"/>
<path d="M31.8501 20.0428H26.326C26.2827 20.0496 26.2386 20.047 26.1965 20.0351C26.1544 20.0232 26.1153 20.0023 26.0821 19.9738C26.0488 19.9454 26.0221 19.9101 26.0038 19.8704C25.9855 19.8307 25.976 19.7874 25.976 19.7437C25.976 19.6999 25.9855 19.6567 26.0038 19.617C26.0221 19.5772 26.0488 19.542 26.0821 19.5135C26.1153 19.4851 26.1544 19.4642 26.1965 19.4523C26.2386 19.4404 26.2827 19.4378 26.326 19.4446H31.8501C31.9281 19.4481 32.002 19.4801 32.0579 19.5345C32.1137 19.589 32.1476 19.6622 32.1529 19.74C32.1577 19.7809 32.1531 19.8224 32.1395 19.8613C32.126 19.9001 32.1038 19.9354 32.0747 19.9646C32.0456 19.9937 32.0103 20.0158 31.9714 20.0294C31.9325 20.0429 31.8911 20.0475 31.8501 20.0428Z" fill="#0085B8"/>
<path d="M37.4557 21.5347H26.3261C26.2486 21.5297 26.1755 21.4972 26.12 21.443C26.0645 21.3889 26.0301 21.3166 26.0233 21.2393C26.0299 21.1613 26.064 21.0881 26.1194 21.0327C26.1748 20.9773 26.248 20.9432 26.3261 20.9365H37.4557C37.5337 20.9432 37.6069 20.9773 37.6623 21.0327C37.7177 21.0881 37.7518 21.1613 37.7585 21.2393C37.7516 21.3166 37.7173 21.3889 37.6617 21.443C37.6062 21.4972 37.5331 21.5297 37.4557 21.5347Z" fill="#0085B8"/>
</svg>
