<svg width="48" height="48" viewBox="0 0 48 48" fill="none" xmlns="http://www.w3.org/2000/svg">
<path d="M32.1245 6.15771L38.9187 12.9591H32.1245V6.15771Z" fill="#F2F4F7"/>
<path d="M38.9188 12.9591V42.0185C30.1343 42.0185 31.9759 42.0185 9.46732 42.0185V6.15771H32.1394V12.9591H38.9188Z" fill="#005993"/>
<path d="M19.9467 38.1341H12.8497C12.8065 38.1409 12.7623 38.1383 12.7202 38.1264C12.6781 38.1145 12.6391 38.0936 12.6058 38.0652C12.5726 38.0368 12.5459 38.0014 12.5275 37.9617C12.5092 37.922 12.4998 37.8788 12.4998 37.835C12.4998 37.7913 12.5092 37.748 12.5275 37.7083C12.5459 37.6686 12.5726 37.6333 12.6058 37.6048C12.6391 37.5764 12.6781 37.5555 12.7202 37.5436C12.7623 37.5317 12.8065 37.5291 12.8497 37.5359H20.0205C20.0972 37.5411 20.1694 37.5739 20.2237 37.6282C20.278 37.6825 20.3108 37.7547 20.316 37.8313C20.3066 37.9202 20.2626 38.0018 20.1935 38.0585C20.1244 38.1152 20.0357 38.1424 19.9467 38.1341Z" fill="white"/>
<path d="M18.6764 10.4852H12.7684C12.7252 10.492 12.681 10.4893 12.6389 10.4774C12.5968 10.4655 12.5578 10.4447 12.5245 10.4162C12.4913 10.3878 12.4646 10.3525 12.4462 10.3128C12.4279 10.273 12.4185 10.2298 12.4185 10.1861C12.4185 10.1423 12.4279 10.0991 12.4462 10.0594C12.4646 10.0196 12.4913 9.98433 12.5245 9.95591C12.5578 9.92748 12.5968 9.90662 12.6389 9.89472C12.681 9.88282 12.7252 9.88018 12.7684 9.88699H18.6764C18.7477 9.89822 18.8126 9.93452 18.8594 9.98935C18.9063 10.0442 18.9321 10.1139 18.9321 10.1861C18.9321 10.2582 18.9063 10.328 18.8594 10.3828C18.8126 10.4376 18.7477 10.4739 18.6764 10.4852Z" fill="white"/>
<path d="M24.3555 12.0581H12.7019C12.624 12.0547 12.5501 12.0227 12.4942 11.9682C12.4384 11.9137 12.4045 11.8406 12.3992 11.7627C12.4044 11.6841 12.4379 11.6101 12.4936 11.5544C12.5493 11.4987 12.6234 11.4652 12.7019 11.46H24.2743C24.3529 11.4652 24.4269 11.4987 24.4826 11.5544C24.5383 11.6101 24.5719 11.6841 24.5771 11.7627C24.5771 11.9104 24.5032 12.0581 24.3555 12.0581Z" fill="white"/>
<path d="M24.3555 17.2124H12.7019C12.624 17.209 12.5501 17.177 12.4942 17.1225C12.4384 17.068 12.4045 16.9949 12.3992 16.917C12.4044 16.8384 12.4379 16.7644 12.4936 16.7087C12.5493 16.653 12.6234 16.6195 12.7019 16.6143H24.2743C24.3529 16.6195 24.4269 16.653 24.4826 16.7087C24.5383 16.7644 24.5719 16.8384 24.5771 16.917C24.5771 17.0647 24.5032 17.2124 24.3555 17.2124Z" fill="#D71049"/>
<path d="M29.8057 19.1548H12.7019C12.624 19.1514 12.5501 19.1193 12.4942 19.0649C12.4384 19.0104 12.4045 18.9373 12.3992 18.8594C12.4044 18.7808 12.4379 18.7068 12.4936 18.6511C12.5493 18.5954 12.6234 18.5618 12.7019 18.5566H29.7318C29.8091 18.5635 29.8814 18.5979 29.9355 18.6534C29.9897 18.7089 30.0222 18.782 30.0272 18.8594C30.0272 19.0071 29.9238 19.1548 29.8057 19.1548Z" fill="white"/>
<path d="M29.8057 21.0972H12.7019C12.624 21.0937 12.5501 21.0617 12.4942 21.0072C12.4384 20.9528 12.4045 20.8796 12.3992 20.8018C12.4044 20.7232 12.4379 20.6492 12.4936 20.5935C12.5493 20.5378 12.6234 20.5042 12.7019 20.499H29.7318C29.8091 20.5059 29.8814 20.5402 29.9355 20.5958C29.9897 20.6513 30.0222 20.7244 30.0272 20.8018C30.0272 20.9495 29.9238 21.0972 29.8057 21.0972Z" fill="white"/>
<path d="M34.0667 22.9656H12.7019C12.6586 22.9724 12.6145 22.9698 12.5724 22.9579C12.5303 22.946 12.4912 22.9251 12.458 22.8967C12.4247 22.8683 12.398 22.833 12.3797 22.7933C12.3614 22.7535 12.3519 22.7103 12.3519 22.6665C12.3519 22.6228 12.3614 22.5796 12.3797 22.5398C12.398 22.5001 12.4247 22.4648 12.458 22.4364C12.4912 22.408 12.5303 22.3871 12.5724 22.3752C12.6145 22.3633 12.6586 22.3606 12.7019 22.3675H34.0667C34.138 22.3787 34.2029 22.415 34.2498 22.4698C34.2966 22.5247 34.3224 22.5944 34.3224 22.6665C34.3224 22.7387 34.2966 22.8084 34.2498 22.8633C34.2029 22.9181 34.138 22.9544 34.0667 22.9656Z" fill="white"/>
<path d="M34.0668 24.9077H12.7019C12.624 24.9043 12.5501 24.8723 12.4942 24.8178C12.4384 24.7633 12.4045 24.6902 12.3992 24.6124C12.4044 24.5338 12.4379 24.4597 12.4936 24.404C12.5493 24.3483 12.6234 24.3148 12.7019 24.3096H34.0668C34.1441 24.3165 34.2164 24.3508 34.2706 24.4063C34.3247 24.4618 34.3573 24.5349 34.3622 24.6124C34.3571 24.689 34.3243 24.7611 34.27 24.8155C34.2156 24.8698 34.1435 24.9026 34.0668 24.9077Z" fill="white"/>
<path d="M24.3555 26.8501H12.7019C12.624 26.8467 12.5501 26.8147 12.4942 26.7602C12.4384 26.7057 12.4045 26.6326 12.3992 26.5547C12.4044 26.4761 12.4379 26.4021 12.4936 26.3464C12.5493 26.2907 12.6234 26.2572 12.7019 26.252H24.2743C24.3529 26.2572 24.4269 26.2907 24.4826 26.3464C24.5383 26.4021 24.5719 26.4761 24.5771 26.5547C24.5771 26.732 24.5032 26.8501 24.3555 26.8501Z" fill="white"/>
<path d="M31.114 40.0115C25.951 37.5816 25.8462 33.094 25.8462 32.9164V27.8779L26.3251 27.843C27.977 27.7433 29.5983 27.3527 31.1144 26.6893L31.3451 26.5845L31.5758 26.6893C33.0919 27.3527 34.7132 27.7433 36.3651 27.843L36.844 27.8779V32.9154C36.844 33.1105 36.7391 37.5802 31.5761 40.0119L31.3454 40.1168L31.114 40.0115Z" fill="white"/>
<path d="M27.8152 32.9169L30.0148 35.098L34.8739 30.2388" stroke="#D71049" stroke-width="1.42017" stroke-miterlimit="10" stroke-linecap="round" stroke-linejoin="round"/>
</svg>
