<svg width="48" height="48" viewBox="0 0 48 48" fill="none" xmlns="http://www.w3.org/2000/svg">
<path d="M10.0138 19.3047H7.82703V21.4764H10.0138V19.3047Z" fill="white"/>
<path d="M10.0138 10.981H7.82703V13.1527H10.0138V10.981Z" fill="white"/>
<path d="M10.0138 23.5073H7.82703V25.6791H10.0138V23.5073Z" fill="#D71049"/>
<path d="M10.0138 15.1836H7.82703V17.3553H10.0138V15.1836Z" fill="#D71049"/>
<path d="M28.8136 31.6011L35.9857 42.4746H33.0452L29.7987 37.5975L25.873 31.6011H28.8136Z" fill="#005993"/>
<path d="M18.9248 37.679L15.7529 42.4746H12.8124L19.9845 31.6011H22.9251L18.9248 37.679Z" fill="#005993"/>
<path d="M25.7985 37.679V42.4746H22.9251V37.679V31.6011H25.7985V37.679Z" fill="#005993"/>
<path d="M44.367 29.5778C44.5444 29.7382 44.6679 29.9487 44.7209 30.1809C44.774 30.4132 44.754 30.656 44.6636 30.8766C44.5733 31.0972 44.417 31.285 44.2159 31.4146C44.0147 31.5442 43.7783 31.6094 43.5386 31.6014H5.18503C4.87128 31.5805 4.57583 31.4473 4.35348 31.2265C4.13112 31.0057 3.99697 30.7122 3.97599 30.4006C3.97396 30.2427 4.0039 30.086 4.06404 29.9398C4.12418 29.7936 4.21328 29.661 4.32605 29.5496C4.43883 29.4383 4.57302 29.3507 4.72058 29.2918C4.86814 29.233 5.02606 29.2043 5.18503 29.2072H43.464C43.7864 29.2713 44.0931 29.3972 44.367 29.5778Z" fill="#F2F4F7"/>
<path d="M44.3669 5.8073C44.5988 6.02353 44.7355 6.32179 44.7475 6.63746C44.7495 6.79536 44.7196 6.95204 44.6595 7.09823C44.5993 7.24441 44.5102 7.3771 44.3974 7.48841C44.2847 7.59972 44.1505 7.6874 44.003 7.74622C43.8554 7.80504 43.6974 7.8338 43.5385 7.83081H5.18485C4.87088 7.81817 4.57402 7.68536 4.35644 7.4602C4.17913 7.29987 4.05563 7.08937 4.0026 6.85712C3.94956 6.62487 3.96954 6.38204 4.05985 6.16143C4.15017 5.94082 4.3065 5.75304 4.50768 5.62344C4.70885 5.49384 4.94519 5.42866 5.18485 5.4367H43.5385C43.8524 5.44934 44.1493 5.58215 44.3669 5.8073Z" fill="#F2F4F7"/>
<path d="M43.3894 7.83057V29.2812H5.32684V7.83057H43.3894ZM9.97647 25.6789V23.5072H7.78975V25.6789H9.97647ZM9.97647 21.4837V19.3045H7.78975V21.4837H9.97647ZM9.97647 17.3551V15.1834H7.78975V17.3551H9.97647ZM9.97647 13.1599V10.9585H7.78975V13.1821L9.97647 13.1599Z" fill="#005993"/>
<path d="M32.9708 15.71L34.0231 19.757L30.0228 21.0319C30.0228 20.9577 29.9482 20.8095 29.9482 20.728C29.812 20.2013 29.7822 19.653 29.8607 19.1149C29.9392 18.5767 30.1244 18.0594 30.4055 17.5927C30.6865 17.1261 31.058 16.7194 31.4983 16.3963C31.9386 16.0731 32.4391 15.8398 32.9708 15.71Z" fill="white"/>
<path d="M40.4414 19.6828C40.7668 20.9671 40.5709 22.327 39.896 23.4691C39.2212 24.6113 38.1214 25.4444 36.8338 25.7886C35.5461 26.1329 34.1739 25.9608 33.0129 25.3094C31.8518 24.6581 30.995 23.5797 30.6273 22.3067L35.5381 21.0318L34.2544 16.1472C34.8944 15.9652 35.5648 15.9128 36.2257 15.993C36.8866 16.0732 37.5244 16.2845 38.1015 16.6143C38.6786 16.9441 39.1831 17.3856 39.585 17.9127C39.987 18.4398 40.2782 19.0418 40.4414 19.6828Z" fill="#D71049"/>
<path d="M25.8729 31.9793C25.8278 31.9844 25.782 31.9806 25.7384 31.9681C25.6948 31.9556 25.6541 31.9345 25.6187 31.9063C25.5833 31.878 25.5539 31.843 25.5322 31.8034C25.5105 31.7638 25.4969 31.7203 25.4922 31.6754C25.4977 31.5973 25.5319 31.5239 25.5883 31.4692C25.6448 31.4145 25.7195 31.3824 25.7983 31.3789C25.8757 31.3841 25.9486 31.417 26.0035 31.4715C26.0584 31.526 26.0915 31.5985 26.0968 31.6754C26.0968 31.831 26.0221 31.9793 25.8729 31.9793Z" fill="#0085B8"/>
<path d="M29.7239 37.9757H25.8729C25.8292 37.9825 25.7846 37.9799 25.742 37.9679C25.6995 37.956 25.6601 37.935 25.6265 37.9065C25.5929 37.878 25.5658 37.8425 25.5473 37.8027C25.5288 37.7628 25.5193 37.7194 25.5193 37.6755C25.5193 37.6316 25.5288 37.5882 25.5473 37.5483C25.5658 37.5084 25.5929 37.473 25.6265 37.4445C25.6601 37.4159 25.6995 37.395 25.742 37.383C25.7846 37.3711 25.8292 37.3685 25.8729 37.3753H29.7239C29.7959 37.3866 29.8615 37.423 29.9089 37.478C29.9563 37.5331 29.9823 37.6031 29.9823 37.6755C29.9823 37.7479 29.9563 37.8179 29.9089 37.8729C29.8615 37.928 29.7959 37.9644 29.7239 37.9757Z" fill="#0085B8"/>
<path d="M22.9325 37.9759H18.9322C18.783 37.9759 18.5591 37.8276 18.5591 37.6794C18.5626 37.6012 18.5949 37.5269 18.65 37.4709C18.705 37.4148 18.7789 37.3809 18.8576 37.3755H22.8579C22.9373 37.3807 23.0121 37.4144 23.0684 37.4703C23.1247 37.5262 23.1586 37.6005 23.1639 37.6794C23.1564 37.8276 23.0818 37.9759 22.9325 37.9759Z" fill="#0085B8"/>
<path d="M41.0459 10.3064H34.8738C34.795 10.303 34.7203 10.2708 34.6638 10.2162C34.6074 10.1615 34.5732 10.0881 34.5678 10.01C34.5731 9.93107 34.607 9.85677 34.6632 9.80087C34.7195 9.74497 34.7944 9.71127 34.8738 9.70605H41.0608C41.1397 9.71276 41.2137 9.74694 41.2697 9.80254C41.3256 9.85814 41.3601 9.9316 41.3668 10.01C41.3595 10.0899 41.3227 10.1644 41.2635 10.2192C41.2042 10.2739 41.1268 10.3049 41.0459 10.3064Z" fill="white"/>
<path d="M41.0459 11.6551H34.8738C34.795 11.6516 34.7203 11.6195 34.6638 11.5648C34.6074 11.5101 34.5732 11.4367 34.5678 11.3586C34.5731 11.2797 34.607 11.2054 34.6632 11.1495C34.7195 11.0936 34.7944 11.0599 34.8738 11.0547H41.0608C41.1397 11.0614 41.2137 11.0956 41.2697 11.1512C41.3256 11.2068 41.3601 11.2802 41.3668 11.3586C41.3595 11.4386 41.3227 11.5131 41.2635 11.5678C41.2042 11.6225 41.1268 11.6536 41.0459 11.6551Z" fill="white"/>
<path d="M21.1115 11.6999H11.7377C11.6585 11.6999 11.5826 11.6687 11.5266 11.6131C11.4706 11.5575 11.4391 11.4821 11.4391 11.4034C11.4391 11.3248 11.4706 11.2494 11.5266 11.1938C11.5826 11.1382 11.6585 11.1069 11.7377 11.1069H21.1787C21.2562 11.1121 21.3291 11.145 21.384 11.1996C21.4389 11.2541 21.472 11.3265 21.4772 11.4034C21.466 11.4899 21.4218 11.5688 21.3538 11.624C21.2858 11.6791 21.1991 11.7063 21.1115 11.6999Z" fill="white"/>
<path d="M21.1115 13.0857H11.7377C11.6596 13.0788 11.5866 13.0444 11.5318 12.9886C11.477 12.9329 11.4442 12.8596 11.4391 12.7818C11.4444 12.7049 11.4775 12.6325 11.5324 12.578C11.5873 12.5235 11.6602 12.4906 11.7377 12.4854H21.1787C21.2562 12.4906 21.3291 12.5235 21.384 12.578C21.4389 12.6325 21.472 12.7049 21.4772 12.7818C21.466 12.8689 21.4222 12.9486 21.3544 13.005C21.2866 13.0613 21.1998 13.0902 21.1115 13.0857Z" fill="white"/>
<path d="M21.1116 15.9319H11.7377C11.6657 15.9207 11.6002 15.8842 11.5528 15.8292C11.5054 15.7742 11.4794 15.7041 11.4794 15.6317C11.4794 15.5593 11.5054 15.4893 11.5528 15.4343C11.6002 15.3792 11.6657 15.3428 11.7377 15.3315H21.1788C21.2574 15.3369 21.3313 15.3709 21.3864 15.4269C21.4414 15.483 21.4738 15.5572 21.4773 15.6354C21.466 15.7219 21.4219 15.8009 21.3539 15.856C21.2858 15.9112 21.1991 15.9383 21.1116 15.9319Z" fill="white"/>
<path d="M21.1116 17.281H11.7377C11.6657 17.2698 11.6002 17.2333 11.5528 17.1783C11.5054 17.1233 11.4794 17.0533 11.4794 16.9809C11.4794 16.9085 11.5054 16.8384 11.5528 16.7834C11.6002 16.7284 11.6657 16.6919 11.7377 16.6807H21.1788C21.2574 16.6861 21.3313 16.72 21.3864 16.7761C21.4414 16.8321 21.4738 16.9063 21.4773 16.9846C21.466 17.0711 21.4219 17.15 21.3539 17.2051C21.2858 17.2603 21.1991 17.2874 21.1116 17.281Z" fill="white"/>
<path d="M21.1115 20.053H11.7377C11.6602 20.0478 11.5873 20.0149 11.5324 19.9604C11.4775 19.9059 11.4444 19.8334 11.4391 19.7565C11.4442 19.6788 11.477 19.6055 11.5318 19.5497C11.5866 19.494 11.6596 19.4596 11.7377 19.4526H21.1787C21.2568 19.4596 21.3298 19.494 21.3846 19.5497C21.4393 19.6055 21.4722 19.6788 21.4772 19.7565C21.466 19.843 21.4218 19.922 21.3538 19.9771C21.2858 20.0323 21.1991 20.0594 21.1115 20.053Z" fill="white"/>
<path d="M21.1115 21.4021H11.7377C11.6585 21.4021 11.5826 21.3708 11.5266 21.3152C11.4706 21.2596 11.4391 21.1842 11.4391 21.1056C11.4391 21.0269 11.4706 20.9515 11.5266 20.8959C11.5826 20.8403 11.6585 20.8091 11.7377 20.8091H21.1787C21.2562 20.8143 21.3291 20.8472 21.384 20.9017C21.4389 20.9562 21.472 21.0287 21.4772 21.1056C21.466 21.1921 21.4218 21.271 21.3538 21.3261C21.2858 21.3813 21.1991 21.4085 21.1115 21.4021Z" fill="white"/>
<path d="M21.1116 24.2557H11.7377C11.6657 24.2444 11.6002 24.2079 11.5528 24.1529C11.5054 24.0979 11.4794 24.0279 11.4794 23.9555C11.4794 23.8831 11.5054 23.813 11.5528 23.758C11.6002 23.703 11.6657 23.6665 11.7377 23.6553H21.1788C21.2562 23.6605 21.3291 23.6934 21.384 23.7479C21.4389 23.8024 21.472 23.8748 21.4773 23.9518C21.4678 24.0396 21.4244 24.1204 21.3562 24.177C21.288 24.2337 21.2003 24.2619 21.1116 24.2557Z" fill="white"/>
<path d="M21.1116 25.6048H11.7377C11.6657 25.5935 11.6002 25.5571 11.5528 25.502C11.5054 25.447 11.4794 25.377 11.4794 25.3046C11.4794 25.2322 11.5054 25.1622 11.5528 25.1071C11.6002 25.0521 11.6657 25.0157 11.7377 25.0044H21.1788C21.2574 25.0098 21.3313 25.0437 21.3864 25.0998C21.4414 25.1558 21.4738 25.2301 21.4773 25.3083C21.466 25.3948 21.4219 25.4737 21.3539 25.5289C21.2858 25.584 21.1991 25.6112 21.1116 25.6048Z" fill="white"/>
</svg>
