<svg width="49" height="48" viewBox="0 0 49 48" fill="none" xmlns="http://www.w3.org/2000/svg">
<path d="M31.8624 16.6892H33.2802V18.9046L30.8138 19.872C31.5726 18.1938 32.0515 16.4027 32.2316 14.5698C32.1694 15.2855 32.0459 15.9946 31.8624 16.6892Z" fill="white"/>
<path d="M34.6242 12.8785V16.689H31.8624C32.0282 15.9785 32.1271 15.2541 32.1578 14.5253V13.1074V12.8047H34.6242V12.8785Z" fill="#D71049"/>
<path d="M17.2925 16.6893H14.6045V12.8789H17.071C17.0124 13.2252 16.9877 13.5764 16.9972 13.9275C16.9932 14.8562 17.0922 15.7825 17.2925 16.6893Z" fill="#D71049"/>
<path d="M32.1578 12.8787V13.1815C31.9722 11.3131 31.0969 9.58098 29.7027 8.32335C28.3086 7.06573 26.4957 6.37294 24.6181 6.3803C22.7915 6.38415 21.0265 7.04143 19.6423 8.2333C18.2581 9.42517 17.3461 11.073 17.071 12.8787H15.8009C16.3252 7.79813 20.0618 3.76611 24.6181 3.76611C29.1744 3.76611 32.911 7.72429 33.4279 12.8787H32.1578Z" fill="#005993"/>
<path d="M30.8138 19.9013C29.5436 22.6706 27.4538 25.0706 24.6181 25.0706C20.7338 25.0706 18.1935 20.5881 17.3664 16.7776C17.1703 15.895 17.0713 14.9937 17.071 14.0896C17.0561 13.7409 17.0809 13.3915 17.1449 13.0484H17.071C17.3445 11.2412 18.2558 9.5917 19.6402 8.39834C21.0245 7.20498 22.7904 6.54667 24.6181 6.54254C26.4957 6.53519 28.3086 7.22797 29.7027 8.4856C31.0969 9.74322 31.9722 11.4754 32.1578 13.3438V14.7616C32.0201 16.5413 31.5649 18.282 30.8138 19.9013Z" fill="#F2F4F7"/>
<path d="M19.9805 25.8755L24.463 31.9309L22.0778 34.3974L18.2673 27.4484L19.9805 25.8755Z" fill="#F2F4F7"/>
<path d="M30.6661 27.4484L26.7079 34.0207L24.463 31.9309L28.9455 25.8755L30.6661 27.4484Z" fill="#F2F4F7"/>
<path d="M30.6661 27.4487C41.0045 33.3564 39.7787 30.5872 39.7787 42.314C29.6817 44.6697 19.1779 44.6697 9.08084 42.314C9.08084 30.4986 7.88453 33.349 18.1935 27.4487L22.0039 34.3977L24.3892 32.0051L26.6045 34.0949L30.6661 27.4487Z" fill="#005993"/>
<path d="M30.6661 37.2332H27.1584C27.1152 37.24 27.071 37.2374 27.0289 37.2255C26.9868 37.2136 26.9478 37.1927 26.9145 37.1643C26.8813 37.1358 26.8546 37.1006 26.8363 37.0608C26.818 37.0211 26.8085 36.9779 26.8085 36.9341C26.8085 36.8904 26.818 36.8472 26.8363 36.8074C26.8546 36.7677 26.8813 36.7324 26.9145 36.7039C26.9478 36.6755 26.9868 36.6547 27.0289 36.6428C27.071 36.6309 27.1152 36.6282 27.1584 36.635H30.6661C30.7439 36.6404 30.817 36.6742 30.8715 36.7301C30.926 36.7859 30.958 36.8599 30.9615 36.9378C30.9648 36.9775 30.9595 37.0173 30.9459 37.0547C30.9322 37.0921 30.9105 37.126 30.8824 37.1542C30.8543 37.1823 30.8204 37.2039 30.783 37.2176C30.7456 37.2312 30.7057 37.2365 30.6661 37.2332Z" fill="#D71049"/>
<path d="M30.6661 39.397H27.1584C27.0805 39.3935 27.0065 39.3615 26.9507 39.3071C26.8948 39.2526 26.861 39.1795 26.8556 39.1016C26.8608 39.023 26.8944 38.949 26.9501 38.8933C27.0058 38.8376 27.0798 38.804 27.1584 38.7988H30.6661C30.7434 38.8057 30.8156 38.8401 30.8698 38.8956C30.924 38.9511 30.9565 39.0242 30.9615 39.1016C30.9648 39.1413 30.9595 39.1812 30.9459 39.2185C30.9322 39.2559 30.9105 39.2898 30.8824 39.318C30.8543 39.3461 30.8204 39.3677 30.783 39.3814C30.7456 39.395 30.7057 39.4003 30.6661 39.397Z" fill="white"/>
<path d="M32.1578 13.706C32.0805 13.6991 32.0082 13.6648 31.9541 13.6093C31.8999 13.5537 31.8674 13.4807 31.8624 13.4032V13.2555C31.8624 13.1078 32.0101 12.8789 32.1578 12.8789C32.3055 12.8789 32.5344 13.034 32.5344 13.1817V13.4032C32.5233 13.4927 32.4777 13.5744 32.4074 13.6309C32.3371 13.6874 32.2476 13.7143 32.1578 13.706Z" fill="#4D80C9"/>
<path d="M25.5116 22.2202C25.3639 22.2202 25.2162 22.1463 25.2162 21.9912C25.199 21.9478 25.1911 21.9012 25.1932 21.8545C25.1952 21.8077 25.207 21.762 25.2279 21.7201C25.2488 21.6783 25.2783 21.6414 25.3145 21.6117C25.3507 21.5821 25.3927 21.5604 25.4378 21.5481L33.0587 18.6312V16.6152C33.0639 16.5386 33.0967 16.4664 33.151 16.4121C33.2053 16.3578 33.2774 16.325 33.3541 16.3198C33.4315 16.3248 33.5046 16.3573 33.5601 16.4115C33.6157 16.4657 33.65 16.538 33.6568 16.6152V18.8306C33.6568 18.9783 33.583 19.126 33.4279 19.126L25.6593 22.0799C25.6472 22.1131 25.6276 22.143 25.6019 22.1673C25.5763 22.1917 25.5454 22.2098 25.5116 22.2202Z" fill="#0085B8"/>
</svg>
