<svg width="48" height="48" viewBox="0 0 48 48" fill="none" xmlns="http://www.w3.org/2000/svg">
<g clip-path="url(#clip0_1516_35748)">
<mask id="mask0_1516_35748" style="mask-type:luminance" maskUnits="userSpaceOnUse" x="0" y="0" width="48" height="48">
<path d="M48 0H0V48H48V0Z" fill="white"/>
</mask>
<g mask="url(#mask0_1516_35748)">
<path d="M9.89093 23.6375V12.4992H8.12305L10.9388 8.83057L13.7538 12.4992H12.0044V23.6375H9.89093Z" fill="#D71049"/>
<path d="M17.3744 25.9589V19.5432H15.6066L18.4223 15.8745L21.2381 19.5432H19.4879V25.9589H17.3744Z" fill="#D71049"/>
<path d="M32.6709 23.8184C36.8097 23.8184 40.1648 20.4632 40.1648 16.3245C40.1648 12.1857 36.8097 8.83057 32.6709 8.83057C28.5321 8.83057 25.177 12.1857 25.177 16.3245C25.177 20.4632 28.5321 23.8184 32.6709 23.8184Z" fill="#005993"/>
<path d="M32.6887 22.0319C35.8107 22.0319 38.3416 19.501 38.3416 16.379C38.3416 13.257 35.8107 10.7261 32.6887 10.7261C29.5667 10.7261 27.0358 13.257 27.0358 16.379C27.0358 19.501 29.5667 22.0319 32.6887 22.0319Z" fill="white"/>
<path d="M32.1186 12.0229V13.1521C31.7255 13.2672 31.3803 13.5064 31.1344 13.8339C30.8886 14.1615 30.7554 14.5599 30.7547 14.9694C30.7547 15.4786 30.957 15.967 31.317 16.3271C31.6771 16.6871 32.1655 16.8894 32.6747 16.8894H32.6939C32.9031 16.8894 33.1038 16.9725 33.2518 17.1205C33.3998 17.2685 33.4829 17.4692 33.4829 17.6785C33.4829 17.8877 33.3998 18.0884 33.2518 18.2364C33.1038 18.3844 32.9031 18.4675 32.6939 18.4675H32.6496C32.4403 18.4671 32.2397 18.3837 32.0918 18.2356C31.9439 18.0874 31.8609 17.8867 31.8609 17.6773V17.6397H30.7532V17.6773C30.7539 18.0869 30.8871 18.4852 31.133 18.8128C31.3788 19.1404 31.7241 19.3796 32.1171 19.4947V20.6238H33.2248V19.4947C33.6628 19.3673 34.04 19.0862 34.2872 18.7029C34.5344 18.3196 34.635 17.86 34.5704 17.4085C34.5058 16.957 34.2804 16.544 33.9357 16.2454C33.5909 15.9468 33.15 15.7827 32.6939 15.7832H32.6732C32.5665 15.7832 32.4609 15.7622 32.3623 15.7214C32.2638 15.6805 32.1742 15.6207 32.0988 15.5453C32.0234 15.4698 31.9635 15.3803 31.9227 15.2817C31.8819 15.1832 31.8609 15.0776 31.8609 14.9709C31.8613 14.7618 31.9445 14.5615 32.0923 14.4136C32.2401 14.2658 32.4405 14.1826 32.6496 14.1822H32.6931C32.7969 14.1818 32.8997 14.2019 32.9956 14.2412C33.0916 14.2806 33.1789 14.3385 33.2524 14.4116C33.326 14.4847 33.3845 14.5716 33.4245 14.6673C33.4645 14.763 33.4852 14.8657 33.4855 14.9694V14.982H34.5932V14.9694C34.5925 14.5599 34.4594 14.1617 34.2137 13.8341C33.968 13.5066 33.6229 13.2673 33.23 13.1521V12.0229H32.1223H32.1186Z" fill="#D71049"/>
<path d="M32.7492 30.2134H26.2153V43.7139H32.7492V30.2134Z" fill="#D71049"/>
<path d="M44.5647 26.521H38.0308V43.7139H44.5647V26.521Z" fill="#005993"/>
<path d="M21.6723 33.167H15.1384V43.7137H21.6723V33.167Z" fill="#005993"/>
<path d="M10.5954 36.1211H4.06152V43.714H10.5954V36.1211Z" fill="#D71049"/>
<path d="M3.69226 44.3076H44.3076" stroke="#0085B8" stroke-linecap="round"/>
</g>
</g>
<defs>
<clipPath id="clip0_1516_35748">
<rect width="48" height="48" rx="8" fill="white"/>
</clipPath>
</defs>
</svg>
