<svg width="45" height="45" viewBox="0 0 45 45" fill="none" xmlns="http://www.w3.org/2000/svg">
<path d="M24.6446 28.8086L24.4793 29.5112L26.2324 30.0528L26.7274 28.7695L26.7686 28.6628L27.6519 27.7916L27.6519 27.7916L27.6564 27.7871C28.1792 27.2643 28.6542 26.9082 29.0786 26.6887L29.1098 26.6726L29.1397 26.6541C29.8768 26.1984 30.8457 26.0927 31.8759 26.5185C32.2914 26.6945 32.7462 26.9372 33.2411 27.2834C33.242 27.284 33.2429 27.2846 33.2437 27.2852L39.325 31.6081L39.3339 31.6144L39.3429 31.6205C39.8838 31.986 40.2545 32.434 40.473 32.9479C40.7084 33.5474 40.8081 34.0716 40.8081 34.5802C40.8081 35.3191 40.6388 36.0669 40.3078 36.7763C39.9617 37.5178 39.5371 38.1541 38.9965 38.7438L38.9925 38.7482C38.0283 39.8139 37.0036 40.5508 35.8292 41.0238L35.827 41.0247C34.6724 41.4933 33.4149 41.7456 32.0844 41.7456C30.1601 41.7456 28.1011 41.2857 25.9358 40.3705L24.6446 28.8086ZM24.6446 28.8086C24.21 28.5248 23.6651 28.1192 22.9888 27.5498C22.1153 26.8279 21.1954 25.9632 20.1097 24.896L20.1034 24.8898L20.0972 24.8834C19.2365 24.004 18.3804 23.0545 17.4773 22.0224L17.4693 22.0133L17.4694 22.0132C16.5995 20.9921 16.1231 20.2851 15.8676 19.8381L15.855 19.816L15.8436 19.7931L15.8417 19.7895C15.8199 19.7458 15.7778 19.6617 15.7387 19.5443L15.5633 19.0181L15.9469 18.6174L17.1936 17.3158L17.2005 17.3086L17.2075 17.3016C17.6996 16.8095 18.0609 16.3453 18.2822 15.9469L18.2896 15.9335L18.2975 15.9204C18.6064 15.4056 18.7531 14.8891 18.7531 14.3769C18.7531 13.9933 18.6603 13.5678 18.4623 13.1108L18.456 13.0963L18.4502 13.0815C18.2831 12.6563 18.0322 12.2108 17.6813 11.7262L17.676 11.719L17.6761 11.719L13.4227 5.72399L13.415 5.7131L13.4076 5.70198C13.0691 5.19426 12.6007 4.80645 12.0274 4.54184L12.0212 4.53898L12.0212 4.53895C11.5218 4.30393 10.9223 4.16815 10.3411 4.16815C8.88975 4.16815 7.50106 4.74713 6.23877 5.99304L6.22982 6.00187L6.22063 6.01046C5.1973 6.96668 4.4528 8.06358 3.99203 9.23148C3.54009 10.3869 3.30405 11.6293 3.30405 12.9469C3.30405 14.8767 3.74813 16.9555 4.66203 19.1351C5.52872 21.1866 6.75625 23.3256 8.29911 25.4789C9.82885 27.5662 11.5568 29.6002 13.4649 31.5268C15.3931 33.4185 17.4288 35.1478 19.5354 36.6965M24.6446 28.8086L19.5354 36.6965M19.5354 36.6965C21.6514 38.2204 23.8093 39.4667 25.9357 40.3705L19.5354 36.6965ZM29.5457 27.4334C29.9124 27.2115 30.3034 27.0505 30.7471 27.0865C30.9617 27.1039 31.1362 27.1639 31.2579 27.2125C31.3152 27.2353 31.3709 27.2598 31.4122 27.2781L31.4157 27.2797C31.4617 27.2999 31.4972 27.3156 31.5343 27.3307L31.5362 27.3315C31.9224 27.4905 32.3115 27.7096 32.7218 27.9968L32.7272 28.0006L32.7272 28.0007L38.8076 32.3229C39.3044 32.6646 39.5074 32.9964 39.617 33.2156L39.6263 33.2343L39.6348 33.2534C39.8338 33.7011 39.9157 34.1216 39.9157 34.5435C39.9157 35.163 39.7726 35.7738 39.497 36.3493C39.1852 37.0136 38.8056 37.5848 38.3211 38.1125C37.4846 39.0495 36.5488 39.7193 35.4797 40.1598C32.7442 41.2989 29.5372 40.9049 26.2814 39.5156C24.1906 38.6409 22.0944 37.4303 20.0657 35.9464C20.0654 35.9462 20.0651 35.946 20.0648 35.9458L20.6078 35.2035L29.5457 27.4334ZM29.5457 27.4334C29.0662 27.6804 28.6654 28.0273 28.283 28.4094C28.2823 28.4101 28.2816 28.4109 28.2808 28.4116L26.896 29.7782C26.8954 29.7788 26.8948 29.7794 26.8942 29.7799C26.4614 30.2002 25.7588 30.32 25.2225 30.133L24.7901 29.9408C24.1206 29.5777 23.3058 29.0032 22.3775 28.2152C21.5197 27.4825 20.5846 26.6198 19.4437 25.4973C18.5611 24.5964 17.6782 23.6413 16.7586 22.5775C15.9367 21.6156 15.3682 20.8257 15.0249 20.2002L14.8468 19.7551C14.7588 19.4092 14.744 19.2639 14.744 19.1252C14.744 18.702 14.8904 18.3514 15.1714 18.0705L15.1777 18.0641L15.184 18.0576L16.5529 16.6339C16.954 16.232 17.2784 15.8279 17.5092 15.4375C17.724 15.0859 17.8424 14.7222 17.8424 14.3402C17.8424 14.0197 17.7377 13.6705 17.625 13.3998L17.6219 13.3924L17.6186 13.3849C17.4546 13.0101 17.2134 12.6221 16.9352 12.2437L12.6869 6.23749L12.6869 6.23748L12.6844 6.23402C12.4114 5.85173 12.0688 5.56387 11.6467 5.36686L11.6366 5.36215L11.6264 5.35769C11.2335 5.18579 10.7966 5.07892 10.3411 5.07892C9.035 5.07892 7.8833 5.65794 6.86364 6.65403L29.5457 27.4334Z" fill="white" stroke="white" stroke-width="1.83923"/>
</svg>
