<svg width="64" height="64" viewBox="0 0 64 64" fill="none" xmlns="http://www.w3.org/2000/svg">
<path d="M59.5 31.1909C59.5 16.0029 47.188 3.69092 32 3.69092C16.812 3.69092 4.5 16.0029 4.5 31.1909C4.5 40.5869 9.215 48.8779 16.405 53.8379H47.596C54.785 48.8779 59.5 40.5869 59.5 31.1909Z" fill="#EDF8FD"/>
<path d="M20.375 57.0737H43.625" stroke="#7ED3F7" stroke-width="1.5" stroke-miterlimit="10" stroke-linecap="round" stroke-linejoin="round"/>
<path d="M27.641 60.3091H32.314" stroke="#7ED3F7" stroke-width="1.5" stroke-miterlimit="10" stroke-linecap="round" stroke-linejoin="round"/>
<path d="M35.166 60.3091H36.415" stroke="#7ED3F7" stroke-width="1.5" stroke-miterlimit="10" stroke-linecap="round" stroke-linejoin="round"/>
<path d="M53.213 51.8827C53.213 50.8027 52.338 49.9277 51.258 49.9277H42.186C41.106 49.9277 40.231 50.8027 40.231 51.8827C40.231 52.9627 41.106 53.8377 42.186 53.8377H51.258C52.337 53.8377 53.213 52.9627 53.213 51.8827Z" fill="#4CB8E9"/>
<path d="M54.406 47.9716C54.406 46.8916 53.531 46.0166 52.451 46.0166H43.379C42.299 46.0166 41.424 46.8916 41.424 47.9716C41.424 49.0516 42.299 49.9266 43.379 49.9266H52.451C53.531 49.9266 54.406 49.0516 54.406 47.9716Z" fill="#7ED3F7"/>
<path d="M53.213 44.0605C53.213 42.9805 52.338 42.1055 51.258 42.1055H42.186C41.106 42.1055 40.231 42.9805 40.231 44.0605C40.231 45.1405 41.106 46.0155 42.186 46.0155H51.258C52.337 46.0165 53.213 45.1405 53.213 44.0605Z" fill="#4CB8E9"/>
<path d="M56.794 32.3285C56.794 31.2485 55.919 30.3735 54.839 30.3735H45.767C44.687 30.3735 43.812 31.2485 43.812 32.3285C43.812 33.4085 44.687 34.2835 45.767 34.2835H54.839C55.919 34.2835 56.794 33.4085 56.794 32.3285Z" fill="#7ED3F7"/>
<path d="M54.8749 36.2382C54.8749 35.1582 53.9999 34.2832 52.9199 34.2832H43.8479C42.7679 34.2832 41.8929 35.1582 41.8929 36.2382C41.8929 37.3182 42.7679 38.1932 43.8479 38.1932H52.9199C53.9999 38.1932 54.8749 37.3182 54.8749 36.2382Z" fill="#4CB8E9"/>
<path d="M52.9557 40.1484C52.9557 39.0684 52.0807 38.1934 51.0007 38.1934H41.9287C40.8487 38.1934 39.9737 39.0684 39.9737 40.1484C39.9737 41.2284 40.8487 42.1034 41.9287 42.1034H51.0007C52.0807 42.1034 52.9557 41.2284 52.9557 40.1484Z" fill="#7ED3F7"/>
<path d="M54.1553 28.4189C54.1553 27.3389 53.2803 26.4639 52.2003 26.4639H43.1283C42.0483 26.4639 41.1733 27.3389 41.1733 28.4189C41.1733 29.4989 42.0483 30.3739 43.1283 30.3739H52.2003C53.2803 30.3739 54.1553 29.4989 54.1553 28.4189Z" fill="#4CB8E9"/>
<path d="M57.2741 24.5092C57.2741 23.4292 56.3991 22.5542 55.3191 22.5542H46.2471C45.1671 22.5542 44.2921 23.4292 44.2921 24.5092C44.2921 25.5892 45.1671 26.4642 46.2471 26.4642H55.3191C56.3991 26.4642 57.2741 25.5892 57.2741 24.5092Z" fill="#7ED3F7"/>
<path d="M38.406 40.1498C38.406 39.0698 37.531 38.1948 36.451 38.1948H27.379C26.299 38.1948 25.424 39.0698 25.424 40.1498C25.424 41.2298 26.299 42.1048 27.379 42.1048H36.451C37.531 42.1058 38.406 41.2298 38.406 40.1498Z" fill="#4CB8E9"/>
<path d="M39.6 36.2397C39.6 35.1597 38.725 34.2847 37.645 34.2847H28.573C27.493 34.2847 26.618 35.1597 26.618 36.2397C26.618 37.3197 27.493 38.1947 28.573 38.1947H37.645C38.725 38.1947 39.6 37.3197 39.6 36.2397Z" fill="#7ED3F7"/>
<path d="M37.213 44.0605C37.213 42.9805 36.338 42.1055 35.258 42.1055H26.186C25.106 42.1055 24.231 42.9805 24.231 44.0605C24.231 45.1405 25.106 46.0155 26.186 46.0155H35.258C36.337 46.0165 37.213 45.1405 37.213 44.0605Z" fill="#7ED3F7"/>
<path d="M39.2071 47.9706C39.2071 46.8906 38.3321 46.0156 37.2521 46.0156H28.1801C27.1001 46.0156 26.2251 46.8906 26.2251 47.9706C26.2251 49.0506 27.1001 49.9256 28.1801 49.9256H37.2521C38.3311 49.9266 39.2071 49.0506 39.2071 47.9706Z" fill="#4CB8E9"/>
<path d="M37.63 51.8808C37.63 50.8008 36.755 49.9258 35.675 49.9258H26.603C25.523 49.9258 24.648 50.8008 24.648 51.8808C24.648 52.9608 25.523 53.8358 26.603 53.8358H35.675C36.754 53.8368 37.63 52.9608 37.63 51.8808Z" fill="#7ED3F7"/>
<path d="M20.983 51.8827C20.983 50.8027 20.108 49.9277 19.028 49.9277H9.955C8.875 49.9267 8 50.8027 8 51.8827C8 52.9627 8.875 53.8377 9.955 53.8377H19.027C20.107 53.8377 20.983 52.9627 20.983 51.8827Z" fill="#7ED3F7"/>
<path d="M22.177 47.9716C22.177 46.8916 21.302 46.0166 20.222 46.0166H11.15C10.07 46.0166 9.19501 46.8916 9.19501 47.9716C9.19501 49.0516 10.07 49.9266 11.15 49.9266H20.222C21.301 49.9266 22.177 49.0516 22.177 47.9716Z" fill="#4CB8E9"/>
<path d="M24.424 22.5519C30 20.9999 33.166 26.4629 33.166 30.3739C33.166 30.3739 32.988 21.9789 37.854 17.7539" stroke="white" stroke-width="1.5" stroke-miterlimit="10" stroke-linecap="round" stroke-linejoin="round"/>
<path d="M16.242 37.7276C17.136 32.0806 18.722 26.9456 21.511 24.2656" stroke="white" stroke-width="1.5" stroke-miterlimit="10" stroke-linecap="round" stroke-linejoin="round"/>
<path d="M15.685 42.106C15.74 41.549 15.801 40.991 15.868 40.436" stroke="white" stroke-width="1.5" stroke-miterlimit="10" stroke-linecap="round" stroke-linejoin="round"/>
<path d="M36.603 11.1318L40.511 16.1348L40.208 22.6498L53.537 12.1038L36.603 11.1318Z" fill="#D71049"/>
</svg>
