<svg width="64" height="64" viewBox="0 0 64 64" fill="none" xmlns="http://www.w3.org/2000/svg">
<path d="M59.5 31.1909C59.5 16.0029 47.188 3.69092 32 3.69092C16.812 3.69092 4.5 16.0029 4.5 31.1909C4.5 40.5869 9.215 48.8779 16.405 53.8379H47.596C54.785 48.8779 59.5 40.5869 59.5 31.1909Z" fill="#EDF8FD"/>
<path d="M20.375 57.0737H43.625" stroke="#7ED3F7" stroke-width="1.5" stroke-miterlimit="10" stroke-linecap="round" stroke-linejoin="round"/>
<path d="M27.641 60.3091H32.314" stroke="#7ED3F7" stroke-width="1.5" stroke-miterlimit="10" stroke-linecap="round" stroke-linejoin="round"/>
<path d="M35.166 60.3091H36.415" stroke="#7ED3F7" stroke-width="1.5" stroke-miterlimit="10" stroke-linecap="round" stroke-linejoin="round"/>
<path d="M45.452 47.0107H40.704H18.548C16.8 47.0107 15.383 48.4277 15.383 50.1757V50.6717C15.383 52.4197 16.8 53.8367 18.548 53.8367H45.453C47.201 53.8367 48.618 52.4197 48.618 50.6717V50.1757C48.618 48.4277 47.2 47.0107 45.452 47.0107Z" fill="#4CB8E9"/>
<path d="M44.397 11.2369C43.21 10.5369 40.44 10.6839 39.325 12.3989C38.209 14.1139 35.231 13.9819 35.231 12.3989C35.231 10.8159 34.11 8.83789 32 8.83789C29.89 8.83789 28.769 10.8159 28.769 12.3989C28.769 13.9819 25.791 14.1139 24.675 12.3989C23.559 10.6839 20.79 10.5369 19.603 11.2369C18.416 11.9369 22.884 12.7289 24.673 16.9819H39.328C41.116 12.7289 45.584 11.9379 44.397 11.2369Z" fill="#7ED3F7"/>
<path d="M45.452 47.0109V38.8419C45.452 32.9729 44.661 26.1809 39.253 20.3779H24.746C19.339 26.1809 18.547 32.9729 18.547 38.8419V47.0109H45.452Z" fill="#7ED3F7"/>
<path d="M39.327 20.3779C40.265 20.3779 41.025 19.6179 41.025 18.6799C41.025 17.7419 40.265 16.9819 39.327 16.9819H24.673C23.735 16.9819 22.975 17.7419 22.975 18.6799C22.975 19.6179 23.735 20.3779 24.673 20.3779H24.747H39.254H39.327Z" fill="#D71049"/>
<path d="M35.549 36.9998C35.549 35.3728 34.598 34.3008 32.686 33.9068V30.0178C33.128 30.0888 33.521 30.2238 33.928 30.4128C34.046 30.4808 34.198 30.5148 34.316 30.5148C34.687 30.5148 34.957 30.1938 34.957 29.8388C34.957 29.6028 34.822 29.3998 34.586 29.2648C34.077 28.9868 33.436 28.7588 32.686 28.6688V27.5258C32.686 27.1468 32.379 26.8398 32 26.8398C31.621 26.8398 31.314 27.1468 31.314 27.5258V28.6988C29.694 28.9888 28.607 30.2128 28.607 31.9668C28.607 33.5258 29.517 34.5958 31.314 35.0268V39.1158C30.623 39.0148 29.963 38.7578 29.469 38.4518C29.351 38.3848 29.199 38.3508 29.081 38.3508C28.676 38.3508 28.422 38.6548 28.422 39.0428C28.422 39.2798 28.54 39.4988 28.776 39.6338C29.402 40.0148 30.271 40.3548 31.314 40.4438V41.5758C31.314 41.9548 31.621 42.2618 32 42.2618C32.379 42.2618 32.686 41.9548 32.686 41.5758V40.3848C34.479 40.0788 35.549 38.8018 35.549 36.9998ZM29.992 31.8488C29.992 30.9368 30.496 30.2778 31.314 30.0448V33.6068C30.33 33.2758 29.992 32.6878 29.992 31.8488ZM32.686 39.0578V35.3218C33.754 35.6298 34.164 36.2288 34.164 37.0848C34.164 38.1358 33.604 38.8158 32.686 39.0578Z" fill="white"/>
</svg>
