<svg width="65" height="64" viewBox="0 0 65 64" fill="none" xmlns="http://www.w3.org/2000/svg">
<path d="M59.8333 31.1909C59.8333 16.0029 47.5213 3.69092 32.3333 3.69092C17.1453 3.69092 4.83328 16.0029 4.83328 31.1909C4.83328 40.5869 9.54828 48.8779 16.7383 53.8379H47.9293C55.1183 48.8779 59.8333 40.5869 59.8333 31.1909Z" fill="#EDF8FD"/>
<path d="M20.7083 57.0737H43.9583" stroke="#7ED3F7" stroke-width="1.5" stroke-miterlimit="10" stroke-linecap="round" stroke-linejoin="round"/>
<path d="M27.9743 60.3091H32.6473" stroke="#7ED3F7" stroke-width="1.5" stroke-miterlimit="10" stroke-linecap="round" stroke-linejoin="round"/>
<path d="M35.4993 60.3091H36.7483" stroke="#7ED3F7" stroke-width="1.5" stroke-miterlimit="10" stroke-linecap="round" stroke-linejoin="round"/>
<path d="M32.2183 44.061C32.2183 42.981 33.0933 42.106 34.1733 42.106H43.2453C44.3253 42.106 45.2003 42.981 45.2003 44.061C45.2003 45.141 44.3253 46.016 43.2453 46.016H34.1733C33.0933 46.017 32.2183 45.141 32.2183 44.061Z" fill="#4CB8E9"/>
<path d="M31.0243 40.1498C31.0243 39.0698 31.8993 38.1948 32.9793 38.1948H42.0513C43.1313 38.1948 44.0063 39.0698 44.0063 40.1498C44.0063 41.2298 43.1313 42.1048 42.0513 42.1048H32.9793C31.9003 42.1058 31.0243 41.2298 31.0243 40.1498Z" fill="#7ED3F7"/>
<path d="M32.2183 36.2397C32.2183 35.1597 33.0933 34.2847 34.1733 34.2847H43.2453C44.3253 34.2847 45.2003 35.1597 45.2003 36.2397C45.2003 37.3197 44.3253 38.1947 43.2453 38.1947H34.1733C33.0933 38.1947 32.2183 37.3197 32.2183 36.2397Z" fill="#4CB8E9"/>
<path d="M28.6363 24.5068C28.6363 23.4268 29.5113 22.5518 30.5913 22.5518H39.6633C40.7433 22.5518 41.6183 23.4268 41.6183 24.5068C41.6183 25.5868 40.7433 26.4618 39.6633 26.4618H30.5913C29.5123 26.4628 28.6363 25.5868 28.6363 24.5068Z" fill="#7ED3F7"/>
<path d="M29.8303 28.415C29.8303 27.335 30.7053 26.46 31.7853 26.46H40.8573C41.9373 26.46 42.8123 27.335 42.8123 28.415C42.8123 29.495 41.9373 30.37 40.8573 30.37H31.7853C30.7063 30.371 29.8303 29.495 29.8303 28.415Z" fill="#4CB8E9"/>
<path d="M31.4574 32.3227C31.4574 31.2427 32.3324 30.3677 33.4124 30.3677H42.4844C43.5644 30.3677 44.4394 31.2427 44.4394 32.3227C44.4394 33.4027 43.5644 34.2777 42.4844 34.2777H33.4124C32.3334 34.2787 31.4574 33.4027 31.4574 32.3227Z" fill="#7ED3F7"/>
<path d="M29.8303 20.5966C29.8303 19.5166 30.7053 18.6416 31.7853 18.6416H40.8573C41.9373 18.6416 42.8123 19.5166 42.8123 20.5966C42.8123 21.6766 41.9373 22.5516 40.8573 22.5516H31.7853C30.7063 22.5516 29.8303 21.6756 29.8303 20.5966Z" fill="#4CB8E9"/>
<path d="M28.5709 16.686C28.5709 15.606 29.4459 14.731 30.5259 14.731H39.5979C40.6779 14.731 41.5529 15.606 41.5529 16.686C41.5529 17.766 40.6779 18.641 39.5979 18.641H30.5259C29.4469 18.641 28.5709 17.765 28.5709 16.686Z" fill="#7ED3F7"/>
<path d="M49.5463 51.8827C49.5463 50.8027 48.6713 49.9277 47.5913 49.9277H38.5193C37.4393 49.9277 36.5643 50.8027 36.5643 51.8827C36.5643 52.9627 37.4393 53.8377 38.5193 53.8377H47.5913C48.6703 53.8377 49.5463 52.9627 49.5463 51.8827Z" fill="#7ED3F7"/>
<path d="M50.7393 47.9716C50.7393 46.8916 49.8643 46.0166 48.7843 46.0166H39.7123C38.6323 46.0166 37.7573 46.8916 37.7573 47.9716C37.7573 49.0516 38.6323 49.9266 39.7123 49.9266H48.7843C49.8643 49.9266 50.7393 49.0516 50.7393 47.9716Z" fill="#4CB8E9"/>
<path d="M49.5463 44.061C49.5463 42.981 48.6713 42.106 47.5913 42.106H38.5193C37.4393 42.106 36.5643 42.981 36.5643 44.061C36.5643 45.141 37.4393 46.016 38.5193 46.016H47.5913C48.6703 46.017 49.5463 45.141 49.5463 44.061Z" fill="#7ED3F7"/>
<path d="M53.1273 32.3285C53.1273 31.2485 52.2523 30.3735 51.1723 30.3735H42.1003C41.0203 30.3735 40.1453 31.2485 40.1453 32.3285C40.1453 33.4085 41.0203 34.2835 42.1003 34.2835H51.1723C52.2523 34.2835 53.1273 33.4085 53.1273 32.3285Z" fill="#4CB8E9"/>
<path d="M51.6913 36.1811C51.6913 35.1011 50.8163 34.2261 49.7363 34.2261H40.6643C39.5843 34.2261 38.7093 35.1011 38.7093 36.1811C38.7093 37.2611 39.5843 38.1361 40.6643 38.1361H49.7363C50.8163 38.1361 51.6913 37.2611 51.6913 36.1811Z" fill="#7ED3F7"/>
<path d="M49.7304 40.0341C49.7304 38.9541 48.8554 38.0791 47.7754 38.0791H38.7034C37.6234 38.0791 36.7484 38.9541 36.7484 40.0341C36.7484 41.1141 37.6234 41.9891 38.7034 41.9891H47.7754C48.8554 41.9891 49.7304 41.1141 49.7304 40.0341Z" fill="#4CB8E9"/>
<path d="M51.6913 28.4169C51.6913 27.3369 50.8163 26.4619 49.7363 26.4619H40.6643C39.5843 26.4619 38.7093 27.3369 38.7093 28.4169C38.7093 29.4969 39.5843 30.3719 40.6643 30.3719H49.7363C50.8163 30.3719 51.6913 29.4969 51.6913 28.4169Z" fill="#7ED3F7"/>
<path d="M52.8363 24.5048C52.8363 23.4248 51.9613 22.5498 50.8813 22.5498H41.8093C40.7293 22.5498 39.8543 23.4248 39.8543 24.5048C39.8543 25.5848 40.7293 26.4598 41.8093 26.4598H50.8813C51.9613 26.4598 52.8363 25.5848 52.8363 24.5048Z" fill="#4CB8E9"/>
<path d="M24.2153 23.334C23.2823 22.401 21.7703 22.401 20.8373 23.334L4.53428 39.636C3.60128 40.569 3.60128 42.081 4.53428 43.014L14.4593 52.939C15.3923 53.872 16.9043 53.872 17.8373 52.939L34.1403 36.636C35.0733 35.703 35.0733 34.191 34.1403 33.258L24.2153 23.334Z" fill="#4CB8E9"/>
<path d="M23.1453 29.8542L23.4673 29.5322" stroke="white" stroke-width="1.5" stroke-miterlimit="10" stroke-linecap="round" stroke-linejoin="round"/>
<path d="M16.2193 36.779L21.2283 31.77" stroke="white" stroke-width="1.5" stroke-miterlimit="10" stroke-linecap="round" stroke-linejoin="round"/>
<path d="M13.2173 38.0928C12.2843 37.1598 10.7723 37.1598 9.83928 38.0928C9.53028 38.4018 9.33328 38.7768 9.22928 39.1718C8.83528 39.2758 8.46028 39.4728 8.15028 39.7818C7.21728 40.7148 7.21728 42.2268 8.15028 43.1598C9.08328 44.0928 10.5953 44.0928 11.5283 43.1598C11.8373 42.8508 12.0343 42.4758 12.1383 42.0808C12.5323 41.9768 12.9073 41.7798 13.2173 41.4708C14.1503 40.5378 14.1503 39.0248 13.2173 38.0928Z" fill="white"/>
<path d="M29.6355 28.7555L9.95549 48.4355L13.8962 52.3762L33.5762 32.6962L29.6355 28.7555Z" fill="#D71049"/>
<path d="M14.5313 35.0909L17.3683 32.2529" stroke="white" stroke-width="1.5" stroke-miterlimit="10" stroke-linecap="round" stroke-linejoin="round"/>
</svg>
