<svg width="65" height="64" viewBox="0 0 65 64" fill="none" xmlns="http://www.w3.org/2000/svg">
<path d="M59.8333 31.1909C59.8333 16.0029 47.5213 3.69092 32.3333 3.69092C17.1453 3.69092 4.83328 16.0029 4.83328 31.1909C4.83328 40.5869 9.54828 48.8779 16.7383 53.8379H47.9293C55.1183 48.8779 59.8333 40.5869 59.8333 31.1909Z" fill="#EDF8FD"/>
<path d="M15.7083 57.0737H48.9583" stroke="#7ED3F7" stroke-width="1.5" stroke-miterlimit="10" stroke-linecap="round" stroke-linejoin="round"/>
<path d="M24.9743 60.3091H35.6473" stroke="#7ED3F7" stroke-width="1.5" stroke-miterlimit="10" stroke-linecap="round" stroke-linejoin="round"/>
<path d="M38.4993 60.3091H39.7483" stroke="#7ED3F7" stroke-width="1.5" stroke-miterlimit="10" stroke-linecap="round" stroke-linejoin="round"/>
<path d="M48.4583 11.1787H51.4113V53.7977H27.7143V11.1787H45.4583" fill="#4CB8E9"/>
<path d="M32.2293 32.6489C32.2293 28.5989 35.5123 25.3159 39.5623 25.3159C43.6123 25.3159 46.8953 28.5989 46.8953 32.6489C46.8953 36.4279 44.0363 39.5399 40.3633 39.9389" stroke="white" stroke-width="1.5" stroke-miterlimit="10" stroke-linecap="round" stroke-linejoin="round"/>
<path d="M32.2293 23.7808V19.7378L36.1283 15.8398H42.9983L46.8963 19.7378V23.7808" stroke="white" stroke-width="1.5" stroke-miterlimit="10" stroke-linecap="round" stroke-linejoin="round"/>
<path d="M46.8963 41.6987V45.7427L42.9983 49.6407H36.1283L32.2293 45.7427V41.6987" stroke="#4CB8E9" stroke-width="1.5" stroke-miterlimit="10" stroke-linecap="round" stroke-linejoin="round"/>
<path d="M39.5633 19.5068V21.6638" stroke="white" stroke-width="1.5" stroke-miterlimit="10" stroke-linecap="round" stroke-linejoin="round"/>
<path d="M12.9793 44.061C12.9793 42.981 13.8543 42.106 14.9343 42.106H24.0063C25.0863 42.106 25.9613 42.981 25.9613 44.061C25.9613 45.141 25.0863 46.016 24.0063 46.016H14.9343C13.8543 46.017 12.9793 45.141 12.9793 44.061Z" fill="#7ED3F7"/>
<path d="M14.1631 47.9706C14.1631 46.8906 15.0381 46.0156 16.1181 46.0156H25.1901C26.2701 46.0156 27.1451 46.8906 27.1451 47.9706C27.1451 49.0506 26.2701 49.9256 25.1901 49.9256H16.1181C15.0381 49.9266 14.1631 49.0506 14.1631 47.9706Z" fill="#4CB8E9"/>
<path d="M11.6309 51.8808C11.6309 50.8008 12.5059 49.9258 13.5859 49.9258H22.6579C23.7379 49.9258 24.6129 50.8008 24.6129 51.8808C24.6129 52.9608 23.7379 53.8358 22.6579 53.8358H13.5859C12.5059 53.8368 11.6309 52.9608 11.6309 51.8808Z" fill="#7ED3F7"/>
<path d="M12.9793 40.1498C12.9793 39.0698 13.8543 38.1948 14.9343 38.1948H24.0063C25.0863 38.1948 25.9613 39.0698 25.9613 40.1498C25.9613 41.2298 25.0863 42.1048 24.0063 42.1048H14.9343C13.8543 42.1058 12.9793 41.2298 12.9793 40.1498Z" fill="#4CB8E9"/>
<path d="M12.9793 28.4179C12.9793 27.3379 13.8543 26.4629 14.9343 26.4629H24.0063C25.0863 26.4629 25.9613 27.3379 25.9613 28.4179C25.9613 29.4979 25.0863 30.3729 24.0063 30.3729H14.9343C13.8543 30.3739 12.9793 29.4979 12.9793 28.4179Z" fill="#7ED3F7"/>
<path d="M12.7237 32.3066C12.7237 31.2266 13.5987 30.3516 14.6787 30.3516H23.7507C24.8307 30.3516 25.7057 31.2266 25.7057 32.3066C25.7057 33.3866 24.8307 34.2616 23.7507 34.2616H14.6787C13.5987 34.2626 12.7237 33.3866 12.7237 32.3066Z" fill="#4CB8E9"/>
<path d="M11.1347 36.2167C11.1347 35.1367 12.0097 34.2617 13.0897 34.2617H22.1617C23.2417 34.2617 24.1167 35.1367 24.1167 36.2167C24.1167 37.2967 23.2417 38.1717 22.1617 38.1717H13.0897C12.0097 38.1727 11.1347 37.2967 11.1347 36.2167Z" fill="#7ED3F7"/>
<path d="M10.3973 24.5068C10.3973 23.4268 11.2723 22.5518 12.3523 22.5518H21.4243C22.5043 22.5518 23.3793 23.4268 23.3793 24.5068C23.3793 25.5868 22.5043 26.4618 21.4243 26.4618H12.3523C11.2733 26.4628 10.3973 25.5868 10.3973 24.5068Z" fill="#4CB8E9"/>
<path d="M36.8423 45.1781L41.5403 40.4801L33.8653 32.8051L27.9113 26.8511L23.2133 31.5491C21.3693 33.3931 21.3693 36.3841 23.2133 38.2281L36.8433 51.8581C34.9983 50.0131 34.9983 47.0221 36.8423 45.1781Z" fill="#D71049"/>
<path d="M46.9143 19.7549L33.8653 32.8039L41.5403 40.4789L36.8423 45.1769C34.9983 47.0209 34.9983 50.0119 36.8423 51.8559C38.6863 53.6999 41.6773 53.6999 43.5213 51.8559L61.2693 34.1099L46.9143 19.7549Z" fill="#7ED3F7"/>
<path d="M36.2993 35.266C38.9013 32.664 43.1213 32.664 45.7233 35.266C48.3253 37.868 48.3253 42.088 45.7233 44.69C43.2953 47.118 39.4583 47.281 36.8423 45.177" stroke="white" stroke-width="1.5" stroke-miterlimit="10"/>
<path d="M54.0203 31.3848V36.3938L51.4223 38.9918" stroke="white" stroke-width="1.5" stroke-miterlimit="10" stroke-linecap="round" stroke-linejoin="round"/>
<path d="M41.9983 29.5677L44.5963 26.9697H49.6063L52.0053 29.3687" stroke="white" stroke-width="1.5" stroke-miterlimit="10" stroke-linecap="round" stroke-linejoin="round"/>
<path d="M49.2783 31.7461L48.1563 32.8681" stroke="white" stroke-width="1.5" stroke-miterlimit="10" stroke-linecap="round" stroke-linejoin="round"/>
</svg>
