<svg width="65" height="64" viewBox="0 0 65 64" fill="none" xmlns="http://www.w3.org/2000/svg">
<path d="M60.1666 31.1909C60.1666 16.0029 47.8546 3.69092 32.6666 3.69092C17.4786 3.69092 5.16663 16.0029 5.16663 31.1909C5.16663 40.5869 9.88163 48.8779 17.0716 53.8379H48.2626C55.4516 48.8779 60.1666 40.5869 60.1666 31.1909Z" fill="#EDF8FD"/>
<path d="M21.0416 57.0737H44.2916" stroke="#7ED3F7" stroke-width="1.5" stroke-miterlimit="10" stroke-linecap="round" stroke-linejoin="round"/>
<path d="M28.3076 60.3091H32.9806" stroke="#7ED3F7" stroke-width="1.5" stroke-miterlimit="10" stroke-linecap="round" stroke-linejoin="round"/>
<path d="M35.8326 60.3091H37.0816" stroke="#7ED3F7" stroke-width="1.5" stroke-miterlimit="10" stroke-linecap="round" stroke-linejoin="round"/>
<path d="M32.6667 12.4629C28.4537 12.4609 24.2177 13.8789 20.7387 16.8009C12.8967 23.3879 11.8797 35.0859 18.4677 42.9279L32.6667 30.9999V12.4629Z" fill="#7ED3F7"/>
<path d="M18.4677 42.928C25.0557 50.77 36.7527 51.787 44.5947 45.199C45.4317 44.496 46.1737 43.725 46.8547 42.916L32.6667 31L18.4677 42.928Z" fill="#D71049"/>
<path d="M46.8656 19.0719C43.1996 14.7079 37.9516 12.4649 32.6666 12.4629V30.9999L46.8536 42.9159C52.5496 36.1489 52.7506 26.0769 46.8656 19.0719Z" fill="#4CB8E9"/>
</svg>
