<svg width="65" height="64" viewBox="0 0 65 64" fill="none" xmlns="http://www.w3.org/2000/svg">
<path d="M60.1666 31.1909C60.1666 16.0029 47.8546 3.69092 32.6666 3.69092C17.4786 3.69092 5.16663 16.0029 5.16663 31.1909C5.16663 40.5869 9.88163 48.8779 17.0716 53.8379H48.2626C55.4516 48.8779 60.1666 40.5869 60.1666 31.1909Z" fill="#EDF8FD"/>
<path d="M21.0416 57.0737H44.2916" stroke="#7ED3F7" stroke-width="1.5" stroke-miterlimit="10" stroke-linecap="round" stroke-linejoin="round"/>
<path d="M28.3076 60.3091H32.9806" stroke="#7ED3F7" stroke-width="1.5" stroke-miterlimit="10" stroke-linecap="round" stroke-linejoin="round"/>
<path d="M35.8326 60.3091H37.0816" stroke="#7ED3F7" stroke-width="1.5" stroke-miterlimit="10" stroke-linecap="round" stroke-linejoin="round"/>
<path d="M13.4777 51.8827C13.4777 50.8027 14.3527 49.9277 15.4327 49.9277H24.5047C25.5847 49.9277 26.4597 50.8027 26.4597 51.8827C26.4597 52.9627 25.5847 53.8377 24.5047 53.8377H15.4327C14.3537 53.8377 13.4777 52.9627 13.4777 51.8827Z" fill="#4CB8E9"/>
<path d="M12.2847 47.9721C12.2847 46.8921 13.1597 46.0171 14.2397 46.0171H23.3117C24.3917 46.0171 25.2667 46.8921 25.2667 47.9721C25.2667 49.0521 24.3917 49.9271 23.3117 49.9271H14.2397C13.1597 49.9271 12.2847 49.0521 12.2847 47.9721Z" fill="#7ED3F7"/>
<path d="M13.4777 44.061C13.4777 42.981 14.3527 42.106 15.4327 42.106H24.5047C25.5847 42.106 26.4597 42.981 26.4597 44.061C26.4597 45.141 25.5847 46.016 24.5047 46.016H15.4327C14.3537 46.017 13.4777 45.141 13.4777 44.061Z" fill="#4CB8E9"/>
<path d="M12.3822 40.0688C12.3822 38.9888 13.2572 38.1138 14.3372 38.1138H23.4092C24.4892 38.1138 25.3642 38.9888 25.3642 40.0688C25.3642 41.1488 24.4892 42.0238 23.4092 42.0238H14.3372C13.2582 42.0248 12.3822 41.1488 12.3822 40.0688Z" fill="#7ED3F7"/>
<path d="M11.2869 36.0771C11.2869 34.9971 12.1619 34.1221 13.2419 34.1221H22.3139C23.3939 34.1221 24.2689 34.9971 24.2689 36.0771C24.2689 37.1571 23.3939 38.0321 22.3139 38.0321H13.2419C12.1629 38.0331 11.2869 37.1571 11.2869 36.0771Z" fill="#4CB8E9"/>
<path d="M9.89673 32.329C9.89673 31.249 10.7717 30.374 11.8517 30.374H20.9237C22.0037 30.374 22.8787 31.249 22.8787 32.329C22.8787 33.409 22.0037 34.284 20.9237 34.284H11.8517C10.7717 34.284 9.89673 33.409 9.89673 32.329Z" fill="#7ED3F7"/>
<path d="M11.5825 28.4189C11.5825 27.3389 12.4575 26.4639 13.5375 26.4639H22.6095C23.6895 26.4639 24.5645 27.3389 24.5645 28.4189C24.5645 29.4989 23.6895 30.3739 22.6095 30.3739H13.5375C12.4575 30.3739 11.5825 29.4989 11.5825 28.4189Z" fill="#4CB8E9"/>
<path d="M9.89661 24.5092C9.89661 23.4292 10.7716 22.5542 11.8516 22.5542H20.9236C22.0036 22.5542 22.8786 23.4292 22.8786 24.5092C22.8786 25.5892 22.0036 26.4642 20.9236 26.4642H11.8516C10.7716 26.4642 9.89661 25.5892 9.89661 24.5092Z" fill="#7ED3F7"/>
<path d="M12.2847 20.5971C12.2847 19.5171 13.1597 18.6421 14.2397 18.6421H23.3117C24.3917 18.6421 25.2667 19.5171 25.2667 20.5971C25.2667 21.6771 24.3917 22.5521 23.3117 22.5521H14.2397C13.1597 22.5521 12.2847 21.6761 12.2847 20.5971Z" fill="#4CB8E9"/>
<path d="M13.4777 16.686C13.4777 15.606 14.3527 14.731 15.4327 14.731H24.5047C25.5847 14.731 26.4597 15.606 26.4597 16.686C26.4597 17.766 25.5847 18.641 24.5047 18.641H15.4327C14.3537 18.641 13.4777 17.766 13.4777 16.686Z" fill="#7ED3F7"/>
<path d="M50.6247 33.9829C49.3737 27.6169 42.9407 22.7669 35.1447 22.7669L33.1117 22.8819C32.4787 22.9549 31.8577 23.0589 31.2487 23.1909L31.2917 23.1669C25.0147 20.7219 19.8197 22.0079 19.3657 22.7669C18.9117 23.5259 20.1597 25.2719 22.7247 27.9229L22.7467 27.9109C21.1587 29.6349 20.0587 31.6969 19.6087 33.9519L19.6007 33.9199C16.8957 34.3169 14.7197 35.2009 14.9237 37.6489C15.1277 40.0969 16.1737 42.1629 17.2557 43.4969C18.6707 45.2419 20.1547 44.5169 21.8577 43.4969L21.8527 43.4749C23.1427 45.1989 24.8757 46.6509 26.9137 47.7199L26.9097 47.7189C27.5057 50.7559 26.0777 53.8369 26.0777 53.8369H30.4637C30.4637 53.8369 32.6507 51.7609 32.9117 49.4639L35.1057 49.6959C36.1377 49.6959 37.3997 49.5519 37.3997 49.5519C38.0457 53.4989 37.3997 53.8369 37.3997 53.8369H43.3497C43.3497 53.8369 50.4217 45.4339 50.8437 36.2309L50.6247 33.9829Z" fill="#D71049"/>
<path d="M54.3446 30.9035C54.2046 29.9375 53.0636 29.7445 52.4736 30.1785C51.8836 30.6125 51.8736 31.6015 52.4526 32.3885C53.0306 33.1755 54.3446 33.1785 55.2256 32.5445C56.0986 31.9165 56.5556 31.2245 56.3526 29.2705" stroke="white" stroke-width="1.5" stroke-miterlimit="10" stroke-linecap="round" stroke-linejoin="round"/>
<path d="M52.7336 32.6699C50.5956 35.0489 48.2916 33.6749 48.2916 33.6749" stroke="white" stroke-width="1.5" stroke-miterlimit="10" stroke-linecap="round" stroke-linejoin="round"/>
<path d="M25.4097 33.4089C26.0857 33.4089 26.6337 32.8609 26.6337 32.1849C26.6337 31.5089 26.0857 30.9609 25.4097 30.9609C24.7337 30.9609 24.1857 31.5089 24.1857 32.1849C24.1857 32.8609 24.7337 33.4089 25.4097 33.4089Z" fill="white"/>
<path d="M40.0697 26.8869C42.8333 26.8869 45.0737 24.6465 45.0737 21.8829C45.0737 19.1193 42.8333 16.8789 40.0697 16.8789C37.306 16.8789 35.0657 19.1193 35.0657 21.8829C35.0657 24.6465 37.306 26.8869 40.0697 26.8869Z" fill="#4CB8E9"/>
<path d="M40.0697 24.8869C41.7287 24.8869 43.0737 23.542 43.0737 21.8829C43.0737 20.2238 41.7287 18.8789 40.0697 18.8789C38.4106 18.8789 37.0657 20.2238 37.0657 21.8829C37.0657 23.542 38.4106 24.8869 40.0697 24.8869Z" fill="white"/>
<path d="M43.9936 29.4566C40.6736 26.8086 36.5946 25.7566 32.6826 26.1966" stroke="white" stroke-width="1.5" stroke-miterlimit="10" stroke-linecap="round" stroke-linejoin="round"/>
<path d="M52.0036 53.8377C55.6835 53.8377 58.6666 50.8546 58.6666 47.1747C58.6666 43.4948 55.6835 40.5117 52.0036 40.5117C48.3237 40.5117 45.3406 43.4948 45.3406 47.1747C45.3406 50.8546 48.3237 53.8377 52.0036 53.8377Z" fill="#4CB8E9"/>
<path d="M52.0035 51.1748C54.2127 51.1748 56.0035 49.3839 56.0035 47.1748C56.0035 44.9657 54.2127 43.1748 52.0035 43.1748C49.7944 43.1748 48.0035 44.9657 48.0035 47.1748C48.0035 49.3839 49.7944 51.1748 52.0035 51.1748Z" fill="white"/>
</svg>
