<svg width="72" height="72" viewBox="0 0 72 72" fill="none" xmlns="http://www.w3.org/2000/svg">
<path opacity="0.4" d="M46.44 9H22.56C12.21 9 6 15.18 6 25.56V49.41C6 59.82 12.21 66 22.56 66H46.41C56.79 66 62.97 59.82 62.97 49.44V25.56C63 15.18 56.79 9 46.44 9Z" fill="#4CB8E9"/>
<path d="M63.06 8.93985C57.69 3.53985 52.44 3.41985 46.92 8.93985L43.53 12.2999C43.23 12.5999 43.14 13.0199 43.26 13.4099C45.36 20.7599 51.24 26.6399 58.59 28.7399C58.68 28.7699 58.83 28.7699 58.92 28.7699C59.22 28.7699 59.52 28.6499 59.73 28.4398L63.06 25.0799C65.79 22.3498 67.14 19.7399 67.14 17.0699C67.14 14.3699 65.79 11.6999 63.06 8.93985Z" fill="#4CB8E9"/>
<path d="M53.5801 31.26C52.7701 30.87 51.9901 30.48 51.2701 30.03C50.6701 29.67 50.0701 29.28 49.5001 28.86C49.0201 28.56 48.4801 28.11 47.9401 27.66C47.8801 27.63 47.7001 27.48 47.4601 27.24C46.5301 26.49 45.5401 25.47 44.6101 24.36C44.5501 24.3 44.3701 24.12 44.2201 23.85C43.9201 23.52 43.4701 22.95 43.0801 22.32C42.7501 21.9 42.3601 21.3 42.0001 20.67C41.5501 19.92 41.1601 19.17 40.8001 18.39C40.4101 17.55 40.1101 16.77 39.8401 16.02L23.7001 32.16C22.6501 33.21 21.6301 35.19 21.4201 36.66L20.1301 45.6C19.8601 47.49 20.3701 49.26 21.5401 50.43C22.5301 51.42 23.8801 51.93 25.3801 51.93C25.7101 51.93 26.0401 51.9 26.3701 51.87L35.2801 50.61C36.7501 50.4 38.7301 49.41 39.7801 48.33L55.9201 32.19C55.1701 31.95 54.4201 31.62 53.5801 31.26Z" fill="#4CB8E9"/>
</svg>
