<svg width="90" height="80" viewBox="0 0 90 80" fill="none" xmlns="http://www.w3.org/2000/svg">
<mask id="path-1-inside-1_1516_35426" fill="white">
<path d="M89.2 78.3241C89.2 79.2497 88.4492 80.0016 87.5238 79.9842C66.2705 79.5842 45.8401 71.5875 29.9506 57.4116C14.061 43.2357 3.79476 23.8462 0.982479 2.77599C0.860027 1.85858 1.52182 1.02727 2.44137 0.922111C3.36093 0.81694 4.18997 1.4777 4.31309 2.39503C7.03141 22.6476 16.9065 41.2826 32.1819 54.9106C47.4573 68.5386 67.0936 76.2323 87.5239 76.6319C88.4493 76.65 89.2 77.3986 89.2 78.3241Z"/>
</mask>
<path d="M89.2 78.3241C89.2 79.2497 88.4492 80.0016 87.5238 79.9842C66.2705 79.5842 45.8401 71.5875 29.9506 57.4116C14.061 43.2357 3.79476 23.8462 0.982479 2.77599C0.860027 1.85858 1.52182 1.02727 2.44137 0.922111C3.36093 0.81694 4.18997 1.4777 4.31309 2.39503C7.03141 22.6476 16.9065 41.2826 32.1819 54.9106C47.4573 68.5386 67.0936 76.2323 87.5239 76.6319C88.4493 76.65 89.2 77.3986 89.2 78.3241Z" stroke="#4CB8E9" stroke-width="8" mask="url(#path-1-inside-1_1516_35426)"/>
</svg>
