<svg width="80" height="89" viewBox="0 0 80 89" fill="none" xmlns="http://www.w3.org/2000/svg">
<mask id="path-1-inside-1_1516_35469" fill="white">
<path d="M2.47593 89C1.55038 89 0.798424 88.2493 0.815834 87.3239C1.21583 66.0706 9.2125 45.6402 23.3884 29.7506C37.5643 13.8611 56.9538 3.59483 78.024 0.782541C78.9414 0.660089 79.7728 1.32188 79.8779 2.24143C79.9831 3.16099 79.3223 3.99003 78.405 4.11315C58.1524 6.83148 39.5175 16.7065 25.8895 31.982C12.2614 47.2574 4.56772 66.8937 4.16817 87.324C4.15008 88.2494 3.40148 89 2.47593 89Z"/>
</mask>
<path d="M2.47593 89C1.55038 89 0.798424 88.2493 0.815834 87.3239C1.21583 66.0706 9.2125 45.6402 23.3884 29.7506C37.5643 13.8611 56.9538 3.59483 78.024 0.782541C78.9414 0.660089 79.7728 1.32188 79.8779 2.24143C79.9831 3.16099 79.3223 3.99003 78.405 4.11315C58.1524 6.83148 39.5175 16.7065 25.8895 31.982C12.2614 47.2574 4.56772 66.8937 4.16817 87.324C4.15008 88.2494 3.40148 89 2.47593 89Z" stroke="#D71049" stroke-width="8" mask="url(#path-1-inside-1_1516_35469)"/>
</svg>
