<svg width="90" height="80" viewBox="0 0 90 80" fill="none" xmlns="http://www.w3.org/2000/svg">
<mask id="path-1-inside-1_1516_35468" fill="white">
<path d="M0.800026 1.67588C0.800026 0.750332 1.55075 -0.00162135 2.47614 0.0157889C23.7295 0.415782 44.1599 8.41245 60.0494 22.5884C75.9389 36.7643 86.2052 56.1538 89.0175 77.224C89.14 78.1414 88.4782 78.9727 87.5586 79.0779C86.6391 79.183 85.81 78.5223 85.6869 77.605C82.9686 57.3524 73.0935 38.7174 57.8181 25.0894C42.5427 11.4614 22.9063 3.76768 2.47608 3.36813C1.5507 3.35003 0.800026 2.60144 0.800026 1.67588Z"/>
</mask>
<path d="M0.800026 1.67588C0.800026 0.750332 1.55075 -0.00162135 2.47614 0.0157889C23.7295 0.415782 44.1599 8.41245 60.0494 22.5884C75.9389 36.7643 86.2052 56.1538 89.0175 77.224C89.14 78.1414 88.4782 78.9727 87.5586 79.0779C86.6391 79.183 85.81 78.5223 85.6869 77.605C82.9686 57.3524 73.0935 38.7174 57.8181 25.0894C42.5427 11.4614 22.9063 3.76768 2.47608 3.36813C1.5507 3.35003 0.800026 2.60144 0.800026 1.67588Z" stroke="#005993" stroke-width="8" mask="url(#path-1-inside-1_1516_35468)"/>
</svg>
