<svg width="80" height="89" viewBox="0 0 80 89" fill="none" xmlns="http://www.w3.org/2000/svg">
<mask id="path-1-inside-1_1516_35423" fill="white">
<path d="M77.5241 -1.52588e-05C78.4496 -1.52588e-05 79.2016 0.75071 79.1842 1.6761C78.7842 22.9294 70.7875 43.3598 56.6116 59.2494C42.4357 75.1389 23.0462 85.4052 1.97595 88.2175C1.05854 88.3399 0.227234 87.6781 0.12207 86.7586C0.0168991 85.839 0.677658 85.01 1.59499 84.8869C21.8475 82.1685 40.4825 72.2935 54.1105 57.0181C67.7386 41.7426 75.4323 22.1063 75.8318 1.67604C75.8499 0.750664 76.5985 -1.52588e-05 77.5241 -1.52588e-05Z"/>
</mask>
<path d="M77.5241 -1.52588e-05C78.4496 -1.52588e-05 79.2016 0.75071 79.1842 1.6761C78.7842 22.9294 70.7875 43.3598 56.6116 59.2494C42.4357 75.1389 23.0462 85.4052 1.97595 88.2175C1.05854 88.3399 0.227234 87.6781 0.12207 86.7586C0.0168991 85.839 0.677658 85.01 1.59499 84.8869C21.8475 82.1685 40.4825 72.2935 54.1105 57.0181C67.7386 41.7426 75.4323 22.1063 75.8318 1.67604C75.8499 0.750664 76.5985 -1.52588e-05 77.5241 -1.52588e-05Z" stroke="#7ED3F7" stroke-width="8" mask="url(#path-1-inside-1_1516_35423)"/>
</svg>
