<svg width="80" height="89" viewBox="0 0 80 89" fill="none" xmlns="http://www.w3.org/2000/svg">
<mask id="path-1-inside-1_1516_35458" fill="white">
<path d="M2.07578 89C1.15023 89 0.398277 88.2493 0.415687 87.3239C0.815679 66.0706 8.81235 45.6402 22.9883 29.7506C37.1642 13.8611 56.5537 3.59483 77.6239 0.782541C78.5413 0.660089 79.3726 1.32188 79.4778 2.24143C79.5829 3.16099 78.9222 3.99003 78.0049 4.11315C57.7523 6.83148 39.1173 16.7065 25.4893 31.982C11.8613 47.2574 4.16758 66.8937 3.76803 87.324C3.74993 88.2494 3.00133 89 2.07578 89Z"/>
</mask>
<path d="M2.07578 89C1.15023 89 0.398277 88.2493 0.415687 87.3239C0.815679 66.0706 8.81235 45.6402 22.9883 29.7506C37.1642 13.8611 56.5537 3.59483 77.6239 0.782541C78.5413 0.660089 79.3726 1.32188 79.4778 2.24143C79.5829 3.16099 78.9222 3.99003 78.0049 4.11315C57.7523 6.83148 39.1173 16.7065 25.4893 31.982C11.8613 47.2574 4.16758 66.8937 3.76803 87.324C3.74993 88.2494 3.00133 89 2.07578 89Z" stroke="#D71049" stroke-width="8" mask="url(#path-1-inside-1_1516_35458)"/>
</svg>
