<svg width="89" height="80" viewBox="0 0 89 80" fill="none" xmlns="http://www.w3.org/2000/svg">
<mask id="path-1-inside-1_1516_35437" fill="white">
<path d="M88.5999 78.3241C88.5999 79.2497 87.8491 80.0016 86.9237 79.9842C65.6704 79.5842 45.24 71.5875 29.3505 57.4116C13.4609 43.2357 3.19467 23.8462 0.382381 2.77599C0.259929 1.85858 0.921718 1.02727 1.84127 0.922111C2.76083 0.81694 3.58987 1.4777 3.71299 2.39503C6.43131 22.6476 16.3064 41.2826 31.5818 54.9106C46.8572 68.5386 66.4935 76.2323 86.9238 76.6319C87.8492 76.65 88.5999 77.3986 88.5999 78.3241Z"/>
</mask>
<path d="M88.5999 78.3241C88.5999 79.2497 87.8491 80.0016 86.9237 79.9842C65.6704 79.5842 45.24 71.5875 29.3505 57.4116C13.4609 43.2357 3.19467 23.8462 0.382381 2.77599C0.259929 1.85858 0.921718 1.02727 1.84127 0.922111C2.76083 0.81694 3.58987 1.4777 3.71299 2.39503C6.43131 22.6476 16.3064 41.2826 31.5818 54.9106C46.8572 68.5386 66.4935 76.2323 86.9238 76.6319C87.8492 76.65 88.5999 77.3986 88.5999 78.3241Z" stroke="#4CB8E9" stroke-width="8" mask="url(#path-1-inside-1_1516_35437)"/>
</svg>
