<svg width="89" height="80" viewBox="0 0 89 80" fill="none" xmlns="http://www.w3.org/2000/svg">
<mask id="path-1-inside-1_1516_35424" fill="white">
<path d="M0.199928 1.67588C0.199928 0.750332 0.950653 -0.00162135 1.87605 0.0157889C23.1294 0.415782 43.5598 8.41245 59.4493 22.5884C75.3388 36.7643 85.6051 56.1538 88.4174 77.224C88.5399 78.1414 87.8781 78.9727 86.9585 79.0779C86.039 79.183 85.2099 78.5223 85.0868 77.605C82.3685 57.3524 72.4934 38.7174 57.218 25.0894C41.9426 11.4614 22.3063 3.76768 1.87598 3.36813C0.950607 3.35003 0.199928 2.60144 0.199928 1.67588Z"/>
</mask>
<path d="M0.199928 1.67588C0.199928 0.750332 0.950653 -0.00162135 1.87605 0.0157889C23.1294 0.415782 43.5598 8.41245 59.4493 22.5884C75.3388 36.7643 85.6051 56.1538 88.4174 77.224C88.5399 78.1414 87.8781 78.9727 86.9585 79.0779C86.039 79.183 85.2099 78.5223 85.0868 77.605C82.3685 57.3524 72.4934 38.7174 57.218 25.0894C41.9426 11.4614 22.3063 3.76768 1.87598 3.36813C0.950607 3.35003 0.199928 2.60144 0.199928 1.67588Z" stroke="#005993" stroke-width="8" mask="url(#path-1-inside-1_1516_35424)"/>
</svg>
