<svg width="80" height="89" viewBox="0 0 80 89" fill="none" xmlns="http://www.w3.org/2000/svg">
<mask id="path-1-inside-1_1516_35436" fill="white">
<path d="M2.27573 89C1.35018 89 0.598228 88.2493 0.615638 87.3239C1.01563 66.0706 9.0123 45.6402 23.1882 29.7506C37.3641 13.8611 56.7536 3.59483 77.8238 0.782541C78.7412 0.660089 79.5726 1.32188 79.6777 2.24143C79.7829 3.16099 79.1221 3.99003 78.2048 4.11315C57.9522 6.83148 39.3173 16.7065 25.6893 31.982C12.0612 47.2574 4.36753 66.8937 3.96798 87.324C3.94988 88.2494 3.20129 89 2.27573 89Z"/>
</mask>
<path d="M2.27573 89C1.35018 89 0.598228 88.2493 0.615638 87.3239C1.01563 66.0706 9.0123 45.6402 23.1882 29.7506C37.3641 13.8611 56.7536 3.59483 77.8238 0.782541C78.7412 0.660089 79.5726 1.32188 79.6777 2.24143C79.7829 3.16099 79.1221 3.99003 78.2048 4.11315C57.9522 6.83148 39.3173 16.7065 25.6893 31.982C12.0612 47.2574 4.36753 66.8937 3.96798 87.324C3.94988 88.2494 3.20129 89 2.27573 89Z" stroke="#D71049" stroke-width="8" mask="url(#path-1-inside-1_1516_35436)"/>
</svg>
