<svg width="80" height="89" viewBox="0 0 80 89" fill="none" xmlns="http://www.w3.org/2000/svg">
<mask id="path-1-inside-1_1516_35425" fill="white">
<path d="M1.87583 89C0.950279 89 0.198326 88.2493 0.215736 87.3239C0.615728 66.0706 8.6124 45.6402 22.7883 29.7506C36.9642 13.8611 56.3537 3.59483 77.4239 0.782541C78.3413 0.660089 79.1727 1.32188 79.2778 2.24143C79.383 3.16099 78.7222 3.99003 77.8049 4.11315C57.5523 6.83148 38.9174 16.7065 25.2894 31.982C11.6613 47.2574 3.96763 66.8937 3.56808 87.324C3.54998 88.2494 2.80138 89 1.87583 89Z"/>
</mask>
<path d="M1.87583 89C0.950279 89 0.198326 88.2493 0.215736 87.3239C0.615728 66.0706 8.6124 45.6402 22.7883 29.7506C36.9642 13.8611 56.3537 3.59483 77.4239 0.782541C78.3413 0.660089 79.1727 1.32188 79.2778 2.24143C79.383 3.16099 78.7222 3.99003 77.8049 4.11315C57.5523 6.83148 38.9174 16.7065 25.2894 31.982C11.6613 47.2574 3.96763 66.8937 3.56808 87.324C3.54998 88.2494 2.80138 89 1.87583 89Z" stroke="#D71049" stroke-width="8" mask="url(#path-1-inside-1_1516_35425)"/>
</svg>
