<svg width="49" height="49" viewBox="0 0 49 49" fill="none" xmlns="http://www.w3.org/2000/svg">
<path d="M0.334961 24.6001C0.334961 37.8549 11.0801 48.6001 24.335 48.6001C37.5898 48.6001 48.335 37.8549 48.335 24.6001C48.335 11.3453 37.5898 0.600098 24.335 0.600098C11.0801 0.600098 0.334961 11.3453 0.334961 24.6001Z" fill="#1877F2"/>
<path d="M36.335 24.6001C36.335 18.0001 30.935 12.6001 24.335 12.6001C17.735 12.6001 12.335 18.0001 12.335 24.6001C12.335 30.6001 16.685 35.5501 22.385 36.4501V28.0501H19.385V24.6001H22.385V21.9001C22.385 18.9001 24.185 17.2501 26.885 17.2501C28.235 17.2501 29.585 17.5501 29.585 17.5501V20.5501H28.085C26.585 20.5501 26.135 21.4501 26.135 22.3501V24.6001H29.435L28.835 28.0501H25.985V36.6001C31.985 35.7001 36.335 30.6001 36.335 24.6001Z" fill="white"/>
</svg>
