<svg width="49" height="49" viewBox="0 0 49 49" fill="none" xmlns="http://www.w3.org/2000/svg">
<path d="M0.334961 24.6001C0.334961 37.8549 11.0801 48.6001 24.335 48.6001C37.5898 48.6001 48.335 37.8549 48.335 24.6001C48.335 11.3453 37.5898 0.600098 24.335 0.600098C11.0801 0.600098 0.334961 11.3453 0.334961 24.6001Z" fill="#2867B2"/>
<path d="M17.735 36.6001H12.635V20.5501H17.735V36.6001ZM15.185 18.3001C13.535 18.3001 12.335 17.1001 12.335 15.4501C12.335 13.8001 13.685 12.6001 15.185 12.6001C16.835 12.6001 18.035 13.8001 18.035 15.4501C18.035 17.1001 16.835 18.3001 15.185 18.3001ZM36.335 36.6001H31.235V27.9001C31.235 25.3501 30.185 24.6001 28.685 24.6001C27.185 24.6001 25.685 25.8001 25.685 28.0501V36.6001H20.585V20.5501H25.385V22.8001C25.835 21.7501 27.635 20.1001 30.185 20.1001C33.035 20.1001 36.035 21.7501 36.035 26.7001V36.6001H36.335Z" fill="white"/>
</svg>
