<svg width="72" height="72" viewBox="0 0 72 72" fill="none" xmlns="http://www.w3.org/2000/svg">
<path opacity="0.4" d="M32.28 6C30.84 6 29.7 7.14 29.7 8.58V63.45C29.7 64.86 30.84 66.03 32.28 66.03C49.95 66.03 62.28 53.7 62.28 36.03C62.28 18.36 49.92 6 32.28 6Z" fill="#4CB8E9"/>
<path d="M47.7 34.62L39.18 26.07C38.31 25.2 36.87 25.2 36 26.07C35.13 26.94 35.13 28.38 36 29.25L40.68 33.93H11.97C10.74 33.93 9.71997 34.95 9.71997 36.18C9.71997 37.41 10.74 38.43 11.97 38.43H40.68L36 43.14C35.13 44.01 35.13 45.45 36 46.32C36.45 46.77 37.02 46.98 37.59 46.98C38.16 46.98 38.73 46.77 39.18 46.32L47.7 37.77C48.6 36.9 48.6 35.49 47.7 34.62Z" fill="#4CB8E9"/>
</svg>
