<svg width="214" height="75" viewBox="0 0 214 75" fill="none" xmlns="http://www.w3.org/2000/svg">
<path fill-rule="evenodd" clip-rule="evenodd" d="M186.349 14.9856H198.881V25.9184C203.459 26.6122 207.885 28.0679 211.973 30.2241C213.503 26.9916 214.185 23.4282 213.957 19.8643C213.728 16.3005 212.596 12.8516 210.666 9.83727C208.735 6.82299 206.069 4.34096 202.913 2.62129C199.758 0.901629 196.216 0 192.615 0C189.015 0 185.473 0.901629 182.317 2.62129C179.162 4.34096 176.495 6.82299 174.564 9.83727C172.634 12.8516 171.502 16.3005 171.273 19.8643C171.045 23.4282 171.727 26.9916 173.257 30.2241C177.346 28.0685 181.772 26.6128 186.349 25.9184V14.9856Z" fill="white"/>
<path fill-rule="evenodd" clip-rule="evenodd" d="M192.615 42.3472C196.163 42.349 199.656 41.4752 202.779 39.8046C205.902 38.134 208.557 35.719 210.504 32.7773C204.988 29.899 198.848 28.395 192.615 28.395C186.382 28.395 180.242 29.899 174.726 32.7773C176.672 35.7205 179.326 38.1365 182.45 39.8073C185.573 41.4781 189.067 42.351 192.615 42.3472Z" fill="white"/>
<path fill-rule="evenodd" clip-rule="evenodd" d="M199.793 68.9205C199.708 68.1574 199.357 67.4475 198.802 66.9126C198.5 66.6065 198.138 66.3654 197.738 66.2044C197.338 66.0435 196.908 65.9658 196.477 65.9766C195.703 65.9764 194.953 66.2433 194.355 66.7314C193.758 67.2195 193.35 67.8985 193.202 68.6521C193.053 69.4057 193.174 70.1868 193.542 70.8622C193.911 71.5373 194.505 72.0644 195.222 72.3531C195.939 72.6419 196.735 72.6743 197.474 72.4448C198.213 72.2154 198.848 71.7382 199.271 71.0953C199.694 70.4525 199.879 69.6836 199.793 68.9205ZM197.224 71.0125C196.987 71.1077 196.733 71.1536 196.477 71.147C196.221 71.1525 195.966 71.1062 195.729 71.011C195.491 70.9157 195.276 70.7735 195.095 70.5929C194.736 70.2174 194.536 69.7196 194.536 69.202C194.536 68.6845 194.736 68.1866 195.095 67.8111C195.465 67.4554 195.96 67.2565 196.475 67.2565C196.99 67.2565 197.485 67.4554 197.855 67.8111C198.215 68.1857 198.417 68.6839 198.417 69.202C198.417 69.7201 198.215 70.2183 197.855 70.5929C197.676 70.7742 197.461 70.917 197.224 71.0125Z" fill="white"/>
<path d="M195.869 65.325L196.477 64.4751L197.088 65.325H198.353L197.122 63.7226H195.82L194.601 65.325H195.869Z" fill="white"/>
<path d="M200.188 62.603H198.678L197.768 64.1531H198.957L200.188 62.603Z" fill="white"/>
<path d="M98.3932 63.6588H96.9663V69.5071L92.8629 63.6588H91.7305V72.2702H93.1574V66.4219L97.2607 72.2702H98.3932V63.6588Z" fill="white"/>
<path fill-rule="evenodd" clip-rule="evenodd" d="M106.003 66.1374H104.66V67.0098C104.412 66.6718 104.084 66.4005 103.704 66.2201C103.325 66.0396 102.906 65.9559 102.485 65.9764C102.075 65.9703 101.668 66.0506 101.291 66.212C100.914 66.3733 100.576 66.612 100.3 66.9124C99.7115 67.5365 99.3844 68.359 99.3844 69.2132C99.3844 70.0675 99.7115 70.8898 100.3 71.5139C100.576 71.8143 100.914 72.0531 101.291 72.2145C101.668 72.3757 102.075 72.456 102.485 72.4499C102.907 72.471 103.327 72.3863 103.707 72.2037C104.087 72.0211 104.415 71.7466 104.66 71.4053V72.2927H106.003V66.1374ZM103.456 71.0497C103.215 71.145 102.956 71.1909 102.697 71.1845C102.437 71.1909 102.179 71.145 101.937 71.0497C101.696 70.9545 101.477 70.8119 101.292 70.6304C101.108 70.4437 100.964 70.2221 100.868 69.979C100.772 69.7358 100.726 69.4761 100.734 69.215C100.723 68.9554 100.768 68.6965 100.864 68.4547C100.96 68.213 101.106 67.9938 101.292 67.811C101.667 67.446 102.171 67.2417 102.697 67.2417C103.222 67.2417 103.726 67.446 104.101 67.811C104.287 67.9938 104.433 68.213 104.529 68.4547C104.625 68.6965 104.67 68.9554 104.66 69.215C104.667 69.4761 104.621 69.7358 104.525 69.979C104.429 70.2221 104.285 70.4437 104.101 70.6304C103.917 70.8119 103.697 70.9545 103.456 71.0497Z" fill="white"/>
<path d="M102.474 65.3961L103.131 64.4862L103.78 65.3961H105.147L103.829 63.6738H102.425L101.107 65.3961H102.474Z" fill="white"/>
<path d="M112.915 68.5261V72.3077H111.575V68.6611C111.575 67.74 111.039 67.2345 110.182 67.2345C109.239 67.2345 108.604 67.8111 108.604 69.0055V72.3077H107.26V66.1374H108.604V66.9237C108.811 66.6098 109.098 66.3565 109.437 66.1899C109.775 66.0234 110.153 65.9497 110.53 65.9764C111.96 65.9764 112.915 66.9349 112.915 68.5261Z" fill="white"/>
<path fill-rule="evenodd" clip-rule="evenodd" d="M120.314 66.1374H118.997L118.993 67.0398C118.754 66.6939 118.43 66.4142 118.051 66.2268C117.673 66.0394 117.252 65.9508 116.83 65.9691C116.413 65.9605 115.999 66.0394 115.615 66.2007C115.231 66.3621 114.886 66.6022 114.603 66.9051C114.307 67.1994 114.074 67.5503 113.918 67.9364C113.762 68.3225 113.687 68.7358 113.697 69.1516C113.69 69.5669 113.767 69.9794 113.922 70.3649C114.078 70.7507 114.309 71.1018 114.603 71.398C114.889 71.6962 115.235 71.932 115.619 72.0907C116.002 72.2492 116.415 72.3269 116.83 72.319C117.252 72.3373 117.673 72.2487 118.051 72.0613C118.43 71.8739 118.754 71.5942 118.993 71.2483V71.9971C118.993 73.0679 118.295 73.6969 117.139 73.6969C116.256 73.6969 115.648 73.3748 115.324 72.7496L114.169 73.4123C114.705 74.4158 115.686 74.9099 117.117 74.9099C117.937 74.9346 118.74 74.6692 119.382 74.1611C119.695 73.8986 119.942 73.5675 120.104 73.1938C120.266 72.8202 120.338 72.4143 120.314 72.0083V66.1374ZM117.783 70.9519C117.541 71.0472 117.282 71.092 117.022 71.0836C116.761 71.0896 116.501 71.0437 116.258 70.9486C116.015 70.8534 115.793 70.7108 115.607 70.5294C115.249 70.1585 115.049 69.6649 115.049 69.1516C115.049 68.638 115.249 68.1444 115.607 67.7737C115.793 67.5921 116.015 67.4495 116.258 67.3545C116.501 67.2592 116.761 67.2133 117.022 67.2195C117.282 67.2109 117.541 67.2557 117.783 67.3512C118.025 67.4464 118.244 67.5903 118.427 67.7737C118.795 68.1395 119.001 68.6349 119.001 69.1516C119.001 69.6682 118.795 70.1636 118.427 70.5294C118.244 70.7126 118.025 70.8565 117.783 70.9519Z" fill="white"/>
<path fill-rule="evenodd" clip-rule="evenodd" d="M129.314 66.1374H130.635V72.0083C130.658 72.4143 130.586 72.8202 130.425 73.1938C130.263 73.5675 130.016 73.8986 129.702 74.1611C129.061 74.669 128.258 74.9343 127.437 74.9099C126.01 74.9099 125.025 74.4158 124.493 73.4123L125.648 72.7496C125.973 73.3748 126.58 73.6969 127.464 73.6969C128.619 73.6969 129.314 73.0679 129.314 71.9971V71.2483C129.074 71.5942 128.75 71.8739 128.372 72.0613C127.993 72.2487 127.573 72.3373 127.151 72.319C126.736 72.3269 126.324 72.249 125.941 72.0905C125.558 71.932 125.213 71.6962 124.927 71.398C124.634 71.1018 124.402 70.7507 124.247 70.3649C124.091 69.9794 124.014 69.5669 124.021 69.1516C124.011 68.7358 124.087 68.3225 124.242 67.9364C124.398 67.5503 124.631 67.1994 124.927 66.9051C125.21 66.6022 125.554 66.3621 125.938 66.2009C126.321 66.0394 126.734 65.9605 127.151 65.9691C127.573 65.9508 127.993 66.0394 128.372 66.2268C128.75 66.4142 129.074 66.6939 129.314 67.0398V66.1374ZM127.339 71.0836C127.447 71.0865 127.554 71.0805 127.66 71.0657C127.81 71.0446 127.957 71.0061 128.099 70.9501C128.34 70.8547 128.56 70.7115 128.744 70.5294C129.109 70.1622 129.313 69.6673 129.313 69.1516C129.313 68.6358 129.109 68.1408 128.744 67.7737C128.56 67.5914 128.34 67.4482 128.099 67.353C127.858 67.2577 127.599 67.2124 127.339 67.2195L127.294 67.219L127.267 67.2192L127.215 67.2206C127.172 67.2223 127.129 67.2254 127.085 67.23C127.043 67.2343 127.001 67.2402 126.959 67.2475C126.827 67.27 126.698 67.3058 126.573 67.3546C126.329 67.4497 126.107 67.5923 125.92 67.7737C125.562 68.1444 125.362 68.638 125.362 69.1516C125.362 69.6649 125.562 70.1585 125.92 70.5294C126.107 70.7108 126.329 70.8532 126.573 70.9485C126.817 71.0435 127.077 71.0896 127.339 71.0836Z" fill="white"/>
<path d="M131.723 64.5912C131.723 64.8095 131.809 65.0191 131.964 65.1753C132.121 65.3283 132.333 65.4138 132.554 65.4138C132.775 65.4138 132.987 65.3283 133.145 65.1753C133.224 65.0987 133.288 65.0073 133.331 64.9063C133.338 64.8915 133.343 64.8765 133.349 64.8614L133.358 64.8347L133.363 64.818L133.369 64.7999C133.373 64.7846 133.377 64.769 133.38 64.7535C133.392 64.6988 133.398 64.6431 133.398 64.587C133.399 64.4773 133.377 64.3685 133.335 64.2668C133.293 64.1654 133.231 64.0731 133.153 63.9957C133.074 63.9182 132.981 63.8568 132.879 63.8155C132.776 63.774 132.666 63.7531 132.556 63.7542C132.445 63.7553 132.336 63.7782 132.234 63.8217C132.132 63.865 132.04 63.9281 131.964 64.0071C131.809 64.163 131.723 64.3727 131.723 64.5912Z" fill="white"/>
<path d="M133.232 66.1374H131.888V72.2891L133.232 72.2927V66.1374Z" fill="white"/>
<path fill-rule="evenodd" clip-rule="evenodd" d="M139.396 66.1374H140.74V72.2927H139.396V71.4053C139.152 71.7466 138.824 72.0211 138.444 72.2037C138.064 72.3863 137.644 72.471 137.222 72.4499C136.812 72.456 136.405 72.3757 136.028 72.2145C135.651 72.0531 135.313 71.8143 135.036 71.5139C134.448 70.8898 134.121 70.0675 134.121 69.2132C134.121 68.3589 134.448 67.5365 135.036 66.9124C135.313 66.612 135.651 66.3733 136.028 66.212C136.405 66.0506 136.812 65.9703 137.222 65.9764C137.642 65.9559 138.061 66.0396 138.441 66.2201C138.821 66.4005 139.149 66.6718 139.396 67.0098V66.1374ZM137.433 71.1845C137.693 71.1909 137.951 71.145 138.193 71.0497C138.434 70.9545 138.653 70.8119 138.838 70.6304C139.022 70.4437 139.166 70.2221 139.262 69.979C139.358 69.7358 139.404 69.4761 139.396 69.215C139.407 68.9554 139.362 68.6965 139.266 68.4547C139.17 68.213 139.024 67.9938 138.838 67.811C138.463 67.446 137.959 67.2417 137.433 67.2417C136.908 67.2417 136.404 67.446 136.029 67.811C135.843 67.9938 135.697 68.213 135.601 68.4547C135.505 68.6965 135.46 68.9554 135.47 69.215C135.463 69.4761 135.509 69.7358 135.605 69.979C135.701 70.2221 135.845 70.4437 136.029 70.6304C136.213 70.8119 136.433 70.9545 136.674 71.0497C136.763 71.0848 136.854 71.1132 136.946 71.1348C137.106 71.1717 137.269 71.1885 137.433 71.1845Z" fill="white"/>
<path d="M139.808 63.6588L138.49 65.3212H137.199L138.192 63.6588H139.808Z" fill="white"/>
<path d="M146.72 67.4029H148.264V66.1261H146.72V64.4001L145.38 64.7932V66.1261H144.247V67.4029H145.38V70.3607C145.38 71.9708 146.21 72.5249 148.264 72.2814V71.087C147.244 71.1359 146.72 71.147 146.72 70.3607V67.4029Z" fill="white"/>
<path d="M150.574 67.1709C150.728 66.802 150.998 66.4917 151.343 66.2855C151.688 66.0795 152.09 65.9883 152.492 66.0252V67.4667C152.012 67.4225 151.534 67.5559 151.148 67.8411C150.946 68.0022 150.789 68.2104 150.688 68.447C150.588 68.6835 150.549 68.9411 150.574 69.1963V72.3002H149.234V66.1374H150.574V67.1709Z" fill="white"/>
<path d="M153.029 64.7497C153.062 64.9113 153.143 65.0594 153.262 65.1751C153.418 65.3298 153.63 65.4164 153.85 65.4164C154.071 65.4164 154.283 65.3298 154.439 65.1751C154.558 65.0594 154.638 64.9113 154.672 64.7497C154.705 64.5882 154.689 64.4206 154.626 64.2681C154.563 64.1157 154.455 63.9851 154.317 63.8934C154.179 63.8016 154.017 63.7526 153.85 63.7526C153.684 63.7526 153.522 63.8016 153.384 63.8934C153.246 63.9851 153.138 64.1157 153.075 64.2681C153.012 64.4206 152.996 64.5882 153.029 64.7497Z" fill="white"/>
<path d="M153.02 74.1631C153.018 74.3836 153.105 74.5957 153.262 74.7525C153.34 74.831 153.432 74.8931 153.535 74.9355C153.589 74.9578 153.645 74.9745 153.702 74.9853C153.753 74.995 153.806 74.9999 153.858 74.9999C153.969 74.9999 154.079 74.9779 154.181 74.9355C154.284 74.8931 154.377 74.831 154.454 74.7525C154.533 74.6765 154.595 74.5856 154.638 74.4854C154.681 74.3851 154.703 74.2774 154.703 74.1684C154.703 74.0597 154.681 73.952 154.638 73.8516C154.616 73.8008 154.59 73.7523 154.558 73.707C154.528 73.6629 154.493 73.6218 154.454 73.5843C154.298 73.4275 154.086 73.3386 153.863 73.3372C153.641 73.3357 153.427 73.422 153.269 73.577C153.111 73.7319 153.021 73.9427 153.02 74.1631Z" fill="white"/>
<path d="M154.515 66.1374H153.175V72.2927H154.515V66.1374Z" fill="white"/>
<path d="M159.143 71.5214C158.838 71.221 158.599 70.8622 158.439 70.4671C158.278 70.0719 158.201 69.6485 158.211 69.2225C158.198 68.7958 158.275 68.3711 158.435 67.9749C158.595 67.5788 158.836 67.2197 159.143 66.9199C159.449 66.6129 159.815 66.3714 160.219 66.2104C160.623 66.0495 161.056 65.9724 161.491 65.9839C162.056 65.9689 162.613 66.1093 163.102 66.3895C163.591 66.6696 163.993 67.0788 164.262 67.5715L163.107 68.2342C162.956 67.9375 162.723 67.6903 162.434 67.5223C162.145 67.3541 161.814 67.2724 161.48 67.2868C161.223 67.2813 160.969 67.3276 160.731 67.423C160.494 67.5183 160.278 67.6605 160.098 67.8409C159.746 68.2157 159.551 68.7088 159.551 69.2207C159.551 69.7325 159.746 70.2256 160.098 70.6004C160.278 70.781 160.494 70.9232 160.731 71.0185C160.969 71.1137 161.223 71.16 161.48 71.1545C161.817 71.164 162.15 71.0805 162.442 70.9134C162.734 70.7461 162.973 70.5017 163.133 70.2073L164.288 70.8587C164.012 71.3519 163.606 71.7613 163.113 72.043C162.62 72.3245 162.06 72.4679 161.491 72.4574C161.056 72.469 160.623 72.3918 160.219 72.2309C159.815 72.0699 159.449 71.8284 159.143 71.5214Z" fill="white"/>
<path d="M170.517 66.1374H169.173V69.436C169.173 70.6304 168.539 71.207 167.595 71.207C166.738 71.207 166.202 70.7015 166.202 69.7804V66.1374H164.862V69.934C164.862 71.5103 165.817 72.4688 167.248 72.4688C167.625 72.4955 168.002 72.4218 168.34 72.2552C168.679 72.0887 168.966 71.8353 169.173 71.5214V72.2927H170.517V66.1374Z" fill="white"/>
<path fill-rule="evenodd" clip-rule="evenodd" d="M177.044 66.9124C177.599 67.4475 177.949 68.1572 178.035 68.9203C178.12 69.6834 177.936 70.4523 177.513 71.0953C177.089 71.7382 176.454 72.2152 175.715 72.4446C174.977 72.6741 174.18 72.6417 173.463 72.3531C172.746 72.0642 172.152 71.5371 171.784 70.862C171.415 70.1868 171.295 69.4057 171.443 68.6521C171.591 67.8985 171.999 67.2195 172.597 66.7314C173.194 66.2433 173.944 65.9764 174.718 65.9764C175.15 65.9658 175.579 66.0433 175.979 66.2044C176.379 66.3654 176.742 66.6064 177.044 66.9124ZM174.707 71.147C174.963 71.1525 175.218 71.1062 175.455 71.0108C175.485 70.9987 175.515 70.9858 175.545 70.9722C175.598 70.9476 175.65 70.9205 175.7 70.8912C175.842 70.8092 175.973 70.709 176.089 70.5929C176.447 70.2172 176.648 69.7194 176.648 69.2018C176.648 68.6845 176.447 68.1866 176.089 67.811C175.718 67.4559 175.222 67.2576 174.707 67.2576C174.191 67.2576 173.696 67.4559 173.325 67.811C172.966 68.1866 172.766 68.6845 172.766 69.2018C172.766 69.7194 172.966 70.2172 173.325 70.5929C173.414 70.6812 173.51 70.7603 173.614 70.8293C173.722 70.9013 173.837 70.9622 173.959 71.0108C174.196 71.1062 174.451 71.1525 174.707 71.147Z" fill="white"/>
<path d="M174.707 64.4749L174.099 65.3248H172.831L174.05 63.7224H175.356L176.583 65.3248H175.318L174.707 64.4749Z" fill="white"/>
<path d="M174.11 74.7414C173.956 74.5853 173.87 74.3756 173.87 74.1573C173.87 73.9388 173.956 73.7291 174.11 73.5732C174.227 73.4571 174.376 73.3781 174.538 73.3459C174.561 73.3414 174.584 73.3377 174.607 73.335C174.636 73.3317 174.666 73.33 174.695 73.3298C174.716 73.3297 174.738 73.3304 174.759 73.3319C174.848 73.3379 174.936 73.3584 175.02 73.3926C175.173 73.4551 175.303 73.5611 175.395 73.6973C175.487 73.8333 175.536 73.9935 175.536 74.1573C175.536 74.3211 175.487 74.481 175.395 74.6172C175.366 74.6606 175.333 74.7008 175.296 74.7375C175.266 74.7684 175.233 74.7968 175.198 74.8226C175.16 74.8498 175.121 74.8739 175.08 74.8946C175.06 74.9045 175.04 74.9136 175.02 74.922C174.867 74.9845 174.7 75.0008 174.538 74.9686C174.376 74.9364 174.227 74.8573 174.11 74.7414Z" fill="white"/>
<path d="M178.778 70.4671C178.938 70.8622 179.178 71.221 179.482 71.5214C179.791 71.8289 180.16 72.0701 180.566 72.2298C180.973 72.3896 181.408 72.4646 181.845 72.4499C182.414 72.4613 182.975 72.3183 183.468 72.0366C183.961 71.7549 184.367 71.345 184.642 70.8512L183.487 70.1998C183.327 70.4942 183.088 70.7386 182.796 70.9059C182.504 71.0731 182.171 71.1565 181.834 71.147C181.578 71.1525 181.323 71.1062 181.086 71.011C180.98 70.9686 180.879 70.917 180.783 70.8569C180.664 70.7817 180.553 70.6933 180.452 70.5929C180.103 70.2168 179.909 69.7243 179.909 69.2132C179.909 68.702 180.103 68.2095 180.452 67.8334C180.633 67.653 180.848 67.5108 181.086 67.4155C181.323 67.3203 181.578 67.2738 181.834 67.2793C182.168 67.2645 182.5 67.346 182.789 67.5141C183.078 67.6822 183.311 67.9298 183.461 68.2267L184.601 67.5715C184.332 67.0786 183.931 66.6693 183.442 66.389C182.953 66.1087 182.395 65.9685 181.83 65.9839C181.395 65.9724 180.962 66.0495 180.558 66.2106C180.154 66.3714 179.788 66.6129 179.482 66.9199C179.176 67.2197 178.935 67.5788 178.774 67.9749C178.614 68.3711 178.537 68.7958 178.55 69.2225C178.54 69.6485 178.618 70.0719 178.778 70.4671Z" fill="white"/>
<path d="M190.497 68.6349C191.452 68.8444 192.698 69.2377 192.672 70.5556C192.674 70.6271 192.672 70.6984 192.665 70.7693C192.66 70.8229 192.652 70.8763 192.641 70.9291C192.632 70.9742 192.621 71.019 192.608 71.0635C192.602 71.0858 192.595 71.1079 192.588 71.13C192.577 71.1622 192.565 71.1942 192.552 71.2258C192.536 71.2635 192.52 71.3006 192.501 71.3371C192.427 71.4865 192.33 71.6229 192.214 71.7423C192.142 71.8167 192.063 71.8845 191.977 71.9446C191.471 72.294 190.864 72.4713 190.248 72.4501C189.018 72.4501 188.112 71.911 187.711 71.0123L188.867 70.3459C188.961 70.6278 189.149 70.8695 189.4 71.0307C189.651 71.1922 189.95 71.2636 190.248 71.2333C190.958 71.2333 191.305 70.9973 191.305 70.5443C191.305 70.1474 190.781 69.9154 190.124 69.7543C189.191 69.5221 187.934 69.1516 187.961 67.8598C187.952 67.5976 188.005 67.3371 188.118 67.0994C188.23 66.8619 188.397 66.6541 188.606 66.4932C188.909 66.2738 189.255 66.1188 189.621 66.0374C189.987 65.9563 190.366 65.9506 190.735 66.0208C191.104 66.091 191.454 66.2356 191.763 66.4457C192.073 66.6559 192.336 66.9268 192.536 67.242L191.403 67.8673C191.307 67.6444 191.143 67.4568 190.934 67.3312C190.724 67.2058 190.481 67.1482 190.237 67.1671C189.727 67.1671 189.327 67.3881 189.327 67.8186C189.327 68.2492 189.852 68.4514 190.497 68.6349Z" fill="white"/>
<path d="M206.322 68.5261V72.3077H204.978V68.6611C204.978 67.74 204.442 67.2345 203.585 67.2345C202.641 67.2345 202.007 67.8111 202.007 69.0055V72.3077H200.663V66.1374H202.007V66.9237C202.214 66.6098 202.501 66.3565 202.84 66.1899C202.925 66.148 203.012 66.112 203.102 66.0819C203.156 66.0639 203.21 66.0482 203.264 66.0347C203.379 66.006 203.497 65.9868 203.615 65.9775C203.72 65.9692 203.826 65.9689 203.932 65.9764C205.355 65.9764 206.322 66.9349 206.322 68.5261Z" fill="white"/>
<path fill-rule="evenodd" clip-rule="evenodd" d="M213.721 66.1374H212.403L212.399 67.0398C212.16 66.6939 211.836 66.4142 211.458 66.2268C211.079 66.0394 210.659 65.9508 210.236 65.9691C209.82 65.9605 209.406 66.0394 209.022 66.2007C208.638 66.3621 208.293 66.6022 208.009 66.9051C207.713 67.1994 207.48 67.5503 207.325 67.9364C207.169 68.3225 207.094 68.7358 207.103 69.1516C207.097 69.5669 207.173 69.9794 207.329 70.3649C207.484 70.7507 207.716 71.1018 208.009 71.398C208.296 71.6962 208.642 71.932 209.025 72.0907C209.409 72.2492 209.821 72.3269 210.236 72.319C210.659 72.3373 211.079 72.2487 211.458 72.0613C211.836 71.8739 212.16 71.5942 212.399 71.2483V71.9971C212.399 73.0679 211.701 73.6969 210.546 73.6969C209.663 73.6969 209.055 73.3748 208.73 72.7496L207.575 73.4123C208.111 74.4158 209.093 74.9099 210.523 74.9099C211.344 74.9346 212.147 74.6692 212.788 74.1611C213.101 73.8986 213.349 73.5675 213.51 73.1938C213.672 72.8202 213.744 72.4143 213.721 72.0083V66.1374ZM210.716 71.0708C210.62 71.0823 210.523 71.0867 210.425 71.0836C210.164 71.0896 209.904 71.0437 209.661 70.9486C209.51 70.8896 209.368 70.8124 209.237 70.719C209.156 70.6618 209.081 70.5984 209.01 70.5294C208.651 70.1585 208.452 69.6649 208.452 69.1516C208.452 68.638 208.651 68.1444 209.01 67.7737C209.196 67.5921 209.418 67.4495 209.661 67.3545C209.775 67.3098 209.892 67.276 210.012 67.2534C210.148 67.2276 210.286 67.2162 210.425 67.2195C210.685 67.2109 210.944 67.2557 211.186 67.3512C211.427 67.4464 211.646 67.5903 211.829 67.7737C212.197 68.1395 212.404 68.6349 212.404 69.1516C212.404 69.6682 212.197 70.1636 211.829 70.5294C211.646 70.7126 211.427 70.8565 211.186 70.9519C211.035 71.0115 210.877 71.0514 210.716 71.0708Z" fill="white"/>
<path d="M173.269 34.2979L165.511 42.3625L173.269 52.4268H166.055L160.509 44.2646V52.4268H154.9V26.1206H155.655C156.293 26.1183 156.925 26.2409 157.515 26.4817C158.105 26.7227 158.641 27.077 159.092 27.5241C159.543 27.9713 159.901 28.5026 160.144 29.0874C160.387 29.6724 160.511 30.2991 160.509 30.9319V40.7638L166.395 34.2979H173.269Z" fill="white"/>
<path d="M14.6453 51.6032C13.898 52.1394 13.002 52.4334 12.0797 52.4455H10.4074L0 26.1843H6.71181L13.3104 42.868L19.9165 26.1993H25.4656C25.4656 26.1993 18.5197 43.6243 16.2548 49.4502C15.9547 50.3151 15.3926 51.067 14.6453 51.6032Z" fill="white"/>
<path d="M61.4066 34.2902V38.521H58.4433V45.1106C58.4423 45.4505 58.5089 45.7872 58.6393 46.1015C58.7698 46.416 58.9615 46.7015 59.2035 46.9423C59.4454 47.1829 59.7329 47.3739 60.0494 47.5043C60.3659 47.6344 60.7052 47.7015 61.0479 47.7015L61.4028 47.679V52.4005L59.5757 52.4566C57.892 52.4948 56.2615 51.8705 55.0406 50.7198C53.8196 49.5692 53.1077 47.986 53.0602 46.3163V38.521H50.3649V34.2902H53.0602V29.7673H58.4508V34.2902H61.4066Z" fill="white"/>
<path fill-rule="evenodd" clip-rule="evenodd" d="M35.5408 45.0284H49.357C49.4354 44.5527 49.4821 44.0724 49.4967 43.5907C49.5387 42.3088 49.3209 41.0314 48.8559 39.8345C48.391 38.6376 47.6885 37.5455 46.7901 36.623C45.9084 35.7012 44.8467 34.9674 43.6697 34.4657C42.4928 33.9642 41.2252 33.7056 39.9443 33.7056C38.6633 33.7056 37.3957 33.9642 36.2188 34.4657C35.0419 34.9674 33.9802 35.7012 33.0985 36.623C31.3407 38.453 30.3656 40.8868 30.3775 43.4145C30.3895 45.9419 31.3876 48.3668 33.1626 50.1804C34.0433 51.0926 35.1044 51.8149 36.2794 52.3019C37.4544 52.789 38.7181 53.0303 39.9915 53.0109C41.9624 53.0281 43.8862 52.4137 45.4764 51.2586C47.0204 50.1156 48.1999 48.5558 48.8738 46.7657H43.7362C43.3532 47.4397 42.7983 48.0019 42.1271 48.3962C41.456 48.7906 40.6922 49.0028 39.9122 49.0121C38.811 49.0184 37.7482 48.611 36.9374 47.8721C36.1265 47.1331 35.6276 46.1172 35.5408 45.0284ZM42.7008 38.8473C43.4827 39.4963 44.0095 40.3974 44.1892 41.3929H35.6352C35.8148 40.3974 36.3417 39.4963 37.1236 38.8473C37.9055 38.1983 38.8926 37.8425 39.9122 37.8425C40.9318 37.8425 41.9189 38.1983 42.7008 38.8473Z" fill="white"/>
<path d="M22.9251 39.0939C22.9231 38.4616 23.0472 37.835 23.2902 37.2504C23.5333 36.6657 23.8905 36.1347 24.3414 35.6875C24.7922 35.2403 25.3277 34.886 25.9172 34.6449C26.5066 34.4039 27.1382 34.2807 27.7758 34.2827H28.3119V52.4566H22.9364L22.9251 39.0939Z" fill="white"/>
<path d="M63.9502 37.2495C63.7069 37.8345 63.5827 38.4612 63.5847 39.0939L63.5998 52.4566H68.9677V34.2827H68.4392C67.8013 34.2803 67.1693 34.403 66.5794 34.6438C65.9895 34.8847 65.4536 35.239 65.0023 35.6862C64.5511 36.1334 64.1935 36.6646 63.9502 37.2495Z" fill="white"/>
<path d="M83.1878 52.4528V41.4676C83.1903 41.0841 83.1161 40.7038 82.9695 40.3488C82.8229 39.9939 82.6068 39.6713 82.3337 39.3998C82.0606 39.1281 81.7358 38.9129 81.3784 38.7667C81.0209 38.6202 80.6377 38.5457 80.2509 38.5471C79.8482 38.5329 79.4467 38.6001 79.0711 38.7449C78.6954 38.8899 78.3535 39.1091 78.0662 39.3895C77.779 39.6698 77.5524 40.0055 77.4003 40.3757C77.2483 40.7457 77.174 41.1428 77.1819 41.5424V52.4378H71.7234V34.3202H76.8271V36.2484H76.9101C77.7455 35.1699 78.9003 34.378 80.2126 33.9838C81.5248 33.5895 82.9286 33.6127 84.2269 34.05C85.5252 34.4873 86.6528 35.3169 87.4515 36.4222C88.2503 37.5277 88.6799 38.8533 88.6803 40.2133V52.4528H83.1878Z" fill="white"/>
<path fill-rule="evenodd" clip-rule="evenodd" d="M127.101 36.2334V34.3052H132.5V52.4266H127.094V50.4648H127.03C126.535 51.3734 125.733 52.08 124.765 52.4603C123.816 52.8588 122.794 53.0588 121.764 53.0482C119.043 53.0482 116.835 52.1083 115.139 50.2288C113.508 48.3942 112.693 46.1041 112.693 43.3585C112.693 40.6477 113.524 38.3738 115.188 36.5367C116.006 35.612 117.019 34.8772 118.156 34.3842C119.292 33.8911 120.524 33.652 121.764 33.6836C122.791 33.6717 123.809 33.8772 124.75 34.2866C125.7 34.6796 126.501 35.3612 127.037 36.2334H127.101ZM124.348 47.6445C124.89 47.416 125.38 47.0812 125.788 46.6607V46.6569C126.616 45.7655 127.061 44.5891 127.03 43.3772C127.05 42.7717 126.949 42.1684 126.733 41.6016C126.518 41.0349 126.191 40.5161 125.773 40.0749C125.365 39.6473 124.87 39.31 124.322 39.085C123.774 38.8597 123.184 38.7519 122.59 38.7681C121.996 38.7533 121.405 38.8683 120.86 39.1051C120.316 39.342 119.83 39.6947 119.438 40.1385C118.622 41.0442 118.188 42.2265 118.227 43.4408C118.201 44.6366 118.653 45.794 119.484 46.6607C119.892 47.0812 120.381 47.416 120.923 47.6445C121.465 47.873 122.047 47.9907 122.636 47.9907C123.224 47.9907 123.807 47.873 124.348 47.6445Z" fill="white"/>
<path d="M146.712 52.4528V41.4676C146.715 41.0841 146.64 40.7038 146.494 40.3488C146.347 39.9939 146.131 39.6713 145.858 39.3998C145.585 39.1281 145.26 38.9129 144.903 38.7667C144.545 38.6202 144.162 38.5457 143.775 38.5471C143.372 38.5329 142.971 38.6001 142.595 38.7449C142.22 38.8899 141.878 39.1091 141.591 39.3895C141.303 39.6698 141.077 40.0055 140.925 40.3757C140.773 40.7457 140.698 41.1428 140.706 41.5424V52.4378H135.233V34.3202H140.336V36.2484H140.427C141.262 35.1699 142.417 34.378 143.729 33.9838C145.042 33.5895 146.445 33.6127 147.744 34.05C149.042 34.4873 150.17 35.3169 150.968 36.4222C151.767 37.5277 152.197 38.8533 152.197 40.2133V52.4528H146.712Z" fill="white"/>
<path fill-rule="evenodd" clip-rule="evenodd" d="M106.853 38.3638C110.386 36.4581 110.171 33.2081 109.809 31.411C109.356 29.1646 106.951 26.1693 101.526 26.2104H91.4134V52.453H101.708C108.359 52.453 111.394 48.6302 111.311 44.4967C111.273 42.6545 110.745 39.5694 106.853 38.3638ZM97.5816 31.0852H101.564C101.935 31.0708 102.306 31.13 102.654 31.2595C103.002 31.3889 103.32 31.5862 103.59 31.8394C103.86 32.0926 104.077 32.3968 104.227 32.7341C104.377 33.0714 104.457 33.435 104.463 33.8035C104.463 35.4696 102.953 36.533 101.564 36.5255H97.5816V31.0852ZM102.632 47.6193H97.5552V41.359H102.53C102.952 41.3395 103.372 41.404 103.768 41.5488C104.163 41.6936 104.525 41.9157 104.833 42.2018C105.14 42.4879 105.386 42.8325 105.557 43.2148C105.727 43.5973 105.819 44.0097 105.826 44.4276C105.833 44.8457 105.755 45.2609 105.597 45.6485C105.439 46.0362 105.204 46.3883 104.906 46.6843C104.608 46.9801 104.253 47.2138 103.863 47.3712C103.472 47.5286 103.054 47.6065 102.632 47.6006V47.6193Z" fill="white"/>
</svg>
