<svg width="149" height="52" viewBox="0 0 149 52" fill="none" xmlns="http://www.w3.org/2000/svg">
<path fill-rule="evenodd" clip-rule="evenodd" d="M129.747 10.39H138.474V17.9701C141.66 18.4511 144.742 19.4604 147.589 20.9554C148.654 18.7142 149.129 16.2435 148.97 13.7726C148.811 11.3017 148.023 8.91041 146.679 6.82051C145.334 4.73061 143.478 3.00973 141.281 1.81743C139.084 0.625129 136.617 0 134.111 0C131.604 0 129.137 0.625129 126.94 1.81743C124.743 3.00973 122.887 4.73061 121.542 6.82051C120.198 8.91041 119.41 11.3017 119.251 13.7726C119.092 16.2435 119.567 18.7142 120.632 20.9554C123.479 19.4608 126.561 18.4516 129.747 17.9701V10.39Z" fill="#006095"/>
<path fill-rule="evenodd" clip-rule="evenodd" d="M134.111 29.361C136.581 29.3623 139.013 28.7564 141.187 27.5981C143.362 26.4398 145.21 24.7655 146.566 22.7259C142.725 20.7303 138.45 19.6875 134.111 19.6875C129.771 19.6875 125.496 20.7303 121.655 22.7259C123.01 24.7665 124.858 26.4416 127.033 27.6C129.207 28.7584 131.64 29.3637 134.111 29.361Z" fill="#D7153A"/>
<path fill-rule="evenodd" clip-rule="evenodd" d="M139.108 47.7849C139.049 47.2558 138.805 46.7636 138.418 46.3927C138.208 46.1806 137.956 46.0134 137.677 45.9017C137.399 45.7902 137.1 45.7363 136.799 45.7438C136.26 45.7436 135.738 45.9287 135.322 46.2671C134.906 46.6056 134.622 47.0763 134.519 47.5988C134.416 48.1213 134.499 48.6629 134.756 49.1311C135.013 49.5992 135.426 49.9647 135.925 50.1648C136.425 50.3651 136.979 50.3875 137.494 50.2284C138.008 50.0694 138.45 49.7385 138.745 49.2927C139.039 48.8471 139.168 48.3139 139.108 47.7849ZM137.32 49.2353C137.154 49.3014 136.977 49.3332 136.799 49.3286C136.621 49.3324 136.444 49.3003 136.278 49.2343C136.113 49.1683 135.963 49.0697 135.837 48.9444C135.587 48.6841 135.448 48.3389 135.448 47.9801C135.448 47.6212 135.587 47.2761 135.837 47.0157C136.095 46.7691 136.439 46.6312 136.798 46.6312C137.157 46.6312 137.501 46.7691 137.759 47.0157C138.01 47.2755 138.15 47.6209 138.15 47.9801C138.15 48.3393 138.01 48.6847 137.759 48.9444C137.634 49.0702 137.485 49.1692 137.32 49.2353Z" fill="#006095"/>
<path d="M136.376 45.292L136.799 44.7027L137.225 45.292H138.106L137.249 44.181H136.342L135.493 45.292H136.376Z" fill="#006095"/>
<path d="M139.383 43.4048H138.332L137.698 44.4795H138.526L139.383 43.4048Z" fill="#006095"/>
<path d="M68.5074 44.1368H67.5139V48.1916L64.6569 44.1368H63.8684V50.1074H64.8619V46.0525L67.7189 50.1074H68.5074V44.1368Z" fill="#006095"/>
<path fill-rule="evenodd" clip-rule="evenodd" d="M73.8061 45.8553H72.8704V46.4602C72.6982 46.2258 72.4697 46.0377 72.2053 45.9126C71.941 45.7875 71.6493 45.7294 71.3565 45.7436C71.0708 45.7395 70.7875 45.7951 70.5252 45.907C70.2629 46.0188 70.0275 46.1844 69.8347 46.3926C69.4253 46.8254 69.1975 47.3956 69.1975 47.9878C69.1975 48.5801 69.4253 49.1503 69.8347 49.583C70.0275 49.7913 70.2629 49.9568 70.5252 50.0687C70.7875 50.1805 71.0708 50.2362 71.3565 50.232C71.6501 50.2466 71.9428 50.1879 72.2073 50.0612C72.4719 49.9346 72.7 49.7444 72.8704 49.5077V50.123H73.8061V45.8553ZM72.0323 49.2612C71.8643 49.3272 71.6845 49.359 71.5037 49.3546C71.3229 49.359 71.1431 49.3272 70.9751 49.2612C70.807 49.1951 70.6543 49.0963 70.526 48.9704C70.3978 48.841 70.2973 48.6874 70.2305 48.5188C70.1637 48.3502 70.1319 48.1701 70.137 47.9891C70.1298 47.8091 70.1608 47.6296 70.2277 47.4619C70.2947 47.2943 70.3963 47.1424 70.526 47.0156C70.7869 46.7626 71.138 46.6209 71.5037 46.6209C71.8694 46.6209 72.2205 46.7626 72.4815 47.0156C72.6111 47.1424 72.7127 47.2943 72.7797 47.4619C72.8466 47.6296 72.8776 47.8091 72.8704 47.9891C72.8755 48.1701 72.8437 48.3502 72.7769 48.5188C72.7101 48.6874 72.6096 48.841 72.4815 48.9704C72.3531 49.0963 72.2004 49.1951 72.0323 49.2612Z" fill="#006095"/>
<path d="M71.3486 45.3413L71.806 44.7105L72.258 45.3413H73.2095L72.2922 44.1472H71.3145L70.3972 45.3413H71.3486Z" fill="#006095"/>
<path d="M78.6186 47.5115V50.1334H77.6855V47.605C77.6855 46.9664 77.3123 46.616 76.7157 46.616C76.0586 46.616 75.617 47.0157 75.617 47.8438V50.1334H74.6814V45.8553H75.617V46.4005C75.7608 46.1828 75.961 46.0072 76.1967 45.8917C76.4324 45.7762 76.6951 45.7251 76.9575 45.7436C77.9536 45.7436 78.6186 46.4082 78.6186 47.5115Z" fill="#006095"/>
<path fill-rule="evenodd" clip-rule="evenodd" d="M83.7701 45.8553H82.8528L82.8502 46.481C82.6836 46.2411 82.458 46.0472 82.1945 45.9173C81.931 45.7874 81.6384 45.7259 81.3442 45.7386C81.054 45.7326 80.7658 45.7874 80.4985 45.8992C80.2313 46.0111 79.991 46.1775 79.7935 46.3875C79.5874 46.5916 79.4252 46.8349 79.3168 47.1026C79.2084 47.3703 79.156 47.6569 79.1627 47.9451C79.1581 48.2331 79.2114 48.519 79.3197 48.7864C79.428 49.0538 79.5891 49.2973 79.7935 49.5026C79.993 49.7094 80.2339 49.8729 80.5009 49.9829C80.7678 50.0928 81.055 50.1467 81.3442 50.1412C81.6384 50.1539 81.931 50.0924 82.1945 49.9625C82.458 49.8326 82.6836 49.6387 82.8502 49.3988V49.918C82.8502 50.6604 82.364 51.0966 81.5597 51.0966C80.9447 51.0966 80.5215 50.8732 80.2955 50.4397L79.4912 50.8992C79.8644 51.595 80.5478 51.9376 81.5439 51.9376C82.1153 51.9547 82.6742 51.7706 83.1209 51.4184C83.339 51.2364 83.5111 51.0068 83.6238 50.7477C83.7365 50.4887 83.7866 50.2073 83.7701 49.9257V45.8553ZM82.0077 49.1934C81.8395 49.2594 81.6592 49.2905 81.4782 49.2846C81.2963 49.2888 81.1153 49.257 80.946 49.1911C80.7767 49.125 80.6226 49.0262 80.4926 48.9004C80.2433 48.6433 80.1041 48.301 80.1041 47.9451C80.1041 47.589 80.2433 47.2468 80.4926 46.9898C80.6226 46.8639 80.7767 46.765 80.946 46.6991C81.1153 46.6331 81.2963 46.6013 81.4782 46.6056C81.6592 46.5996 81.8395 46.6307 82.0077 46.6968C82.176 46.7629 82.3286 46.8626 82.456 46.9898C82.7121 47.2434 82.856 47.5869 82.856 47.9451C82.856 48.3033 82.7121 48.6468 82.456 48.9004C82.3286 49.0274 82.176 49.1272 82.0077 49.1934Z" fill="#006095"/>
<path fill-rule="evenodd" clip-rule="evenodd" d="M90.0361 45.8553H90.956V49.9257C90.9724 50.2073 90.9223 50.4887 90.8097 50.7477C90.697 51.0068 90.5248 51.2364 90.3068 51.4184C89.86 51.7705 89.3011 51.9544 88.7298 51.9376C87.7363 51.9376 87.0503 51.595 86.6797 50.8992L87.484 50.4397C87.71 50.8732 88.1332 51.0966 88.7482 51.0966C89.5525 51.0966 90.0361 50.6604 90.0361 49.918V49.3988C89.8695 49.6387 89.6438 49.8326 89.3803 49.9625C89.1168 50.0924 88.8242 50.1539 88.53 50.1412C88.2412 50.1467 87.9545 50.0927 87.688 49.9828C87.4214 49.8729 87.181 49.7094 86.9819 49.5026C86.7775 49.2973 86.6165 49.0538 86.5082 48.7864C86.3999 48.519 86.3465 48.2331 86.3512 47.9451C86.3444 47.6569 86.3969 47.3703 86.5053 47.1026C86.6137 46.8349 86.7758 46.5916 86.9819 46.3875C87.179 46.1775 87.4188 46.0111 87.6856 45.8993C87.9524 45.7874 88.2402 45.7326 88.53 45.7386C88.8242 45.7259 89.1168 45.7874 89.3803 45.9173C89.6438 46.0472 89.8695 46.2411 90.0361 46.481V45.8553ZM88.6614 49.2846C88.7362 49.2867 88.8109 49.2825 88.8846 49.2722C88.9892 49.2576 89.0918 49.2309 89.1904 49.1921C89.3585 49.1259 89.5112 49.0267 89.6392 48.9004C89.8934 48.6458 90.036 48.3027 90.036 47.9451C90.036 47.5875 89.8934 47.2443 89.6392 46.9898C89.5112 46.8634 89.3585 46.7641 89.1904 46.6981C89.0223 46.6321 88.8423 46.6006 88.6614 46.6056L88.6296 46.6052L88.6113 46.6053L88.575 46.6063C88.5448 46.6075 88.5147 46.6096 88.4847 46.6128C88.4552 46.6158 88.4257 46.6199 88.3965 46.625C88.3049 46.6405 88.215 46.6654 88.1281 46.6992C87.9584 46.7651 87.8037 46.864 87.6732 46.9898C87.4239 47.2468 87.2847 47.589 87.2847 47.9451C87.2847 48.301 87.4239 48.6433 87.6732 48.9004C87.8037 49.0262 87.9584 49.1249 88.1281 49.191C88.2978 49.2569 88.4791 49.2888 88.6614 49.2846Z" fill="#006095"/>
<path d="M91.7138 44.7832C91.7138 44.9346 91.7739 45.08 91.8811 45.1882C91.9911 45.2943 92.1387 45.3536 92.2925 45.3536C92.4462 45.3536 92.5938 45.2943 92.7038 45.1882C92.7591 45.1351 92.8031 45.0717 92.8334 45.0018C92.8378 44.9915 92.8419 44.9811 92.8458 44.9706L92.8521 44.9521L92.8558 44.9405L92.8594 44.928C92.8623 44.9173 92.865 44.9066 92.8673 44.8958C92.8754 44.8579 92.8797 44.8192 92.8799 44.7803C92.8804 44.7043 92.8656 44.6288 92.8363 44.5584C92.807 44.488 92.7638 44.424 92.7092 44.3704C92.6546 44.3167 92.5897 44.2741 92.5184 44.2454C92.447 44.2166 92.3705 44.2022 92.2935 44.203C92.2164 44.2037 92.1403 44.2196 92.0695 44.2497C91.9987 44.2798 91.9347 44.3235 91.8811 44.3783C91.7739 44.4864 91.7138 44.6318 91.7138 44.7832Z" fill="#006095"/>
<path d="M92.7642 45.8553H91.8286V50.1204L92.7642 50.123V45.8553Z" fill="#006095"/>
<path fill-rule="evenodd" clip-rule="evenodd" d="M97.0563 45.8553H97.992V50.123H97.0563V49.5077C96.8859 49.7444 96.6578 49.9346 96.3932 50.0612C96.1287 50.1879 95.836 50.2466 95.5424 50.232C95.2567 50.2362 94.9734 50.1805 94.711 50.0687C94.4487 49.9568 94.2134 49.7913 94.0206 49.583C93.6112 49.1503 93.3834 48.5801 93.3834 47.9878C93.3834 47.3955 93.6112 46.8254 94.0206 46.3926C94.2134 46.1844 94.4487 46.0188 94.711 45.907C94.9734 45.7951 95.2567 45.7395 95.5424 45.7436C95.8352 45.7294 96.1269 45.7875 96.3912 45.9126C96.6556 46.0377 96.8841 46.2258 97.0563 46.4602V45.8553ZM95.6896 49.3546C95.8704 49.359 96.0502 49.3272 96.2182 49.2612C96.3863 49.1951 96.539 49.0963 96.6673 48.9704C96.7955 48.841 96.896 48.6874 96.9628 48.5188C97.0296 48.3502 97.0614 48.1701 97.0563 47.9891C97.0635 47.8091 97.0326 47.6296 96.9656 47.4619C96.8986 47.2943 96.797 47.1424 96.6673 47.0156C96.4064 46.7626 96.0553 46.6209 95.6896 46.6209C95.3239 46.6209 94.9728 46.7626 94.7119 47.0156C94.5822 47.1424 94.4806 47.2943 94.4136 47.4619C94.3467 47.6296 94.3157 47.8091 94.3229 47.9891C94.3178 48.1701 94.3496 48.3502 94.4164 48.5188C94.4833 48.6874 94.5837 48.841 94.7119 48.9704C94.8402 49.0963 94.9929 49.1951 95.161 49.2612C95.2228 49.2855 95.2861 49.3052 95.3505 49.3201C95.4614 49.3457 95.5753 49.3574 95.6896 49.3546Z" fill="#006095"/>
<path d="M97.3428 44.1368L96.4255 45.2894H95.5267L96.2179 44.1368H97.3428Z" fill="#006095"/>
<path d="M102.155 46.7327H103.23V45.8475H102.155V44.6508L101.222 44.9233V45.8475H100.434V46.7327H101.222V48.7834C101.222 49.8998 101.8 50.284 103.23 50.1151V49.287C102.521 49.3209 102.155 49.3286 102.155 48.7834V46.7327Z" fill="#006095"/>
<path d="M104.839 46.5718C104.946 46.3161 105.134 46.101 105.374 45.958C105.615 45.8151 105.895 45.7519 106.174 45.7775V46.7769C105.84 46.7463 105.507 46.8388 105.238 47.0365C105.098 47.1482 104.988 47.2926 104.919 47.4566C104.849 47.6206 104.821 47.7992 104.839 47.9762V50.1282H103.906V45.8553H104.839V46.5718Z" fill="#006095"/>
<path d="M106.548 44.8931C106.572 45.0052 106.628 45.1078 106.71 45.1881C106.819 45.2953 106.966 45.3554 107.12 45.3554C107.274 45.3554 107.421 45.2953 107.53 45.1881C107.613 45.1078 107.669 45.0052 107.692 44.8931C107.715 44.7812 107.704 44.665 107.66 44.5593C107.616 44.4535 107.541 44.363 107.445 44.2994C107.349 44.2358 107.236 44.2018 107.12 44.2018C107.004 44.2018 106.891 44.2358 106.795 44.2994C106.699 44.363 106.624 44.4535 106.58 44.5593C106.536 44.665 106.525 44.7812 106.548 44.8931Z" fill="#006095"/>
<path d="M106.542 51.4198C106.541 51.5727 106.601 51.7197 106.71 51.8284C106.764 51.8828 106.829 51.9259 106.9 51.9553C106.938 51.9708 106.977 51.9823 107.017 51.9898C107.053 51.9965 107.089 51.9999 107.125 51.9999C107.203 51.9999 107.279 51.9847 107.35 51.9553C107.422 51.9259 107.486 51.8828 107.541 51.8284C107.595 51.7757 107.639 51.7127 107.669 51.6433C107.698 51.5737 107.713 51.499 107.713 51.4235C107.713 51.348 107.698 51.2734 107.669 51.2038C107.653 51.1686 107.635 51.135 107.613 51.1035C107.592 51.073 107.568 51.0445 107.541 51.0185C107.432 50.9097 107.284 50.8481 107.129 50.8471C106.974 50.8461 106.826 50.9059 106.715 51.0134C106.605 51.1208 106.543 51.2669 106.542 51.4198Z" fill="#006095"/>
<path d="M107.583 45.8553H106.65V50.123H107.583V45.8553Z" fill="#006095"/>
<path d="M110.805 49.5882C110.593 49.3799 110.426 49.1311 110.315 48.8572C110.203 48.5832 110.149 48.2896 110.156 47.9943C110.147 47.6984 110.2 47.404 110.312 47.1293C110.424 46.8546 110.592 46.6057 110.805 46.3978C111.018 46.185 111.273 46.0176 111.554 45.9059C111.836 45.7943 112.137 45.7409 112.44 45.7488C112.833 45.7384 113.221 45.8358 113.562 46.0301C113.902 46.2243 114.182 46.508 114.369 46.8496L113.565 47.309C113.46 47.1033 113.298 46.932 113.097 46.8155C112.896 46.6989 112.665 46.6422 112.432 46.6522C112.254 46.6484 112.076 46.6805 111.911 46.7466C111.746 46.8127 111.596 46.9113 111.47 47.0364C111.225 47.2962 111.089 47.6381 111.089 47.993C111.089 48.3479 111.225 48.6898 111.47 48.9496C111.596 49.0749 111.746 49.1735 111.911 49.2395C112.076 49.3055 112.254 49.3376 112.432 49.3338C112.667 49.3404 112.899 49.2825 113.102 49.1666C113.305 49.0506 113.472 48.8812 113.583 48.6771L114.388 49.1287C114.195 49.4707 113.913 49.7545 113.569 49.9498C113.226 50.145 112.836 50.2444 112.44 50.2372C112.137 50.2452 111.836 50.1917 111.554 50.0801C111.273 49.9685 111.018 49.801 110.805 49.5882Z" fill="#006095"/>
<path d="M118.724 45.8553H117.789V48.1423C117.789 48.9704 117.347 49.3702 116.69 49.3702C116.093 49.3702 115.72 49.0197 115.72 48.3811V45.8553H114.787V48.4876C114.787 49.5805 115.452 50.245 116.448 50.245C116.711 50.2635 116.973 50.2125 117.209 50.097C117.445 49.9815 117.645 49.8058 117.789 49.5882V50.123H118.724V45.8553Z" fill="#006095"/>
<path fill-rule="evenodd" clip-rule="evenodd" d="M123.269 46.3926C123.655 46.7636 123.899 47.2557 123.959 47.7848C124.018 48.3138 123.89 48.8469 123.595 49.2927C123.301 49.7385 122.858 50.0692 122.344 50.2283C121.83 50.3874 121.275 50.3649 120.776 50.1648C120.276 49.9645 119.863 49.5991 119.606 49.131C119.35 48.6629 119.266 48.1213 119.369 47.5988C119.472 47.0763 119.756 46.6056 120.172 46.2671C120.588 45.9287 121.111 45.7436 121.65 45.7436C121.95 45.7363 122.249 45.79 122.528 45.9017C122.806 46.0134 123.058 46.1804 123.269 46.3926ZM121.642 49.3286C121.82 49.3324 121.997 49.3003 122.163 49.2342C122.184 49.2258 122.205 49.2168 122.225 49.2074C122.262 49.1903 122.298 49.1716 122.334 49.1513C122.432 49.0944 122.523 49.0249 122.604 48.9444C122.854 48.6839 122.993 48.3388 122.993 47.98C122.993 47.6212 122.854 47.2761 122.604 47.0156C122.345 46.7695 122.001 46.6319 121.642 46.6319C121.283 46.6319 120.938 46.7695 120.68 47.0156C120.43 47.2761 120.291 47.6212 120.291 47.98C120.291 48.3388 120.43 48.6839 120.68 48.9444C120.741 49.0056 120.809 49.0605 120.881 49.1083C120.956 49.1583 121.036 49.2005 121.121 49.2342C121.286 49.3003 121.463 49.3324 121.642 49.3286Z" fill="#006095"/>
<path d="M121.642 44.7026L121.219 45.2919H120.335L121.184 44.1809H122.094L122.948 45.2919H122.067L121.642 44.7026Z" fill="#006095"/>
<path d="M121.226 51.8207C121.119 51.7125 121.059 51.5671 121.059 51.4157C121.059 51.2643 121.119 51.1189 121.226 51.0108C121.308 50.9303 121.411 50.8755 121.524 50.8532C121.54 50.85 121.556 50.8475 121.572 50.8456C121.593 50.8433 121.613 50.8422 121.633 50.842C121.648 50.8419 121.663 50.8424 121.678 50.8434C121.74 50.8476 121.802 50.8618 121.86 50.8855C121.966 50.9289 122.057 51.0024 122.121 51.0968C122.185 51.1911 122.219 51.3022 122.219 51.4157C122.219 51.5293 122.185 51.6402 122.121 51.7346C122.1 51.7647 122.077 51.7926 122.052 51.8181C122.031 51.8395 122.008 51.8591 121.983 51.877C121.958 51.8959 121.93 51.9126 121.901 51.9269C121.888 51.9338 121.874 51.9401 121.86 51.9459C121.753 51.9893 121.637 52.0006 121.524 51.9783C121.411 51.956 121.308 51.9011 121.226 51.8207Z" fill="#006095"/>
<path d="M124.476 48.8572C124.588 49.1311 124.755 49.3799 124.967 49.5882C125.181 49.8014 125.438 49.9686 125.721 50.0794C126.004 50.1902 126.308 50.2421 126.612 50.232C127.008 50.2398 127.399 50.1407 127.742 49.9454C128.085 49.7501 128.368 49.4659 128.559 49.1235L127.755 48.6719C127.644 48.876 127.477 49.0454 127.274 49.1614C127.071 49.2774 126.839 49.3352 126.604 49.3286C126.426 49.3324 126.248 49.3003 126.083 49.2343C126.01 49.2049 125.939 49.1692 125.872 49.1275C125.789 49.0754 125.712 49.014 125.642 48.9444C125.399 48.6837 125.264 48.3422 125.264 47.9878C125.264 47.6334 125.399 47.2919 125.642 47.0312C125.768 46.9061 125.918 46.8075 126.083 46.7414C126.248 46.6754 126.426 46.6432 126.604 46.647C126.837 46.6367 127.068 46.6933 127.269 46.8098C127.47 46.9264 127.632 47.098 127.737 47.3039L128.531 46.8496C128.344 46.5078 128.064 46.224 127.724 46.0297C127.383 45.8354 126.995 45.7382 126.601 45.7488C126.298 45.7409 125.997 45.7943 125.716 45.906C125.435 46.0176 125.18 46.185 124.967 46.3978C124.753 46.6057 124.585 46.8546 124.474 47.1293C124.362 47.404 124.309 47.6984 124.317 47.9943C124.31 48.2896 124.365 48.5832 124.476 48.8572Z" fill="#006095"/>
<path d="M132.636 47.5869C133.301 47.7322 134.168 48.0048 134.15 48.9186C134.152 48.9681 134.15 49.0176 134.145 49.0667C134.142 49.1039 134.136 49.1409 134.129 49.1775C134.122 49.2088 134.115 49.2399 134.106 49.2707C134.101 49.2861 134.097 49.3015 134.091 49.3168C134.084 49.3391 134.075 49.3613 134.066 49.3832C134.056 49.4094 134.044 49.4351 134.031 49.4604C133.979 49.564 133.912 49.6586 133.831 49.7413C133.781 49.7929 133.726 49.8399 133.666 49.8816C133.314 50.1239 132.892 50.2468 132.463 50.2321C131.606 50.2321 130.975 49.8583 130.696 49.2352L131.501 48.7732C131.566 48.9686 131.697 49.1362 131.872 49.248C132.047 49.3599 132.255 49.4095 132.463 49.3884C132.957 49.3884 133.198 49.2248 133.198 48.9107C133.198 48.6355 132.833 48.4747 132.376 48.363C131.727 48.202 130.851 47.9451 130.87 47.0495C130.864 46.8677 130.901 46.6871 130.979 46.5223C131.057 46.3576 131.174 46.2135 131.319 46.102C131.53 45.9499 131.771 45.8424 132.026 45.786C132.281 45.7297 132.545 45.7258 132.801 45.7744C133.058 45.8231 133.302 45.9234 133.518 46.069C133.733 46.2148 133.916 46.4026 134.055 46.6212L133.267 47.0547C133.2 46.9001 133.085 46.7701 132.94 46.683C132.794 46.5961 132.624 46.5561 132.455 46.5692C132.1 46.5692 131.821 46.7224 131.821 47.0209C131.821 47.3194 132.187 47.4596 132.636 47.5869Z" fill="#006095"/>
<path d="M143.654 47.5115V50.1334H142.718V47.605C142.718 46.9664 142.345 46.616 141.748 46.616C141.091 46.616 140.65 47.0157 140.65 47.8438V50.1334H139.714V45.8553H140.65V46.4005C140.794 46.1828 140.994 46.0072 141.229 45.8917C141.289 45.8627 141.35 45.8377 141.412 45.8168C141.449 45.8044 141.487 45.7935 141.525 45.7841C141.605 45.7642 141.687 45.7509 141.769 45.7444C141.843 45.7387 141.916 45.7384 141.99 45.7436C142.981 45.7436 143.654 46.4082 143.654 47.5115Z" fill="#006095"/>
<path fill-rule="evenodd" clip-rule="evenodd" d="M148.805 45.8553H147.888L147.886 46.481C147.719 46.2411 147.493 46.0472 147.23 45.9173C146.966 45.7874 146.674 45.7259 146.38 45.7386C146.089 45.7326 145.801 45.7874 145.534 45.8992C145.267 46.0111 145.026 46.1775 144.829 46.3875C144.623 46.5916 144.461 46.8349 144.352 47.1026C144.244 47.3703 144.191 47.6569 144.198 47.9451C144.193 48.2331 144.247 48.519 144.355 48.7864C144.463 49.0538 144.624 49.2973 144.829 49.5026C145.028 49.7094 145.269 49.8729 145.536 49.9829C145.803 50.0928 146.09 50.1467 146.38 50.1412C146.674 50.1539 146.966 50.0924 147.23 49.9625C147.493 49.8326 147.719 49.6387 147.886 49.3988V49.918C147.886 50.6604 147.399 51.0966 146.595 51.0966C145.98 51.0966 145.557 50.8732 145.331 50.4397L144.527 50.8992C144.9 51.595 145.583 51.9376 146.579 51.9376C147.151 51.9547 147.71 51.7706 148.156 51.4184C148.374 51.2364 148.547 51.0068 148.659 50.7477C148.772 50.4887 148.822 50.2073 148.805 49.9257V45.8553ZM146.714 49.2758C146.647 49.2837 146.579 49.2868 146.511 49.2846C146.329 49.2888 146.148 49.257 145.979 49.1911C145.874 49.1501 145.775 49.0967 145.684 49.0319C145.628 48.9922 145.575 48.9482 145.525 48.9004C145.276 48.6433 145.137 48.301 145.137 47.9451C145.137 47.589 145.276 47.2468 145.525 46.9898C145.655 46.8639 145.809 46.765 145.979 46.6991C146.058 46.6682 146.14 46.6447 146.223 46.629C146.318 46.6111 146.414 46.6033 146.511 46.6056C146.692 46.5996 146.872 46.6307 147.04 46.6968C147.209 46.7629 147.361 46.8626 147.489 46.9898C147.745 47.2434 147.889 47.5869 147.889 47.9451C147.889 48.3033 147.745 48.6468 147.489 48.9004C147.361 49.0274 147.209 49.1272 147.04 49.1934C146.935 49.2347 146.825 49.2623 146.714 49.2758Z" fill="#006095"/>
<path d="M120.64 23.7799L115.239 29.3714L120.64 36.3493H115.618L111.757 30.6902V36.3493H107.851V18.1104H108.377C108.821 18.1087 109.261 18.1938 109.671 18.3607C110.082 18.5278 110.455 18.7734 110.77 19.0835C111.084 19.3935 111.333 19.7618 111.502 20.1673C111.671 20.5729 111.758 21.0075 111.757 21.4461V28.263L115.854 23.7799H120.64Z" fill="#006095"/>
<path d="M10.1969 35.7783C9.67663 36.1501 9.05277 36.3539 8.41065 36.3622H7.24631L0 18.1545H4.67318L9.26749 29.7219L13.8671 18.1649H17.7307C17.7307 18.1649 12.8946 30.2463 11.3176 34.2855C11.1086 34.8852 10.7173 35.4065 10.1969 35.7783Z" fill="#006095"/>
<path d="M42.755 23.7746V26.7079H40.6918V31.2768C40.6911 31.5124 40.7375 31.7459 40.8283 31.9638C40.9192 32.1818 41.0526 32.3798 41.2211 32.5467C41.3896 32.7135 41.5897 32.846 41.8101 32.9364C42.0305 33.0266 42.2667 33.0731 42.5053 33.0731L42.7524 33.0575V36.3311L41.4803 36.37C40.308 36.3965 39.1727 35.9636 38.3226 35.1658C37.4726 34.368 36.9768 33.2704 36.9438 32.1127V26.7079H35.0672V23.7746H36.9438V20.6387H40.697V23.7746H42.755Z" fill="#006095"/>
<path fill-rule="evenodd" clip-rule="evenodd" d="M24.7457 31.2197H34.3654C34.42 30.8899 34.4525 30.5569 34.4627 30.2229C34.4919 29.3341 34.3402 28.4485 34.0165 27.6187C33.6928 26.7888 33.2037 26.0316 32.5781 25.392C31.9642 24.7529 31.225 24.2441 30.4056 23.8963C29.5861 23.5486 28.7036 23.3693 27.8117 23.3693C26.9198 23.3693 26.0372 23.5486 25.2178 23.8963C24.3983 24.2441 23.6591 24.7529 23.0452 25.392C21.8213 26.6608 21.1424 28.3483 21.1507 30.1008C21.159 31.8531 21.854 33.5344 23.0899 34.7918C23.7031 35.4243 24.4418 35.9251 25.26 36.2627C26.0781 36.6004 26.9579 36.7677 27.8445 36.7543C29.2168 36.7662 30.5563 36.3402 31.6635 35.5394C32.7385 34.7469 33.5598 33.6654 34.029 32.4243H30.4518C30.1852 32.8916 29.7988 33.2814 29.3315 33.5548C28.8642 33.8282 28.3324 33.9754 27.7893 33.9818C27.0226 33.9861 26.2827 33.7037 25.7181 33.1914C25.1535 32.679 24.8061 31.9747 24.7457 31.2197ZM29.7309 26.9342C30.2753 27.3842 30.6422 28.0089 30.7672 28.6991H24.8114C24.9365 28.0089 25.3033 27.3842 25.8477 26.9342C26.3921 26.4842 27.0794 26.2376 27.7893 26.2376C28.4992 26.2376 29.1865 26.4842 29.7309 26.9342Z" fill="#006095"/>
<path d="M15.9618 27.1052C15.9604 26.6667 16.0469 26.2324 16.2161 25.827C16.3853 25.4216 16.6341 25.0534 16.948 24.7434C17.2619 24.4333 17.6347 24.1877 18.0451 24.0205C18.4555 23.8535 18.8953 23.768 19.3392 23.7694H19.7125V36.37H15.9697L15.9618 27.1052Z" fill="#006095"/>
<path d="M44.5261 25.8264C44.3567 26.232 44.2702 26.6665 44.2716 27.1052L44.2821 36.37H48.0196V23.7694H47.6516C47.2075 23.7678 46.7674 23.8528 46.3567 24.0198C45.946 24.1868 45.5728 24.4325 45.2586 24.7425C44.9445 25.0525 44.6955 25.4209 44.5261 25.8264Z" fill="#006095"/>
<path d="M57.9205 36.3673V28.751C57.9222 28.485 57.8706 28.2214 57.7685 27.9752C57.6664 27.7292 57.5159 27.5055 57.3258 27.3172C57.1356 27.1289 56.9095 26.9797 56.6606 26.8783C56.4117 26.7768 56.1449 26.7251 55.8756 26.7261C55.5952 26.7162 55.3157 26.7628 55.0541 26.8632C54.7926 26.9637 54.5546 27.1157 54.3545 27.3101C54.1545 27.5045 53.9968 27.7372 53.8909 27.9939C53.785 28.2504 53.7333 28.5257 53.7388 28.8028V36.3569H49.9383V23.7954H53.4918V25.1323H53.5496C54.1312 24.3845 54.9353 23.8355 55.849 23.5622C56.7626 23.2888 57.74 23.3049 58.644 23.6081C59.5479 23.9113 60.333 24.4865 60.8892 25.2528C61.4453 26.0193 61.7445 26.9384 61.7447 27.8813V36.3673H57.9205Z" fill="#006095"/>
<path fill-rule="evenodd" clip-rule="evenodd" d="M88.4959 25.1219V23.785H92.2544V36.3492H88.4906V34.989H88.4459C88.1013 35.619 87.543 36.1089 86.8689 36.3725C86.2082 36.6488 85.4969 36.7875 84.7794 36.7802C82.8852 36.7802 81.3477 36.1285 80.1667 34.8254C79.0312 33.5534 78.4635 31.9655 78.4635 30.062C78.4635 28.1825 79.0426 26.6059 80.2008 25.3322C80.7705 24.691 81.476 24.1816 82.2672 23.8398C83.0584 23.4979 83.9161 23.3321 84.7794 23.354C85.4946 23.3458 86.2034 23.4883 86.8584 23.7721C87.5203 24.0446 88.0779 24.5171 88.4512 25.1219H88.4959ZM86.579 33.0336C86.9561 32.8751 87.297 32.643 87.5812 32.3515V32.3489C88.1579 31.7308 88.468 30.9151 88.4459 30.0749C88.4599 29.6551 88.3898 29.2368 88.2396 28.8439C88.0894 28.4509 87.8621 28.0912 87.5707 27.7853C87.2866 27.4889 86.9425 27.255 86.5607 27.099C86.1789 26.9428 85.7681 26.868 85.355 26.8793C84.941 26.869 84.5298 26.9488 84.1505 27.1129C83.7713 27.2772 83.4332 27.5217 83.1603 27.8295C82.592 28.4574 82.2899 29.2771 82.3167 30.119C82.2986 30.9481 82.6132 31.7506 83.1919 32.3515C83.4761 32.643 83.8169 32.8751 84.1941 33.0336C84.5712 33.192 84.9767 33.2736 85.3865 33.2736C85.7963 33.2736 86.202 33.192 86.579 33.0336Z" fill="#006095"/>
<path d="M102.15 36.3673V28.751C102.152 28.485 102.1 28.2214 101.998 27.9752C101.896 27.7292 101.745 27.5055 101.555 27.3172C101.365 27.1289 101.139 26.9797 100.89 26.8783C100.641 26.7768 100.374 26.7251 100.105 26.7261C99.8248 26.7162 99.5452 26.7628 99.2837 26.8632C99.0221 26.9637 98.7841 27.1157 98.5841 27.3101C98.3841 27.5045 98.2263 27.7372 98.1204 27.9939C98.0145 28.2504 97.9628 28.5257 97.9683 28.8028V36.3569H94.1573V23.7954H97.7108V25.1323H97.7739C98.3555 24.3845 99.1595 23.8355 100.073 23.5622C100.987 23.2888 101.964 23.3049 102.868 23.6081C103.772 23.9113 104.557 24.4865 105.113 25.2528C105.67 26.0193 105.969 26.9384 105.969 27.8813V36.3673H102.15Z" fill="#006095"/>
<path fill-rule="evenodd" clip-rule="evenodd" d="M74.3975 26.5989C76.8576 25.2777 76.7078 23.0244 76.4555 21.7784C76.1401 20.2208 74.4658 18.1441 70.6889 18.1726H63.6476V36.3674H70.8151C75.4462 36.3674 77.5594 33.717 77.5015 30.8511C77.4753 29.5738 77.1073 27.4349 74.3975 26.5989ZM67.9423 21.5525H70.7152C70.9738 21.5425 71.2318 21.5835 71.474 21.6733C71.7163 21.763 71.938 21.8998 72.126 22.0754C72.314 22.2509 72.4647 22.4618 72.569 22.6957C72.6734 22.9295 72.7294 23.1817 72.7338 23.4372C72.7338 24.5923 71.6824 25.3296 70.7152 25.3244H67.9423V21.5525ZM71.459 33.0161H67.9239V28.6757H71.3881C71.6813 28.6621 71.9742 28.7068 72.2496 28.8072C72.5249 28.9076 72.7771 29.0616 72.991 29.26C73.205 29.4584 73.3765 29.6973 73.4952 29.9623C73.614 30.2275 73.6776 30.5135 73.6824 30.8032C73.6871 31.0931 73.6329 31.381 73.5229 31.6497C73.4129 31.9185 73.2494 32.1627 73.042 32.3679C72.8346 32.573 72.5877 32.7349 72.3158 32.8441C72.0438 32.9532 71.7525 33.0072 71.459 33.0032V33.0161Z" fill="#006095"/>
</svg>
