<svg width="14" height="17" viewBox="0 0 14 17" fill="none" xmlns="http://www.w3.org/2000/svg">
<g clip-path="url(#clip0_1516_35912)">
<path d="M13.78 11.1309C13.78 11.2916 13.7502 11.5014 13.6907 11.7603C13.6312 12.0192 13.5687 12.223 13.5032 12.3718C13.3782 12.6694 13.0152 12.9848 12.414 13.3181C11.8546 13.6217 11.3011 13.7734 10.7535 13.7734C10.5928 13.7734 10.4351 13.763 10.2804 13.7422C10.1256 13.7214 9.9545 13.6842 9.76702 13.6306C9.57955 13.577 9.43968 13.5339 9.34743 13.5011C9.25518 13.4684 9.09002 13.4074 8.85195 13.3181C8.61388 13.2289 8.46806 13.1753 8.4145 13.1574C7.83123 12.9491 7.31046 12.7021 6.85218 12.4164C6.09631 11.9463 5.31069 11.3035 4.4953 10.4881C3.67992 9.67271 3.03713 8.88709 2.56695 8.13122C2.28127 7.67294 2.03427 7.15217 1.82596 6.5689C1.80811 6.51533 1.75454 6.36952 1.66527 6.13145C1.57599 5.89338 1.51499 5.72822 1.48225 5.63597C1.44952 5.54372 1.40637 5.40385 1.3528 5.21637C1.29924 5.0289 1.26204 4.85778 1.24121 4.70304C1.22038 4.5483 1.20996 4.39058 1.20996 4.22988C1.20996 3.68232 1.36173 3.12881 1.66527 2.56935C1.99856 1.96823 2.314 1.60518 2.61159 1.48019C2.76038 1.41472 2.96423 1.35223 3.22312 1.29271C3.48202 1.2332 3.69182 1.20344 3.85252 1.20344C3.93584 1.20344 3.99833 1.21237 4.04 1.23022C4.14713 1.26593 4.30485 1.49209 4.51316 1.90871C4.57863 2.0218 4.6679 2.18249 4.78098 2.3908C4.89407 2.59911 4.99822 2.78808 5.09345 2.9577C5.18868 3.12733 5.28093 3.28653 5.3702 3.43533C5.38806 3.45913 5.44014 3.53353 5.52643 3.65852C5.61273 3.7835 5.67671 3.88914 5.71838 3.97544C5.76004 4.06174 5.78087 4.14656 5.78087 4.22988C5.78087 4.34891 5.69606 4.49771 5.52643 4.67626C5.35681 4.85481 5.17231 5.01848 4.97293 5.16727C4.77354 5.31607 4.58904 5.47379 4.41942 5.64043C4.24979 5.80708 4.16498 5.94397 4.16498 6.0511C4.16498 6.10467 4.17986 6.17162 4.20962 6.25197C4.23938 6.33232 4.26467 6.39332 4.2855 6.43499C4.30634 6.47665 4.348 6.54807 4.41049 6.64925C4.47298 6.75043 4.50721 6.80697 4.51316 6.81887C4.96549 7.63425 5.48328 8.33358 6.06655 8.91685C6.64982 9.50011 7.34914 10.0179 8.16453 10.4702C8.17643 10.4762 8.23297 10.5104 8.33415 10.5729C8.43533 10.6354 8.50675 10.6771 8.54841 10.6979C8.59007 10.7187 8.65108 10.744 8.73143 10.7738C8.81178 10.8035 8.87873 10.8184 8.9323 10.8184C9.03943 10.8184 9.17632 10.7336 9.34297 10.564C9.50961 10.3944 9.66733 10.2099 9.81613 10.0105C9.96492 9.81109 10.1286 9.62659 10.3071 9.45696C10.4857 9.28734 10.6345 9.20253 10.7535 9.20253C10.8368 9.20253 10.9217 9.22336 11.008 9.26502C11.0943 9.30668 11.1999 9.37066 11.3249 9.45696C11.4499 9.54326 11.5243 9.59534 11.5481 9.6132C11.6969 9.70247 11.8561 9.79472 12.0257 9.88995C12.1953 9.98518 12.3843 10.0893 12.5926 10.2024C12.8009 10.3155 12.9616 10.4048 13.0747 10.4702C13.4913 10.6786 13.7175 10.8363 13.7532 10.9434C13.771 10.9851 13.78 11.0476 13.78 11.1309Z" fill="white"/>
</g>
<defs>
<clipPath id="clip0_1516_35912">
<rect width="12.57" height="16" fill="white" transform="matrix(1 0 0 -1 0.709961 16.0601)"/>
</clipPath>
</defs>
</svg>
