<svg width="16" height="17" viewBox="0 0 16 17" fill="none" xmlns="http://www.w3.org/2000/svg">
<g clip-path="url(#clip0_1516_35918)">
<path d="M16 6.39913V13.4884C16 13.8813 15.8601 14.2176 15.5804 14.4973C15.3006 14.7771 14.9643 14.917 14.5714 14.917H1.42857C1.03571 14.917 0.699405 14.7771 0.419643 14.4973C0.139881 14.2176 0 13.8813 0 13.4884V6.39913C0.261905 6.6908 0.5625 6.94973 0.901786 7.17592C3.05655 8.64021 4.53571 9.66699 5.33929 10.2563C5.67857 10.5063 5.95387 10.7012 6.16518 10.8411C6.37649 10.981 6.65774 11.1238 7.00893 11.2697C7.36012 11.4155 7.6875 11.4884 7.99107 11.4884H8H8.00893C8.3125 11.4884 8.63988 11.4155 8.99107 11.2697C9.34226 11.1238 9.62351 10.981 9.83482 10.8411C10.0461 10.7012 10.3214 10.5063 10.6607 10.2563C11.6726 9.52413 13.1548 8.49735 15.1071 7.17592C15.4464 6.94378 15.744 6.68485 16 6.39913ZM16 3.77413C16 4.24437 15.8542 4.69378 15.5625 5.12235C15.2708 5.55092 14.9077 5.91699 14.4732 6.22056C12.2351 7.77413 10.8423 8.7414 10.2946 9.12235C10.2351 9.16402 10.1086 9.25479 9.91518 9.39467C9.72173 9.53455 9.56101 9.64765 9.43304 9.73396C9.30506 9.82027 9.1503 9.91699 8.96875 10.0241C8.7872 10.1313 8.61607 10.2116 8.45536 10.2652C8.29464 10.3188 8.14583 10.3456 8.00893 10.3456H8H7.99107C7.85417 10.3456 7.70536 10.3188 7.54464 10.2652C7.38393 10.2116 7.2128 10.1313 7.03125 10.0241C6.8497 9.91699 6.69494 9.82027 6.56696 9.73396C6.43899 9.64765 6.27827 9.53455 6.08482 9.39467C5.89137 9.25479 5.76488 9.16402 5.70536 9.12235C5.16369 8.7414 4.38393 8.19824 3.36607 7.49288C2.34821 6.78753 1.7381 6.36342 1.53571 6.22056C1.16667 5.97056 0.818452 5.62681 0.491071 5.18931C0.16369 4.75181 0 4.34556 0 3.97056C0 3.50628 0.123512 3.11937 0.370536 2.80985C0.61756 2.50033 0.970238 2.34556 1.42857 2.34556H14.5714C14.9583 2.34556 15.2932 2.48544 15.5759 2.76521C15.8586 3.04497 16 3.38128 16 3.77413Z" fill="white"/>
</g>
<defs>
<clipPath id="clip0_1516_35918">
<rect width="16" height="16" fill="white" transform="matrix(1 0 0 -1 0 16.0601)"/>
</clipPath>
</defs>
</svg>
