<svg width="37" height="37" viewBox="0 0 37 37" fill="none" xmlns="http://www.w3.org/2000/svg">
<g clip-path="url(#clip0_1516_35547)">
<path d="M30.2405 12.8333H31.8335C32.6291 12.8333 33.3922 13.1494 33.9548 13.712C34.5174 14.2746 34.8335 15.0377 34.8335 15.8333V21.8333C34.8335 22.629 34.5174 23.3921 33.9548 23.9547C33.3922 24.5173 32.6291 24.8333 31.8335 24.8333H30.2405C29.8748 27.7333 28.4634 30.4001 26.2711 32.3333C24.0788 34.2666 21.2564 35.3333 18.3335 35.3333V32.3333C20.7204 32.3333 23.0096 31.3851 24.6975 29.6973C26.3853 28.0095 27.3335 25.7203 27.3335 23.3333V14.3333C27.3335 11.9464 26.3853 9.65721 24.6975 7.96939C23.0096 6.28156 20.7204 5.33335 18.3335 5.33335C15.9465 5.33335 13.6574 6.28156 11.9695 7.96939C10.2817 9.65721 9.3335 11.9464 9.3335 14.3333V24.8333H4.8335C4.03785 24.8333 3.27478 24.5173 2.71218 23.9547C2.14957 23.3921 1.8335 22.629 1.8335 21.8333V15.8333C1.8335 15.0377 2.14957 14.2746 2.71218 13.712C3.27478 13.1494 4.03785 12.8333 4.8335 12.8333H6.4265C6.79254 9.93369 8.20412 7.26726 10.3964 5.33436C12.5886 3.40146 15.4108 2.33496 18.3335 2.33496C21.2562 2.33496 24.0784 3.40146 26.2706 5.33436C28.4629 7.26726 29.8744 9.93369 30.2405 12.8333ZM4.8335 15.8333V21.8333H6.3335V15.8333H4.8335ZM30.3335 15.8333V21.8333H31.8335V15.8333H30.3335ZM11.9735 24.5108L13.5635 21.9668C14.9931 22.8624 16.6465 23.3361 18.3335 23.3333C20.0204 23.3361 21.6739 22.8624 23.1035 21.9668L24.6935 24.5108C22.7874 25.7051 20.5828 26.3368 18.3335 26.3333C16.0842 26.3368 13.8796 25.7051 11.9735 24.5108Z" fill="#7ED3F7"/>
</g>
<defs>
<clipPath id="clip0_1516_35547">
<rect width="36" height="36" fill="white" transform="translate(0.333496 0.833496)"/>
</clipPath>
</defs>
</svg>
