<svg width="37" height="37" viewBox="0 0 37 37" fill="none" xmlns="http://www.w3.org/2000/svg">
<g clip-path="url(#clip0_1516_35557)">
<path d="M4.8335 4.66699H31.8335C32.2313 4.66699 32.6129 4.82503 32.8942 5.10633C33.1755 5.38764 33.3335 5.76917 33.3335 6.16699V30.167C33.3335 30.5648 33.1755 30.9463 32.8942 31.2277C32.6129 31.509 32.2313 31.667 31.8335 31.667H4.8335C4.43567 31.667 4.05414 31.509 3.77284 31.2277C3.49153 30.9463 3.3335 30.5648 3.3335 30.167V6.16699C3.3335 5.76917 3.49153 5.38764 3.77284 5.10633C4.05414 4.82503 4.43567 4.66699 4.8335 4.66699ZM30.3335 18.167H6.3335V28.667H30.3335V18.167ZM30.3335 12.167V7.66699H6.3335V12.167H30.3335Z" fill="#7ED3F7"/>
</g>
<defs>
<clipPath id="clip0_1516_35557">
<rect width="36" height="36" fill="white" transform="translate(0.333496 0.166992)"/>
</clipPath>
</defs>
</svg>
