<svg width="37" height="37" viewBox="0 0 37 37" fill="none" xmlns="http://www.w3.org/2000/svg">
<g clip-path="url(#clip0_1516_35552)">
<path d="M6.3335 3.5H30.3335C30.7313 3.5 31.1129 3.65804 31.3942 3.93934C31.6755 4.22064 31.8335 4.60218 31.8335 5V32C31.8335 32.3978 31.6755 32.7794 31.3942 33.0607C31.1129 33.342 30.7313 33.5 30.3335 33.5H6.3335C5.93567 33.5 5.55414 33.342 5.27284 33.0607C4.99153 32.7794 4.8335 32.3978 4.8335 32V5C4.8335 4.60218 4.99153 4.22064 5.27284 3.93934C5.55414 3.65804 5.93567 3.5 6.3335 3.5ZM7.8335 6.5V30.5H28.8335V6.5H7.8335ZM10.8335 9.5H25.8335V15.5H10.8335V9.5ZM10.8335 18.5H13.8335V21.5H10.8335V18.5ZM10.8335 24.5H13.8335V27.5H10.8335V24.5ZM16.8335 18.5H19.8335V21.5H16.8335V18.5ZM16.8335 24.5H19.8335V27.5H16.8335V24.5ZM22.8335 18.5H25.8335V27.5H22.8335V18.5Z" fill="#7ED3F7"/>
</g>
<defs>
<clipPath id="clip0_1516_35552">
<rect width="36" height="36" fill="white" transform="translate(0.333496 0.5)"/>
</clipPath>
</defs>
</svg>
