<svg width="99" height="20" viewBox="0 0 99 20" fill="none" xmlns="http://www.w3.org/2000/svg">
<path d="M31.8411 5.61128C30.8754 5.61583 29.9328 5.90633 29.1321 6.44613C28.3314 6.98592 27.7085 7.75082 27.3421 8.64428C26.9757 9.53774 26.8822 10.5197 27.0734 11.4663C27.2645 12.4128 27.7318 13.2815 28.4163 13.9628C29.1007 14.644 29.9716 15.1072 30.919 15.2939C31.8665 15.4807 32.848 15.3825 33.7397 15.0119C34.6315 14.6414 35.3934 14.0149 35.9295 13.2117C36.4655 12.4084 36.7516 11.4644 36.7516 10.4988C36.7609 9.85238 36.6402 9.21073 36.3964 8.61201C36.1527 8.01329 35.7909 7.46973 35.3328 7.0137C34.8746 6.55768 34.3293 6.19851 33.7295 5.95757C33.1296 5.71664 32.4874 5.59887 31.8411 5.61128ZM31.8411 13.4657C31.2472 13.5073 30.6546 13.3692 30.1402 13.0694C29.6259 12.7697 29.2136 12.3221 28.9569 11.7849C28.7003 11.2478 28.6112 10.6458 28.7012 10.0573C28.7913 9.46884 29.0562 8.92105 29.4617 8.48516C29.8672 8.04927 30.3944 7.74544 30.9749 7.61316C31.5553 7.48089 32.1621 7.52629 32.7165 7.74347C33.2708 7.96064 33.7469 8.33955 34.083 8.83092C34.4191 9.3223 34.5996 9.90342 34.6011 10.4988C34.6196 10.876 34.5624 11.2531 34.4329 11.6078C34.3033 11.9626 34.1041 12.2878 33.8468 12.5643C33.5896 12.8409 33.2796 13.0631 32.9351 13.2179C32.5907 13.3727 32.2187 13.457 31.8411 13.4657ZM21.1347 5.61128C20.1685 5.61356 19.2247 5.90213 18.4225 6.44056C17.6203 6.97898 16.9956 7.74309 16.6274 8.63635C16.2593 9.52962 16.1641 10.512 16.354 11.4593C16.5439 12.4066 17.0103 13.2764 17.6943 13.9588C18.3783 14.6411 19.2491 15.1055 20.1969 15.2931C21.1446 15.4808 22.1268 15.3833 23.0192 15.0131C23.9116 14.6428 24.6742 14.0164 25.2107 13.2129C25.7473 12.4094 26.0336 11.4649 26.0336 10.4988C26.043 9.85238 25.9222 9.21073 25.6785 8.61201C25.4347 8.01329 25.073 7.46973 24.6148 7.0137C24.1567 6.55768 23.6114 6.19851 23.0116 5.95757C22.4117 5.71664 21.7695 5.59887 21.1232 5.61128H21.1347ZM21.1347 13.4657C20.5405 13.5096 19.9469 13.3736 19.4311 13.0754C18.9153 12.7772 18.5013 12.3306 18.2428 11.7938C17.9844 11.2569 17.8936 10.6547 17.9822 10.0656C18.0708 9.47642 18.3347 8.92758 18.7396 8.49051C19.1445 8.05344 19.6716 7.74839 20.2522 7.61507C20.8329 7.48174 21.4403 7.52633 21.9953 7.74301C22.5503 7.9597 23.0271 8.33845 23.3639 8.82996C23.7006 9.32147 23.8815 9.90297 23.8832 10.4988C23.9017 10.876 23.8445 11.2531 23.7149 11.6078C23.5854 11.9626 23.3861 12.2878 23.1289 12.5643C22.8717 12.8409 22.5617 13.0631 22.2172 13.2179C21.8727 13.3727 21.5007 13.457 21.1232 13.4657H21.1347ZM8.38125 7.11777V9.18776H13.3492C13.2713 10.1627 12.866 11.0827 12.1992 11.7982C11.7022 12.3045 11.1047 12.7011 10.4452 12.9626C9.78562 13.224 9.07865 13.3445 8.36975 13.3162C6.90576 13.3162 5.50174 12.7347 4.46655 11.6995C3.43135 10.6643 2.84979 9.26026 2.84979 7.79627C2.84979 6.33228 3.43135 4.92826 4.46655 3.89306C5.50174 2.85787 6.90576 2.2763 8.36975 2.2763C9.77021 2.25346 11.1226 2.78696 12.1302 3.75979L13.5907 2.2993C12.9105 1.61049 12.0989 1.06523 11.204 0.695831C10.3092 0.326436 9.34931 0.140423 8.38125 0.148817C7.3589 0.109029 6.33904 0.276035 5.38278 0.639829C4.42653 1.00362 3.55355 1.55671 2.81616 2.26596C2.07877 2.97521 1.49215 3.82603 1.09144 4.76741C0.690735 5.7088 0.484192 6.7214 0.484192 7.74452C0.484192 8.76764 0.690735 9.78023 1.09144 10.7216C1.49215 11.663 2.07877 12.5138 2.81616 13.2231C3.55355 13.9323 4.42653 14.4854 5.38278 14.8492C6.33904 15.213 7.3589 15.38 8.38125 15.3402C9.36559 15.3847 10.348 15.2178 11.2625 14.8509C12.1769 14.4839 13.0022 13.9253 13.6827 13.2127C14.8875 11.889 15.5308 10.1489 15.4767 8.35976C15.4804 7.9239 15.4419 7.48871 15.3617 7.06027L8.38125 7.11777ZM60.4874 8.72776C60.1875 7.84542 59.6267 7.07498 58.8792 6.51845C58.1316 5.96193 57.2327 5.64558 56.3014 5.61128C55.6724 5.61005 55.0498 5.73786 54.4721 5.98679C53.8944 6.23573 53.3739 6.60051 52.9427 7.05859C52.5116 7.51666 52.179 8.05829 51.9655 8.65C51.752 9.24172 51.6622 9.87093 51.7015 10.4988C51.6875 11.1415 51.8032 11.7805 52.0417 12.3775C52.2802 12.9745 52.6366 13.5173 53.0896 13.9735C53.5425 14.4297 54.0828 14.79 54.6782 15.0327C55.2735 15.2754 55.9116 15.3956 56.5544 15.3862C57.3589 15.3906 58.1518 15.1953 58.8623 14.818C59.5727 14.4407 60.1785 13.8931 60.6254 13.2242L58.9579 12.0742C58.709 12.4891 58.3567 12.8323 57.9354 13.0702C57.5141 13.3081 57.0382 13.4325 56.5544 13.4312C56.0563 13.4502 55.564 13.3189 55.1415 13.0543C54.719 12.7897 54.3859 12.4042 54.1855 11.9477L60.7289 9.24526L60.4874 8.72776ZM53.8175 10.3608C53.7941 10.0051 53.842 9.64828 53.9583 9.31132C54.0746 8.97436 54.257 8.66399 54.4948 8.3984C54.7325 8.1328 55.0209 7.91731 55.3429 7.76455C55.665 7.61179 56.0143 7.52484 56.3704 7.50877C56.7414 7.48433 57.1113 7.56939 57.4344 7.75339C57.7574 7.93739 58.0193 8.21222 58.1874 8.54376L53.8175 10.3608ZM48.5045 15.0987H50.655V0.723813H48.5045V15.0987ZM44.9855 6.70378H44.905C44.5809 6.34141 44.1839 6.05164 43.7399 5.85345C43.296 5.65527 42.8152 5.55315 42.329 5.55378C41.0723 5.61473 39.8872 6.15686 39.0193 7.06784C38.1514 7.97882 37.6673 9.1888 37.6673 10.447C37.6673 11.7052 38.1514 12.9152 39.0193 13.8262C39.8872 14.7371 41.0723 15.2793 42.329 15.3402C42.8164 15.3484 43.2995 15.2497 43.7446 15.051C44.1897 14.8523 44.5858 14.5585 44.905 14.1902H44.974V14.8917C44.974 16.7662 43.9735 17.7667 42.3635 17.7667C41.8273 17.7542 41.3069 17.5823 40.8687 17.2731C40.4304 16.9639 40.0941 16.5312 39.9025 16.0302L38.0281 16.8122C38.3809 17.6705 38.9821 18.4038 39.7546 18.9181C40.527 19.4324 41.4355 19.7042 42.3635 19.6987C44.882 19.6987 46.9635 18.2152 46.9635 14.6042V5.89878H44.9855V6.70378ZM42.5245 13.4657C41.7827 13.4004 41.0923 13.0595 40.5894 12.5103C40.0865 11.9611 39.8075 11.2434 39.8075 10.4988C39.8075 9.75408 40.0865 9.03641 40.5894 8.48722C41.0923 7.93802 41.7827 7.59714 42.5245 7.53177C42.8923 7.55064 43.2526 7.64294 43.5842 7.80321C43.9158 7.96348 44.2119 8.18849 44.4552 8.46498C44.6985 8.74148 44.8839 9.06386 45.0007 9.41315C45.1174 9.76243 45.1631 10.1315 45.135 10.4988C45.1664 10.8675 45.1226 11.2389 45.0064 11.5903C44.8902 11.9417 44.7039 12.2658 44.4588 12.5432C44.2137 12.8205 43.9149 13.0453 43.5804 13.2039C43.246 13.3624 42.8829 13.4515 42.513 13.4657H42.5245ZM70.5613 0.723813H65.4209V15.0987H67.5714V9.64776H70.5728C71.1857 9.69179 71.8011 9.60908 72.3806 9.4048C72.9602 9.20051 73.4914 8.87902 73.9412 8.46038C74.391 8.04174 74.7497 7.53492 74.995 6.97153C75.2403 6.40814 75.3669 5.80026 75.3669 5.18578C75.3669 4.57131 75.2403 3.96343 74.995 3.40004C74.7497 2.83665 74.391 2.32983 73.9412 1.91119C73.4914 1.49255 72.9602 1.17106 72.3806 0.966776C71.8011 0.762489 71.1857 0.679782 70.5728 0.723813H70.5613ZM70.5613 7.62377H67.5599V2.7248H70.6073C71.2616 2.7248 71.889 2.98469 72.3516 3.44729C72.8142 3.90989 73.0741 4.53732 73.0741 5.19154C73.0741 5.84575 72.8142 6.47318 72.3516 6.93578C71.889 7.39838 71.2616 7.65827 70.6073 7.65827L70.5613 7.62377ZM83.8208 5.55378C83.0378 5.50699 82.2583 5.68994 81.578 6.08016C80.8977 6.47038 80.3462 7.05086 79.9913 7.75027L81.9003 8.54376C82.0885 8.19687 82.3735 7.91218 82.7206 7.72433C83.0677 7.53649 83.4619 7.45361 83.8553 7.48577C84.1283 7.45389 84.4049 7.47669 84.6689 7.55284C84.933 7.629 85.1793 7.75699 85.3934 7.92933C85.6075 8.10168 85.7851 8.31494 85.9159 8.55667C86.0467 8.7984 86.1281 9.06376 86.1552 9.33726V9.48676C85.4645 9.12106 84.6943 8.93145 83.9128 8.93476C81.8543 8.93476 79.7728 10.0848 79.7728 12.1662C79.7931 12.6101 79.9022 13.0453 80.0936 13.4462C80.285 13.8472 80.5549 14.2057 80.8873 14.5005C81.2196 14.7953 81.6077 15.0205 82.0286 15.1628C82.4495 15.305 82.8947 15.3615 83.3378 15.3287C83.8793 15.3676 84.4213 15.26 84.907 15.0172C85.3926 14.7744 85.8039 14.4053 86.0977 13.9487H86.1667V15.0987H88.2367V9.56726C88.2367 7.04877 86.3277 5.58828 83.8783 5.58828L83.8208 5.55378ZM83.5563 13.4312C82.8548 13.4312 81.8773 13.0747 81.8773 12.2122C81.8773 11.0623 83.0963 10.6828 84.1773 10.6828C84.8604 10.6659 85.5355 10.8327 86.1322 11.1657C86.0603 11.7884 85.7658 12.364 85.303 12.7866C84.8403 13.2093 84.2403 13.4505 83.6138 13.4657L83.5563 13.4312ZM95.7807 5.89878L93.3197 12.1317H93.2507L90.6977 5.89878H88.3977L92.2272 14.6157L90.0422 19.4572H92.2847L98.1727 5.89878H95.7807ZM76.4493 15.0987H78.5998V0.723813H76.4493V15.0987Z" fill="white"/>
</svg>
