<svg width="49" height="49" viewBox="0 0 49 49" fill="none" xmlns="http://www.w3.org/2000/svg">
<path d="M0.334961 24.6001C0.334961 37.8549 11.0801 48.6001 24.335 48.6001C37.5898 48.6001 48.335 37.8549 48.335 24.6001C48.335 11.3453 37.5898 0.600098 24.335 0.600098C11.0801 0.600098 0.334961 11.3453 0.334961 24.6001Z" fill="#FF0000"/>
<path d="M35.735 18.7502C35.435 17.7002 34.685 16.9502 33.635 16.6502C31.835 16.2002 24.185 16.2002 24.185 16.2002C24.185 16.2002 16.685 16.2002 14.735 16.6502C13.685 16.9502 12.935 17.7002 12.635 18.7502C12.335 20.7002 12.335 24.6002 12.335 24.6002C12.335 24.6002 12.335 28.5002 12.785 30.4502C13.085 31.5002 13.835 32.2502 14.885 32.5502C16.685 33.0002 24.335 33.0002 24.335 33.0002C24.335 33.0002 31.8349 33.0002 33.7849 32.5502C34.8349 32.2502 35.585 31.5002 35.885 30.4502C36.335 28.5002 36.335 24.6002 36.335 24.6002C36.335 24.6002 36.335 20.7002 35.735 18.7502ZM21.935 28.2002V21.0002L28.235 24.6002L21.935 28.2002Z" fill="white"/>
</svg>
