<svg width="73" height="72" viewBox="0 0 73 72" fill="none" xmlns="http://www.w3.org/2000/svg">
<path fill-rule="evenodd" clip-rule="evenodd" d="M51.3452 4.5C51.3452 3.25736 50.3379 2.25 49.0952 2.25C47.8526 2.25 46.8452 3.25736 46.8452 4.5V9H27.3452V4.5C27.3452 3.25736 26.3379 2.25 25.0952 2.25C23.8526 2.25 22.8452 3.25736 22.8452 4.5V9H14.0952C11.8861 9 10.0952 10.7909 10.0952 13V60.5C10.0952 62.7091 11.8861 64.5 14.0952 64.5H60.0952C62.3044 64.5 64.0952 62.7091 64.0952 60.5V13C64.0952 10.7909 62.3044 9 60.0952 9H51.3452V4.5ZM22.0952 23.25C20.8526 23.25 19.8452 24.2574 19.8452 25.5C19.8452 26.7426 20.8526 27.75 22.0952 27.75H52.0952C53.3379 27.75 54.3452 26.7426 54.3452 25.5C54.3452 24.2574 53.3379 23.25 52.0952 23.25H22.0952ZM19.8452 37.5C19.8452 36.2574 20.8526 35.25 22.0952 35.25H52.0952C53.3379 35.25 54.3452 36.2574 54.3452 37.5C54.3452 38.7426 53.3379 39.75 52.0952 39.75H22.0952C20.8526 39.75 19.8452 38.7426 19.8452 37.5ZM22.0952 47.25C20.8526 47.25 19.8452 48.2574 19.8452 49.5C19.8452 50.7426 20.8526 51.75 22.0952 51.75H37.0952C38.3379 51.75 39.3452 50.7426 39.3452 49.5C39.3452 48.2574 38.3379 47.25 37.0952 47.25H22.0952Z" fill="white"/>
</svg>
