<svg width="73" height="72" viewBox="0 0 73 72" fill="none" xmlns="http://www.w3.org/2000/svg">
<path fill-rule="evenodd" clip-rule="evenodd" d="M57.2498 3.75C56.0071 3.75 54.9998 4.75736 54.9998 6C54.9998 7.24264 56.0071 8.25 57.2498 8.25H60.5874C49.354 17.2085 40.8061 22.8816 32.6787 26.6512C24.2864 30.5436 16.2357 32.4557 5.96457 33.7681C4.73195 33.9256 3.8604 35.0526 4.0179 36.2852C4.17541 37.5178 5.30232 38.3894 6.53494 38.2319C17.0902 36.8831 25.6272 34.8822 34.5721 30.7335C43.3182 26.677 52.3508 20.6149 63.9998 11.2833V15C63.9998 16.2426 65.0071 17.25 66.2498 17.25C67.4924 17.25 68.4998 16.2426 68.4998 15V9C68.4998 6.10051 66.1493 3.75 63.2498 3.75H57.2498ZM66.2499 28C66.2499 25.7909 64.459 24 62.2499 24H58.2499C56.0407 24 54.2499 25.7909 54.2499 28V62C54.2499 64.2091 56.0407 66 58.2499 66H62.2499C64.459 66 66.2499 64.2091 66.2499 62V28ZM18.2499 52C18.2499 49.7909 16.459 48 14.2499 48H10.2499C8.04074 48 6.24988 49.7909 6.24988 52L6.24988 62C6.24988 64.2091 8.04074 66 10.2499 66H14.2499C16.459 66 18.2499 64.2091 18.2499 62L18.2499 52ZM38.2499 36C40.459 36 42.2499 37.7909 42.2499 40V62C42.2499 64.2091 40.459 66 38.2499 66H34.2499C32.0407 66 30.2499 64.2091 30.2499 62V40C30.2499 37.7909 32.0407 36 34.2499 36H38.2499Z" fill="white"/>
</svg>
